<?xml version="1.0" standalone="no"?>
<!DOCTYPE svg PUBLIC "-//W3C//DTD SVG 1.1//EN" "http://www.w3.org/Graphics/SVG/1.1/DTD/svg11.dtd" >
<svg>
<metadata>
Created by FontForge 20090622 at Thu May 16 22:21:31 2019
 By deploy user
(C) 2012. Olivier Gourvat - Mostardesign Studio. wf-rip
</metadata>
<defs>
<font id="SofiaPro-ExtraLight" horiz-adv-x="1269" >
  <font-face 
    font-family="Sofia Pro ExtraLight"
    font-weight="200"
    font-stretch="normal"
    units-per-em="2048"
    panose-1="2 0 0 0 0 0 0 0 0 0"
    ascent="1536"
    descent="-512"
    x-height="956"
    cap-height="1411"
    bbox="-330 -479 2281 2128"
    underline-thickness="102"
    underline-position="-102"
    unicode-range="U+0020-U+FB04"
  />
<missing-glyph horiz-adv-x="1300" 
d="M164 0v1362h973v-1362h-973zM379 883h127q0 76 43 123t108 47t114.5 -42t49.5 -108q0 -60 -49 -102q-32 -35 -67 -43q-92 -28 -141.5 -79t-49.5 -147v-77h127v77q0 46 25.5 67.5t76.5 35.5q88 28 145.5 99t57.5 169q0 123 -85 200t-204 77q-117 0 -197.5 -82t-80.5 -215z
M485 268q0 -38 28 -63t67 -25q38 0 65 25t27 63t-27 63t-65 25q-39 0 -67 -25t-28 -63z" />
    <glyph glyph-name="uniFB00" unicode="ff" horiz-adv-x="1335" 
d="M57 872v84h193v140q0 405 325 405h84v-90h-84q-68 0 -116 -25.5t-72.5 -71.5t-34.5 -98.5t-10 -119.5v-140h600v140q0 89 17 159.5t53.5 127.5t101.5 87.5t154 30.5h84v-90h-84q-234 0 -234 -315v-140h256v-84h-256v-872h-92v872h-600v-872h-92v872h-193z" />
    <glyph glyph-name="uniFB01" unicode="fi" horiz-adv-x="1165" 
d="M57 872v84h193v140q0 405 325 405h84v-90h-84q-68 0 -116 -25.5t-72.5 -71.5t-34.5 -98.5t-10 -119.5v-140h655v-956h-92v872h-563v-872h-92v872h-193zM868 1311q0 32 24 53.5t58 21.5t57 -21.5t23 -53.5t-23 -54t-57 -22t-58 22t-24 54z" />
    <glyph glyph-name="uniFB02" unicode="fl" horiz-adv-x="1134" 
d="M57 872v84h193v140q0 405 325 405h388v-1501h-93v1411h-295q-68 0 -116 -25.5t-72.5 -71.5t-34.5 -98.5t-10 -119.5v-140h256v-84h-256v-872h-92v872h-193z" />
    <glyph glyph-name="uniFB03" unicode="ffi" horiz-adv-x="1857" 
d="M57 872v84h193v140q0 405 325 405h84v-90h-84q-68 0 -116 -25.5t-72.5 -71.5t-34.5 -98.5t-10 -119.5v-140h600v140q0 89 17 159.5t53.5 127.5t101.5 87.5t154 30.5h84v-90h-84q-234 0 -234 -315v-140h656v-956h-93v872h-563v-872h-92v872h-600v-872h-92v872h-193z
M1561 1311q0 32 23.5 53.5t57.5 21.5t57 -21.5t23 -53.5t-23 -54t-57 -22t-57.5 22t-23.5 54z" />
    <glyph glyph-name="uniFB04" unicode="ffl" horiz-adv-x="1826" 
d="M57 872v84h193v140q0 405 325 405h84v-90h-84q-68 0 -116 -25.5t-72.5 -71.5t-34.5 -98.5t-10 -119.5v-140h600v140q0 89 17 159.5t53.5 127.5t101.5 87.5t154 30.5h84v-90h-84q-234 0 -234 -315v-140h256v-84h-256v-872h-92v872h-600v-872h-92v872h-193zM1563 0v1501h92
v-1501h-92z" />
    <glyph glyph-name="f_f_j" unicode="ffj" horiz-adv-x="1871" 
d="M57 872v84h193v140q0 405 325 405h84v-90h-84q-68 0 -116 -25.5t-72.5 -71.5t-34.5 -98.5t-10 -119.5v-140h600v140q0 89 17 159.5t53.5 127.5t101.5 87.5t154 30.5h84v-90h-84q-234 0 -234 -315v-140h670v-1015q0 -404 -326 -404h-84v90h84q68 0 116 25t72.5 71t35 98.5
t10.5 119.5v931h-578v-872h-92v872h-600v-872h-92v872h-193zM1577 1311q0 32 24 53.5t58 21.5t57 -21.5t23 -53.5t-23 -54t-57 -22t-58 22t-24 54z" />
    <glyph glyph-name="f_j" unicode="fj" horiz-adv-x="1179" 
d="M57 872v84h193v140q0 405 325 405h84v-90h-84q-68 0 -116 -25.5t-72.5 -71.5t-34.5 -98.5t-10 -119.5v-140h670v-1015q0 -404 -326 -404h-84v90h84q68 0 116 25t72.5 71t35 98.5t10.5 119.5v931h-578v-872h-92v872h-193zM885 1311q0 32 24 53.5t58 21.5t57 -21.5
t23 -53.5t-23 -54t-57 -22t-58 22t-24 54z" />
    <glyph glyph-name=".notdef" horiz-adv-x="1300" 
d="M164 0v1362h973v-1362h-973zM379 883h127q0 76 43 123t108 47t114.5 -42t49.5 -108q0 -60 -49 -102q-32 -35 -67 -43q-92 -28 -141.5 -79t-49.5 -147v-77h127v77q0 46 25.5 67.5t76.5 35.5q88 28 145.5 99t57.5 169q0 123 -85 200t-204 77q-117 0 -197.5 -82t-80.5 -215z
M485 268q0 -38 28 -63t67 -25q38 0 65 25t27 63t-27 63t-65 25q-39 0 -67 -25t-28 -63z" />
    <glyph glyph-name="NULL" horiz-adv-x="0" 
 />
    <glyph glyph-name="nonmarkingreturn" horiz-adv-x="682" 
 />
    <glyph glyph-name="space" unicode=" " horiz-adv-x="552" 
 />
    <glyph glyph-name="exclam" unicode="!" horiz-adv-x="501" 
d="M166 66q0 33 25 55t59 22q36 0 61 -22t25 -55q0 -34 -25.5 -57t-60.5 -23q-34 0 -59 23.5t-25 56.5zM205 1411h92l-6 -1067h-82z" />
    <glyph glyph-name="quotedbl" unicode="&#x22;" horiz-adv-x="620" 
d="M166 885v526h82v-526h-82zM373 885v526h82v-526h-82z" />
    <glyph glyph-name="numbersign" unicode="#" horiz-adv-x="1427" 
d="M82 367l24 88h265l137 495h-266l24 88h266l103 373h88l-102 -373h368l103 373h90l-105 -373h269l-25 -88h-268l-135 -495h266l-23 -88h-268l-100 -367h-91l103 367h-369l-102 -367h-88l102 367h-266zM459 455h368l138 495h-369z" />
    <glyph glyph-name="dollar" unicode="$" horiz-adv-x="1126" 
d="M106 367h93q11 -117 109 -206t245 -89q162 0 262 77t121 181q10 72 -9 130t-62.5 97.5t-99 66t-126.5 42.5l-197 47q-325 69 -325 342q0 104 59 188.5t152.5 131.5t201.5 52v199h78v-201q160 -18 264 -116t111 -250h-92q-7 125 -102.5 200.5t-237.5 75.5q-134 0 -237 -80
t-103 -200q0 -196 250 -254l198 -45q69 -16 127 -40t109 -62t83.5 -85.5t46 -113t1.5 -142.5q-12 -58 -44 -112.5t-82.5 -101.5t-126 -78.5t-165.5 -38.5v-234h-78v232q-179 10 -296 124.5t-128 262.5z" />
    <glyph glyph-name="percent" unicode="%" horiz-adv-x="1380" 
d="M82 1130q0 103 71 175.5t175 72.5q103 0 175 -72.5t72 -175.5q0 -104 -72 -174.5t-175 -70.5q-104 0 -175 70.5t-71 174.5zM174 1130q0 -66 44 -109.5t110 -43.5q65 0 110 44t45 109t-45.5 110.5t-109.5 45.5q-65 0 -109.5 -45.5t-44.5 -110.5zM311 0l668 1368h78
l-666 -1368h-80zM807 231q0 103 71 175.5t175 72.5q103 0 175 -72.5t72 -175.5q0 -104 -72 -174.5t-175 -70.5q-104 0 -175 70.5t-71 174.5zM899 231q0 -66 44 -109.5t110 -43.5q65 0 110 44t45 109t-45.5 110.5t-109.5 45.5q-65 0 -109.5 -45.5t-44.5 -110.5z" />
    <glyph glyph-name="ampersand" unicode="&#x26;" horiz-adv-x="1355" 
d="M121 420q0 128 72 238.5t194 160.5q-69 45 -108 121t-39 156q0 139 100.5 235t247.5 96q97 0 175 -39.5t126 -109.5q-37 -23 -76 -51q-75 108 -225 108q-108 0 -182 -69.5t-74 -169.5q0 -102 70 -171t178 -69h354v182h92v-184h193v-86h-193v-348q0 -62 4.5 -107.5
t18.5 -92t38.5 -76t66.5 -49t101 -21.5v-90q-109 0 -189.5 57.5t-102.5 163.5q-29 -74 -94.5 -127t-142 -77t-155.5 -24q-196 0 -323 128t-127 315zM215 420q0 -147 100.5 -247.5t257.5 -100.5q155 0 255.5 95t105.5 239v362h-359q-153 0 -256.5 -102.5t-103.5 -245.5z" />
    <glyph glyph-name="quotesingle" unicode="'" horiz-adv-x="413" 
d="M166 885v526h82v-526h-82z" />
    <glyph glyph-name="parenleft" unicode="(" horiz-adv-x="706" 
d="M115 473q0 440 139 690.5t373 261.5v-92q-192 -9 -306 -235.5t-114 -624.5q0 -396 114 -623t306 -235v-94q-234 11 -373 262.5t-139 689.5z" />
    <glyph glyph-name="parenright" unicode=")" horiz-adv-x="706" 
d="M80 -385q192 8 306 235t114 623q0 398 -114 624.5t-306 235.5v92q234 -11 373 -261.5t139 -690.5q0 -438 -139 -689.5t-373 -262.5v94z" />
    <glyph glyph-name="asterisk" unicode="*" horiz-adv-x="952" 
d="M121 1133l33 96l286 -111l-18 309h106l-20 -309l293 111l28 -94l-297 -80l195 -246l-78 -55l-166 256l-180 -260l-80 59l197 240z" />
    <glyph glyph-name="plus" unicode="+" horiz-adv-x="1062" 
d="M123 489v91h362v360h90v-360h365v-91h-365v-364h-90v364h-362z" />
    <glyph glyph-name="comma" unicode="," horiz-adv-x="468" 
d="M68 -258q125 175 120 408h103q-5 -258 -158 -431q-6 2 -32.5 11.5t-32.5 11.5z" />
    <glyph glyph-name="hyphen" unicode="-" horiz-adv-x="980" 
d="M154 424v88h673v-88h-673z" />
    <glyph glyph-name="period" unicode="." horiz-adv-x="477" 
d="M154 57q0 35 24.5 57.5t59.5 22.5q36 0 61 -22.5t25 -57.5q0 -33 -25 -55t-61 -22q-34 0 -59 22t-25 55z" />
    <glyph glyph-name="slash" unicode="/" horiz-adv-x="935" 
d="M74 0l686 1411h102l-686 -1411h-102z" />
    <glyph glyph-name="zero" unicode="0" horiz-adv-x="1236" 
d="M145 678q0 123 12.5 222.5t45.5 191t85.5 153t136 97.5t193.5 36t193 -36t135 -97.5t84 -153t44.5 -190.5t12.5 -223q0 -122 -12.5 -221t-44.5 -190.5t-84 -152.5t-135 -97.5t-193 -36.5t-193.5 36.5t-136 98t-85.5 152.5t-45.5 190t-12.5 221zM240 678q0 -106 10 -192
t36.5 -164.5t68.5 -131.5t108.5 -84.5t154.5 -31.5t154.5 31.5t108 84.5t67 132t35.5 164.5t10 191.5q0 107 -10 193t-35.5 165t-67 132t-108 84.5t-154.5 31.5t-154.5 -31.5t-108.5 -84.5t-68.5 -132t-36.5 -165.5t-10 -192.5z" />
    <glyph glyph-name="one" unicode="1" horiz-adv-x="630" 
d="M86 1163v88l332 123v-1374h-94v1247z" />
    <glyph glyph-name="two" unicode="2" horiz-adv-x="1052" 
d="M117 1087q29 134 138.5 212.5t258.5 78.5q171 0 284 -106t113 -273q0 -175 -147 -346l-475 -561h631v-92h-797v33l573 684q123 147 123 282q0 127 -87 207t-218 80q-116 0 -202 -60t-109 -161z" />
    <glyph glyph-name="three" unicode="3" horiz-adv-x="1105" 
d="M104 233l84 37q39 -84 124 -137t184 -59q151 -8 262.5 76.5t124.5 218.5q3 140 -89.5 227.5t-222.5 87.5h-135v90h135q94 -2 171.5 64.5t84.5 165.5q9 113 -64.5 192.5t-211.5 89.5q-90 7 -175.5 -35t-125.5 -110l-76 45q54 95 157.5 147t225.5 45q188 -13 283.5 -122.5
t81.5 -262.5q-8 -83 -59.5 -154t-133.5 -106q75 -18 135 -78.5t89.5 -140.5t23.5 -158q-15 -168 -159 -278t-329 -96q-130 9 -234.5 78t-150.5 173z" />
    <glyph glyph-name="four" unicode="4" horiz-adv-x="1173" 
d="M68 295l737 1065h67v-977h213v-88h-213v-295h-92v295h-712zM236 383h544v795z" />
    <glyph glyph-name="five" unicode="5" horiz-adv-x="1132" 
d="M106 250q8 6 40 26.5t40 26.5q47 -96 150.5 -160.5t210.5 -64.5q176 0 277.5 96.5t101.5 243.5q0 62 -20 115.5t-54 91.5t-78.5 65t-92.5 40t-97 13q-102 0 -182 -22t-201 -82l-37 49l119 672h645v-92h-566l-94 -514q93 43 165 63.5t151 20.5q83 0 160 -28t139 -79.5
t99.5 -133t37.5 -179.5q0 -194 -127.5 -315t-345.5 -121q-131 0 -255 76t-186 192z" />
    <glyph glyph-name="six" unicode="6" horiz-adv-x="1132" 
d="M158 426q-6 96 -7.5 177t5 183t23 182t51.5 160t85 133t128.5 85.5t177.5 31.5q253 -3 356 -233l-84 -35q-78 173 -275 176q-71 1 -128.5 -21t-96 -58.5t-67 -91.5t-44.5 -111t-25 -126.5t-11.5 -129.5t-1.5 -127q37 111 140 166.5t222 52.5q118 -5 212 -66.5t144 -162.5
t46 -220q-8 -181 -133 -299t-304 -112q-174 6 -286 126.5t-127 319.5zM250 424q-1 -148 92.5 -246.5t232.5 -103.5q139 -4 236.5 88t103.5 233q6 143 -83.5 244.5t-227.5 105.5q-93 3 -173 -37.5t-129 -115.5t-52 -168z" />
    <glyph glyph-name="seven" unicode="7" horiz-adv-x="1032" 
d="M119 1268v92h870l-749 -1360h-107l701 1268h-715z" />
    <glyph glyph-name="eight" unicode="8" horiz-adv-x="1148" 
d="M123 406q0 127 72 231t192 154q-70 40 -109.5 110t-39.5 156q0 135 96 228t239 93q146 0 245.5 -93.5t99.5 -227.5q0 -85 -43.5 -156t-116.5 -113q121 -48 194.5 -151.5t73.5 -230.5q0 -179 -131 -302.5t-322 -123.5q-192 0 -321 123t-129 303zM215 406
q0 -140 102.5 -237t255.5 -97t257 97t104 237q0 135 -102.5 233.5t-251.5 101.5h-23q-145 -4 -243.5 -102t-98.5 -233zM330 1057q0 -95 66 -162t165 -70h21q103 3 172 70t69 162q0 96 -72.5 162.5t-177.5 66.5q-104 0 -173.5 -66.5t-69.5 -162.5z" />
    <glyph glyph-name="nine" unicode="9" horiz-adv-x="1134" 
d="M125 967q9 179 134 297t304 114q173 -6 286 -127t128 -319q5 -73 6.5 -136.5t-0.5 -142t-9 -144.5t-23 -137t-39.5 -127t-60.5 -107.5t-84 -85.5t-112 -53.5t-143 -18.5q-120 2 -211.5 54t-146.5 177l82 37q78 -172 280 -176q71 -1 128 20.5t95.5 58t67 90t44.5 109.5
t25 125.5t11.5 128.5t1.5 127q-24 -70 -84 -121t-131.5 -73t-145.5 -19q-178 6 -293 136t-110 313zM217 961q-5 -143 84.5 -245t228.5 -106q92 -3 172.5 37.5t130 116.5t52.5 170q1 147 -93.5 246t-232.5 104q-140 5 -238 -88t-104 -235z" />
    <glyph glyph-name="colon" unicode=":" horiz-adv-x="477" 
d="M154 57q0 35 24.5 57.5t59.5 22.5q36 0 61 -22.5t25 -57.5q0 -33 -25 -55t-61 -22q-34 0 -59 22t-25 55zM154 897q0 35 24.5 57.5t59.5 22.5q36 0 61 -22.5t25 -57.5q0 -33 -25 -55.5t-61 -22.5q-34 0 -59 22.5t-25 55.5z" />
    <glyph glyph-name="semicolon" unicode=";" horiz-adv-x="546" 
d="M117 -258q128 179 123 408h100q-5 -256 -156 -431l-33.5 11.5zM205 897q0 35 24.5 57.5t59.5 22.5q36 0 61 -22.5t25 -57.5q0 -33 -25 -55.5t-61 -22.5q-34 0 -59 22.5t-25 55.5z" />
    <glyph glyph-name="less" unicode="&#x3c;" horiz-adv-x="1298" 
d="M104 481v105l1043 399v-100l-934 -353l934 -352v-98z" />
    <glyph glyph-name="equal" unicode="=" horiz-adv-x="1247" 
d="M162 248v90h923v-90h-923zM162 678v90h923v-90h-923z" />
    <glyph glyph-name="greater" unicode="&#x3e;" horiz-adv-x="1298" 
d="M152 82v98l933 352l-933 353v100l1042 -399v-105z" />
    <glyph glyph-name="question" unicode="?" horiz-adv-x="980" 
d="M96 1065q7 163 118 261.5t269 98.5q166 0 287 -107t121 -278q0 -137 -81.5 -236.5t-203.5 -135.5q-51 -15 -82 -29t-61 -38t-43.5 -60.5t-13.5 -89.5v-107h-93v107q0 72 18.5 124t57.5 86t81.5 54.5t107.5 40.5q95 29 157 104.5t62 179.5q0 129 -93.5 211t-220.5 82
q-120 0 -204.5 -74.5t-90.5 -197.5zM274 66q0 33 25 55t59 22q36 0 61 -22t25 -55q0 -34 -25.5 -57t-60.5 -23q-34 0 -59 23.5t-25 56.5z" />
    <glyph glyph-name="at" unicode="@" horiz-adv-x="2043" 
d="M111 510q0 150 44.5 289.5t127 252.5t193 197.5t249 131t287.5 46.5q188 0 361 -67t301.5 -182t205 -279.5t76.5 -349.5q0 -77 -11.5 -154t-39.5 -155.5t-69.5 -138t-107.5 -97t-147 -37.5q-55 0 -102 14t-87 44t-62.5 85t-22.5 130v282q1 131 -92 223.5t-224 92.5
t-223 -92t-92 -224q0 -130 92 -222.5t223 -92.5q52 0 105.5 19.5t91.5 52.5v-99q-94 -61 -197 -61q-166 0 -284.5 118.5t-118.5 284.5q0 168 118.5 286t284.5 118q164 0 282.5 -115.5t121.5 -280.5v-294q0 -98 53 -139.5t133 -41.5q78 0 137 48t90 125.5t45.5 158
t14.5 162.5q0 134 -44.5 257t-124.5 219t-186 167t-235 109t-266 38q-224 0 -411.5 -111.5t-294.5 -302t-107 -415.5q0 -119 31 -230t86.5 -202.5t135.5 -166.5t175 -125.5t208 -76t232 -20.5v-88h-57q-186 0 -353 71t-286.5 192.5t-189.5 290t-70 355.5z" />
    <glyph glyph-name="A" unicode="A" horiz-adv-x="1282" 
d="M51 0l541 1411h98l541 -1411h-98l-148 383h-688l-147 -383h-99zM330 469h624l-313 813z" />
    <glyph glyph-name="B" unicode="B" horiz-adv-x="1265" 
d="M211 0v1411h498q167 0 265.5 -90t98.5 -250q0 -109 -43.5 -195t-132.5 -122q109 -31 181.5 -142.5t72.5 -226.5q0 -160 -105.5 -272.5t-279.5 -112.5h-555zM305 92h459q132 0 213.5 86.5t81.5 206.5q0 77 -38.5 150t-112.5 121.5t-165 48.5h-438v-613zM305 793h453
q73 0 125.5 43t75 104.5t22.5 130.5q0 119 -75 183.5t-201 64.5h-400v-526z" />
    <glyph glyph-name="C" unicode="C" horiz-adv-x="1351" 
d="M117 702q0 148 53 282t144 231.5t219.5 154.5t273.5 57q136 0 258.5 -50t218.5 -140l-63 -66q-179 164 -414 164q-168 0 -305.5 -85t-215 -230t-77.5 -318q0 -172 77.5 -316.5t215 -229t305.5 -84.5q239 0 414 164l63 -66q-200 -190 -477 -190q-193 0 -352 97
t-248.5 262.5t-89.5 362.5z" />
    <glyph glyph-name="D" unicode="D" horiz-adv-x="1478" 
d="M211 0v1411h524q193 0 335.5 -94t214 -253.5t71.5 -361.5q0 -201 -71.5 -358.5t-213.5 -250.5t-336 -93h-524zM303 92h432q168 0 289 80.5t180.5 217t59.5 312.5q0 177 -59.5 315t-181 220t-288.5 82h-432v-1227z" />
    <glyph glyph-name="E" unicode="E" horiz-adv-x="1128" 
d="M211 0v1411h782v-92h-690v-580h604v-92h-604v-555h715v-92h-807z" />
    <glyph glyph-name="F" unicode="F" horiz-adv-x="1052" 
d="M211 0v1411h772v-92h-680v-580h539v-94h-539v-645h-92z" />
    <glyph glyph-name="G" unicode="G" horiz-adv-x="1552" 
d="M115 702q0 148 55 282t149 231t225.5 154.5t278.5 57.5q240 0 430 -147l-61 -70q-160 125 -369 125q-171 0 -313 -85t-222.5 -230t-80.5 -318q0 -129 47.5 -245.5t129.5 -201t196.5 -134t242.5 -49.5q240 0 385.5 132t165.5 376h-432v88h535q-6 -341 -179 -516t-475 -175
q-147 0 -278.5 57.5t-225.5 154.5t-149 231t-55 282z" />
    <glyph glyph-name="H" unicode="H" horiz-adv-x="1454" 
d="M211 0v1411h92v-666h848v666h92v-1411h-92v657h-848v-657h-92z" />
    <glyph glyph-name="I" unicode="I" horiz-adv-x="514" 
d="M211 0v1411h92v-1411h-92z" />
    <glyph glyph-name="J" unicode="J" horiz-adv-x="516" 
d="M-211 -465q0 9 4 45t4 45q54 -8 97 -8q85 0 147.5 27t99 76t53.5 109.5t17 133.5v1448h94v-1448q0 -93 -22.5 -170.5t-69.5 -139t-128.5 -96t-190.5 -34.5q-43 0 -105 12z" />
    <glyph glyph-name="K" unicode="K" horiz-adv-x="1093" 
d="M211 0v1411h92v-711l576 711h112l-594 -731l697 -680h-127l-664 647v-647h-92z" />
    <glyph glyph-name="L" unicode="L" horiz-adv-x="980" 
d="M211 0v1411h92v-1319h619v-92h-711z" />
    <glyph glyph-name="M" unicode="M" horiz-adv-x="1945" 
d="M129 0l176 1411h96l574 -1171l571 1171h92l179 -1411h-93l-157 1253l-545 -1112h-96l-549 1114l-158 -1255h-90z" />
    <glyph glyph-name="N" unicode="N" horiz-adv-x="1400" 
d="M211 0v1411h104l783 -1261v1261h92v-1411h-100l-787 1262v-1262h-92z" />
    <glyph glyph-name="O" unicode="O" horiz-adv-x="1648" 
d="M115 702q0 198 93.5 364.5t256.5 263.5t358 97q196 0 359.5 -97t257.5 -263.5t94 -364.5q0 -147 -55.5 -280.5t-150 -230.5t-226.5 -154t-279 -57q-146 0 -277.5 57t-225.5 154t-149.5 230.5t-55.5 280.5zM207 702q0 -172 81 -316.5t223 -229t312 -84.5q171 0 313.5 84.5
t224 229t81.5 316.5q0 129 -48 246t-130.5 202t-197.5 135t-243 50q-127 0 -241.5 -50t-196.5 -135t-130 -202t-48 -246z" />
    <glyph glyph-name="P" unicode="P" horiz-adv-x="1224" 
d="M211 0v1411h549q101 0 178 -35.5t121.5 -96.5t66 -134t21.5 -156q0 -84 -21.5 -157t-66.5 -133t-123 -95t-182 -35h-449v-569h-94zM305 662h445q81 0 141.5 27t95 74t51.5 103.5t17 122.5q0 65 -16.5 122t-50.5 104.5t-92.5 75.5t-135.5 28h-455v-657z" />
    <glyph glyph-name="Q" unicode="Q" horiz-adv-x="1648" 
d="M115 702q0 198 93.5 364.5t256.5 263.5t358 97q197 0 360.5 -97t257 -263.5t93.5 -364.5q0 -201 -99 -369.5t-264 -262.5l164 -256l-80 -50l-168 265q-130 -49 -264 -49q-146 0 -277.5 57t-225.5 154t-149.5 230.5t-55.5 280.5zM207 702q0 -172 81 -316.5t223 -229
t312 -84.5q115 0 213 37l-168 266l78 49l174 -277q148 80 235 228.5t87 326.5q0 129 -48 246t-130.5 202t-197.5 135t-243 50q-127 0 -241.5 -50t-196.5 -135t-130 -202t-48 -246z" />
    <glyph glyph-name="R" unicode="R" horiz-adv-x="1236" 
d="M211 0v1411h520q101 0 178 -35.5t121.5 -96.5t66 -134t21.5 -156q0 -84 -21.5 -157t-66.5 -133t-123 -95t-182 -35h-27l404 -569h-113l-403 569h-281v-569h-94zM305 662h416q81 0 141.5 27t95 74t51.5 103.5t17 122.5q0 65 -16.5 122t-50.5 104.5t-92.5 75.5t-135.5 28
h-426v-657z" />
    <glyph glyph-name="S" unicode="S" horiz-adv-x="1150" 
d="M119 367h92q11 -117 109 -206t245 -89q162 0 262 77t121 181q10 72 -9 130t-62.5 97.5t-99 66t-126.5 42.5l-196 47q-326 69 -326 342q0 107 63 193.5t162 132.5t209 46q182 0 303.5 -100.5t128.5 -267.5h-92q-7 125 -102.5 200.5t-237.5 75.5q-134 0 -237 -80t-103 -200
q0 -196 250 -254l199 -45q88 -20 157 -54.5t123.5 -86.5t77.5 -129.5t8 -172.5q-13 -62 -48.5 -119.5t-92 -106.5t-143 -78t-189.5 -29q-95 0 -177.5 33t-139 88t-90.5 124t-39 142z" />
    <glyph glyph-name="T" unicode="T" horiz-adv-x="1138" 
d="M55 1319v92h1028v-92h-469v-1319h-92v1319h-467z" />
    <glyph glyph-name="U" unicode="U" horiz-adv-x="1378" 
d="M197 469v942h92v-942q0 -177 115 -287t284 -110t285.5 110t116.5 287v942h92v-942q0 -145 -67.5 -258.5t-179.5 -173.5t-247 -60q-134 0 -245.5 60t-178.5 173.5t-67 258.5z" />
    <glyph glyph-name="V" unicode="V" horiz-adv-x="1112" 
d="M78 1411h96l383 -1280l381 1280h96l-422 -1411h-110z" />
    <glyph glyph-name="W" unicode="W" horiz-adv-x="1880" 
d="M59 1411h97l428 -1274l311 1065h90l309 -1065l428 1274h99l-480 -1411h-98l-303 1038l-305 -1038h-96z" />
    <glyph glyph-name="X" unicode="X" horiz-adv-x="1179" 
d="M29 0l503 762l-436 649h113l381 -571l379 571h112l-436 -649l506 -762h-113l-448 686l-449 -686h-112z" />
    <glyph glyph-name="Y" unicode="Y" horiz-adv-x="1232" 
d="M41 1411h111l464 -647l469 647h111l-532 -743v-668h-95v668z" />
    <glyph glyph-name="Z" unicode="Z" horiz-adv-x="1101" 
d="M82 0v76l813 1241h-801v94h920v-80l-811 -1237h811v-94h-932z" />
    <glyph glyph-name="bracketleft" unicode="[" horiz-adv-x="579" 
d="M190 -463v1874h299v-94h-204v-1686h204v-94h-299z" />
    <glyph glyph-name="backslash" unicode="\" horiz-adv-x="935" 
d="M74 1411h102l686 -1411h-102z" />
    <glyph glyph-name="bracketright" unicode="]" horiz-adv-x="579" 
d="M90 -369h205v1686h-205v94h299v-1874h-299v94z" />
    <glyph glyph-name="underscore" unicode="_" horiz-adv-x="1390" 
d="M152 -84h1087v-90h-1087v90z" />
    <glyph glyph-name="grave" unicode="`" horiz-adv-x="894" 
d="M264 1382h113l155 -266h-92z" />
    <glyph glyph-name="a" unicode="a" 
d="M104 479q0 141 66.5 255.5t179.5 178.5t248 64q129 0 238.5 -60t167.5 -165v204h94v-956h-94v207q-58 -104 -168 -165.5t-238 -61.5q-206 0 -350 143t-144 356zM199 479q0 -171 116 -288t283 -117t285 111.5t121 283.5q0 180 -118.5 297t-287.5 117q-167 0 -283 -116
t-116 -288z" />
    <glyph glyph-name="b" unicode="b" 
d="M172 0v1501h94v-749q58 105 167.5 165t238.5 60q206 0 349.5 -142.5t143.5 -355.5t-143.5 -356t-349.5 -143q-128 0 -238 61.5t-168 165.5v-207h-94zM266 469q3 -172 121 -283.5t285 -111.5t283 117t116 288q0 172 -116 288t-283 116q-169 0 -287.5 -117t-118.5 -297z
" />
    <glyph glyph-name="c" unicode="c" horiz-adv-x="1021" 
d="M104 481q0 147 68 261t181 174.5t249 60.5q184 0 326 -113l-60 -69q-118 90 -266 90q-170 0 -287.5 -112t-117.5 -292q0 -182 117.5 -295.5t287.5 -113.5q151 0 266 92l62 -70q-136 -114 -328 -114q-136 0 -249 61t-181 176.5t-68 263.5z" />
    <glyph glyph-name="d" unicode="d" 
d="M104 479q0 141 66.5 255.5t179.5 178.5t248 64q129 0 238.5 -60t167.5 -165v749h94v-1501h-94v207q-58 -104 -168 -165.5t-238 -61.5q-206 0 -350 143t-144 356zM199 479q0 -171 116 -288t283 -117t285 111.5t121 283.5q0 180 -118.5 297t-287.5 117q-167 0 -283 -116
t-116 -288z" />
    <glyph glyph-name="e" unicode="e" horiz-adv-x="1146" 
d="M106 481q0 221 138.5 358.5t343.5 137.5q206 0 337.5 -136.5t131.5 -359.5q0 -29 -2 -43h-854q12 -165 121.5 -265.5t265.5 -100.5q107 0 195 48.5t139 133.5l88 -31q-61 -115 -173 -179t-249 -64q-205 0 -343.5 139t-138.5 362zM201 524h762q-13 165 -116 263t-259 98
t-265 -99t-122 -262z" />
    <glyph glyph-name="f" unicode="f" horiz-adv-x="643" 
d="M57 872v84h193v140q0 405 325 405h84v-90h-84q-68 0 -116 -25.5t-72.5 -71.5t-34.5 -98.5t-10 -119.5v-140h256v-84h-256v-872h-92v872h-193z" />
    <glyph glyph-name="g" unicode="g" 
d="M104 477q0 213 144 356.5t350 143.5q128 0 238 -61.5t168 -165.5v206h94v-813q0 -140 -24.5 -247t-68.5 -177t-109.5 -114.5t-141.5 -63t-170 -18.5q-119 0 -224 54t-176 163l78 51q58 -87 142 -130.5t180 -43.5q97 0 171 26t131.5 84.5t87.5 162.5t30 251v70
q-55 -105 -166.5 -168t-239.5 -63q-101 0 -192 37.5t-157.5 103t-105.5 158.5t-39 198zM199 477q0 -172 116 -287.5t283 -115.5q166 0 286 114t120 289q0 176 -118 291t-288 115q-166 0 -282.5 -117.5t-116.5 -288.5z" />
    <glyph glyph-name="h" unicode="h" horiz-adv-x="1144" 
d="M172 0v1501h94v-733q26 72 83.5 121t121.5 68.5t133 19.5q171 0 276.5 -112.5t104.5 -303.5v-561h-92v561q0 149 -80 236.5t-209 87.5q-66 0 -123.5 -19.5t-106.5 -59t-78 -108.5t-30 -161v-537h-94z" />
    <glyph glyph-name="i" unicode="i" horiz-adv-x="436" 
d="M135 1311q0 32 24 53.5t58 21.5t57 -21.5t23 -53.5t-23 -54t-57 -22t-58 22t-24 54zM172 0v956h92v-956h-92z" />
    <glyph glyph-name="j" unicode="j" horiz-adv-x="436" 
d="M-145 -373h84q55 0 97 17.5t67.5 45.5t41 70t21.5 85t6 96v1015h92v-1015q0 -404 -325 -404h-84v90zM137 1311q0 32 24 53.5t58 21.5t57 -21.5t23 -53.5t-23 -54t-57 -22t-58 22t-24 54z" />
    <glyph glyph-name="k" unicode="k" horiz-adv-x="929" 
d="M172 0v1501h92v-940l389 395h133l-411 -415l543 -541h-130l-524 520v-520h-92z" />
    <glyph glyph-name="l" unicode="l" horiz-adv-x="436" 
d="M172 0v1501h92v-1501h-92z" />
    <glyph glyph-name="m" unicode="m" horiz-adv-x="1865" 
d="M172 0v956h94v-188q26 72 85.5 121t123.5 68.5t129 19.5q130 0 222 -64.5t130 -183.5q22 72 65.5 123.5t97.5 77t104 36.5t102 11q171 0 276.5 -112.5t104.5 -303.5v-561h-92v561q0 149 -80 236.5t-209 87.5q-66 0 -123.5 -19.5t-106.5 -59t-78.5 -108.5t-31.5 -161v-537
h-92v561q0 149 -80 236.5t-209 87.5q-66 0 -123.5 -19.5t-106.5 -59t-78 -108.5t-30 -161v-537h-94z" />
    <glyph glyph-name="n" unicode="n" horiz-adv-x="1144" 
d="M172 0v956h94v-188q26 72 83.5 121t121.5 68.5t133 19.5q172 0 277 -112.5t104 -303.5v-561h-92v561q0 149 -80 236.5t-209 87.5q-66 0 -123.5 -19.5t-106.5 -59t-78 -108.5t-30 -161v-537h-94z" />
    <glyph glyph-name="o" unicode="o" horiz-adv-x="1208" 
d="M104 481q0 147 68 261.5t181.5 174.5t250.5 60t250 -60t181.5 -174.5t68.5 -261.5q0 -148 -68.5 -264t-182 -176.5t-249.5 -60.5q-137 0 -250.5 60.5t-181.5 176t-68 264.5zM197 481q0 -182 117.5 -295.5t289.5 -113.5t290 113.5t118 295.5q0 181 -118 292.5t-290 111.5
t-289.5 -111.5t-117.5 -292.5z" />
    <glyph glyph-name="p" unicode="p" 
d="M172 -463v1419h94v-206q58 104 168 165.5t238 61.5q135 0 247.5 -64.5t179 -180t66.5 -257.5q0 -140 -66.5 -254.5t-179 -177.5t-247.5 -63q-128 0 -238 59.5t-168 163.5v-666h-94zM266 485q0 -178 118.5 -294.5t287.5 -116.5q167 0 283 114.5t116 286.5
q0 171 -116.5 289.5t-282.5 118.5q-167 0 -285 -112t-121 -286z" />
    <glyph glyph-name="q" unicode="q" 
d="M104 475q0 106 39 200t105.5 160t157.5 104t192 38q128 0 238 -61.5t168 -165.5v206h94v-1419h-94v666q-58 -104 -168 -163.5t-238 -59.5q-135 0 -248 63t-179.5 177.5t-66.5 254.5zM199 475q0 -172 116 -286.5t283 -114.5q169 0 287.5 116.5t118.5 294.5
q-3 174 -121 286t-285 112q-166 0 -282.5 -118.5t-116.5 -289.5z" />
    <glyph glyph-name="r" unicode="r" horiz-adv-x="755" 
d="M172 0v956h94v-247q33 125 113 196.5t201 71.5q79 0 141 -27l-16 -90q-57 23 -125 23q-71 0 -126.5 -32t-90 -82.5t-57 -120t-31 -137.5t-9.5 -142v-369h-94z" />
    <glyph glyph-name="s" unicode="s" horiz-adv-x="864" 
d="M92 244h86q60 -174 256 -174q108 0 173 50.5t65 133.5q0 135 -164 174l-139 33q-40 9 -71.5 20.5t-67 35t-58 54t-34.5 79.5t-5 110q13 96 100 156.5t203 60.5q120 0 201 -62.5t94 -177.5h-92q-12 68 -68 109t-135 41q-82 0 -142 -39t-69 -100q-21 -154 166 -197l137 -33
q236 -58 236 -264q0 -123 -93 -198.5t-243 -75.5q-126 0 -223 70.5t-113 193.5z" />
    <glyph glyph-name="t" unicode="t" horiz-adv-x="600" 
d="M55 872v84h174v385h93v-385h223v-84h-223v-872h-93v872h-174z" />
    <glyph glyph-name="u" unicode="u" horiz-adv-x="1146" 
d="M160 395v561h94v-561q0 -149 80 -236t209 -87q66 0 123.5 19.5t106.5 59t78 108.5t30 161v536h94v-956h-94v188q-26 -72 -83.5 -120.5t-121.5 -68t-133 -19.5q-172 0 -277.5 112t-105.5 303z" />
    <glyph glyph-name="v" unicode="v" horiz-adv-x="1026" 
d="M57 956h101l354 -852l358 852h101l-404 -956h-108z" />
    <glyph glyph-name="w" unicode="w" horiz-adv-x="1673" 
d="M59 956h101l309 -815l305 815h121l309 -813l305 813h99l-359 -956h-86l-329 854l-320 -854h-86z" />
    <glyph glyph-name="x" unicode="x" horiz-adv-x="946" 
d="M35 0l381 528l-310 428h117l250 -348l250 348h117l-310 -428l381 -528h-114l-324 449l-326 -449h-112z" />
    <glyph glyph-name="y" unicode="y" horiz-adv-x="1024" 
d="M57 956h99l356 -843l358 843h101l-609 -1419h-92l191 459z" />
    <glyph glyph-name="z" unicode="z" horiz-adv-x="980" 
d="M86 0v74l664 790h-650v92h787v-75l-668 -789h668v-92h-801z" />
    <glyph glyph-name="braceleft" unicode="{" horiz-adv-x="763" 
d="M88 440v80q57 9 96 57t39 107v360q-1 170 111 276.5t274 106.5h72v-88h-72q-122 0 -208 -82.5t-85 -212.5v-360q0 -63 -31.5 -120.5t-84.5 -86.5q51 -28 83.5 -85.5t32.5 -117.5v-354q0 -131 85 -213t208 -82h72v-88h-72q-162 0 -273.5 106t-111.5 277v354
q0 60 -39 108.5t-96 57.5z" />
    <glyph glyph-name="bar" unicode="|" horiz-adv-x="458" 
d="M190 -258v1884h78v-1884h-78z" />
    <glyph glyph-name="braceright" unicode="}" horiz-adv-x="761" 
d="M84 -375h72q124 0 208.5 82t84.5 213v354q0 60 32.5 117.5t83.5 85.5q-53 29 -84.5 86.5t-31.5 120.5v360q1 140 -90.5 217.5t-225.5 77.5h-49v88h72q99 0 183.5 -42t138.5 -121.5t61 -182.5q2 -25 2 -80v-317q0 -59 39 -107t96 -57v-80q-57 -9 -96 -57.5t-39 -108.5
v-354q0 -171 -111.5 -277t-273.5 -106h-72v88z" />
    <glyph glyph-name="exclamdown" unicode="&#xa1;" horiz-adv-x="450" 
d="M141 883q0 33 25 56.5t59 23.5q35 0 60.5 -23t25.5 -57q0 -33 -25 -55.5t-61 -22.5q-34 0 -59 22.5t-25 55.5zM180 -463l4 1067h82l6 -1067h-92z" />
    <glyph glyph-name="cent" unicode="&#xa2;" horiz-adv-x="1064" 
d="M111 481q0 202 122 336t310 156v213h78v-209q173 -6 313 -113l-60 -69q-118 90 -266 90q-170 0 -287.5 -112t-117.5 -292q0 -182 117.5 -295.5t287.5 -113.5q151 0 266 92l62 -70q-129 -108 -315 -114v-226h-78v230q-188 22 -310 157.5t-122 339.5z" />
    <glyph glyph-name="sterling" unicode="&#xa3;" horiz-adv-x="1300" 
d="M98 0v92h207v506h-170v82h170v375q0 113 58.5 202.5t151 136t198.5 46.5q158 0 269 -100t118 -263h-92q-7 121 -91.5 195t-203.5 74q-127 0 -221.5 -81t-94.5 -210v-375h285v-82h-285v-506h629q29 0 48.5 22t19.5 54v102h92v-102q0 -70 -47 -119t-113 -49h-928z" />
    <glyph glyph-name="currency" unicode="&#xa4;" horiz-adv-x="1228" 
d="M160 315l153 152q-84 104 -84 242t86 241l-155 156l57 57l158 -157q97 81 237 81q135 0 238 -83l160 159l57 -57l-158 -160q84 -108 84 -237q0 -132 -82 -240l158 -158l-57 -57l-158 158q-106 -86 -242 -86q-141 0 -241 84l-154 -154zM328 709q0 -122 82.5 -204.5
t203.5 -82.5q122 0 204.5 83t82.5 204t-82.5 203.5t-204.5 82.5t-204 -82.5t-82 -203.5z" />
    <glyph glyph-name="yen" unicode="&#xa5;" horiz-adv-x="1294" 
d="M70 1411h110l465 -647l469 647h111l-533 -743v-70h334v-76h-334v-194h334v-76h-334v-252h-94v252h-336v76h336v194h-336v76h336v70z" />
    <glyph glyph-name="brokenbar" unicode="&#xa6;" horiz-adv-x="466" 
d="M195 -258v747h77v-747h-77zM195 877v749h77v-749h-77z" />
    <glyph glyph-name="section" unicode="&#xa7;" horiz-adv-x="1030" 
d="M141 762v280q0 173 112.5 279t276.5 106q119 0 216 -59t139 -162l-86 -30q-35 74 -107.5 116.5t-161.5 42.5q-126 0 -211.5 -81t-85.5 -212v-280q0 -132 85 -211.5t212 -79.5q95 0 154 37v-100q-76 -29 -154 -29q-165 0 -277 105.5t-112 277.5zM147 -35l86 31
q35 -73 108 -116.5t161 -43.5q126 0 211.5 81t85.5 212v281q0 132 -85 211t-212 79q-96 0 -154 -34v100q79 27 154 27q165 0 277 -105.5t112 -277.5v-281q0 -171 -112.5 -278t-276.5 -107q-119 0 -216 59t-139 162z" />
    <glyph glyph-name="dieresis" unicode="&#xa8;" horiz-adv-x="987" 
d="M246 1288q0 33 23.5 54.5t56.5 21.5q36 0 59 -21.5t23 -54.5q0 -32 -23.5 -53t-58.5 -21q-33 0 -56.5 21t-23.5 53zM580 1288q0 33 23 54.5t56 21.5q36 0 59 -21.5t23 -54.5q0 -32 -23.5 -53t-58.5 -21q-33 0 -56 21t-23 53z" />
    <glyph glyph-name="copyright" unicode="&#xa9;" horiz-adv-x="1677" 
d="M123 702q0 147 56 281t151.5 231.5t228 155t279.5 57.5q196 0 361 -97.5t260 -264t95 -363.5q0 -147 -56 -280.5t-151.5 -230.5t-228.5 -154t-280 -57t-279.5 57t-228 154t-151.5 230.5t-56 280.5zM207 702q0 -173 83.5 -320t229 -233t318.5 -86t318.5 86t229.5 233
t84 320t-84 320.5t-229.5 234t-318.5 86.5t-318.5 -86.5t-229 -233.5t-83.5 -321zM510 700q0 140 95 238t231 98q126 0 233 -100l-53 -62q-90 80 -180 80q-103 0 -175.5 -74t-72.5 -180q0 -103 73 -177t175 -74q93 0 178 79l53 -59q-103 -100 -231 -100q-136 0 -231 97.5
t-95 233.5z" />
    <glyph glyph-name="ordfeminine" unicode="&#xaa;" horiz-adv-x="987" 
d="M158 1049q0 140 94.5 232.5t230.5 92.5q80 0 145.5 -31.5t104.5 -91.5v109h78v-627h-78v113q-39 -58 -106.5 -91.5t-143.5 -33.5q-136 0 -230.5 94t-94.5 234zM184 539v69h625v-69h-625zM238 1049q0 -105 71.5 -177.5t173.5 -72.5q103 0 176 68t74 173q0 112 -73 184
t-177 72q-102 0 -173.5 -70.5t-71.5 -176.5z" />
    <glyph glyph-name="guillemotleft" unicode="&#xab;" horiz-adv-x="872" 
d="M109 475l282 424h103l-283 -424l285 -424h-105zM373 475l282 424h103l-283 -424l283 -424h-103z" />
    <glyph glyph-name="logicalnot" unicode="&#xac;" horiz-adv-x="1333" 
d="M180 608v88h991v-430h-90v342h-901z" />
    <glyph glyph-name="registered" unicode="&#xae;" horiz-adv-x="1677" 
d="M123 702q0 147 56 281t151.5 231.5t228 155t279.5 57.5q196 0 361 -97.5t260 -264t95 -363.5q0 -147 -56 -280.5t-151.5 -230.5t-228.5 -154t-280 -57t-279.5 57t-228 154t-151.5 230.5t-56 280.5zM207 702q0 -173 83.5 -320t229 -233t318.5 -86t318.5 86t229.5 233
t84 320t-84 320.5t-229.5 234t-318.5 86.5t-318.5 -86.5t-229 -233.5t-83.5 -321zM633 373v651h246q94 0 140 -59t46 -144q0 -80 -40.5 -135.5t-125.5 -62.5l178 -250h-96l-176 248h-90v-248h-82zM715 698h159q57 0 85 35.5t28 87.5q0 51 -27 87t-81 36h-164v-246z" />
    <glyph glyph-name="macron" unicode="&#xaf;" horiz-adv-x="966" 
d="M246 1237v86h475v-86h-475z" />
    <glyph glyph-name="degree" unicode="&#xb0;" horiz-adv-x="735" 
d="M127 1188q0 99 71 169t171 70t169.5 -69.5t69.5 -169.5t-70 -171t-169 -71q-100 0 -171 71t-71 171zM207 1188q0 -67 48 -114.5t114 -47.5t113.5 47.5t47.5 114.5q0 66 -47.5 113t-113.5 47t-114 -47t-48 -113z" />
    <glyph glyph-name="plusminus" unicode="&#xb1;" horiz-adv-x="1124" 
d="M158 0v90h809v-90h-809zM158 526v88h358v332h90v-332h361v-88h-361v-333h-90v333h-358z" />
    <glyph glyph-name="uni00B2" unicode="&#xb2;" horiz-adv-x="651" 
d="M72 1593q17 88 84.5 140.5t160.5 52.5q104 0 175 -65.5t71 -166.5q0 -104 -88 -206l-133 -157.5l-121 -143.5h344v-82h-485v34l336 402q67 84 67 153q0 67 -48 109.5t-118 42.5q-63 0 -111.5 -36t-58.5 -95z" />
    <glyph glyph-name="uni00B3" unicode="&#xb3;" horiz-adv-x="667" 
d="M66 1106l65 39q48 -99 172 -109q78 -6 135.5 39t63.5 117q1 71 -50.5 119.5t-123.5 48.5h-84v78h84q53 0 92 33.5t45 84.5q5 60 -32.5 102t-106.5 48q-50 4 -94 -18.5t-68 -61.5l-64 45q33 56 96 88.5t136 28.5q105 -7 165.5 -73t55.5 -156q-3 -47 -32.5 -90t-76.5 -68
q65 -18 105.5 -85t34.5 -136q-9 -102 -92 -167.5t-195 -58.5q-160 12 -231 152z" />
    <glyph glyph-name="acute" unicode="&#xb4;" horiz-adv-x="894" 
d="M264 1116l154 266h114l-178 -266h-90z" />
    <glyph glyph-name="uni00B5" unicode="&#xb5;" horiz-adv-x="1146" 
d="M186 -305v1261h95v-561q0 -149 79.5 -236t208.5 -87q66 0 123.5 19.5t106.5 59t78 108.5t30 161v536h94v-956h-94v188q-26 -72 -83.5 -120.5t-121.5 -68t-133 -19.5q-198 0 -288 139v-424h-95z" />
    <glyph glyph-name="paragraph" unicode="&#xb6;" horiz-adv-x="1230" 
d="M74 979q0 179 127 305.5t307 126.5h117v-1548h-93v682q-191 0 -324.5 126.5t-133.5 307.5zM532 -295h95q60 0 105.5 43.5t45.5 101.5v1561h117q106 0 181 -76t75 -182v-143h-92v143q0 78 -54 122t-135 44v-1454q0 -100 -72 -173t-171 -73h-95v86z" />
    <glyph glyph-name="periodcentered" unicode="&#xb7;" horiz-adv-x="477" 
d="M154 504q0 35 24.5 57.5t59.5 22.5q36 0 61 -22.5t25 -57.5q0 -33 -25 -55.5t-61 -22.5q-34 0 -59 22.5t-25 55.5z" />
    <glyph glyph-name="cedilla" unicode="&#xb8;" horiz-adv-x="1036" 
d="M322 -199h81q0 -29 13 -59q19 -40 60.5 -57t82.5 0q32 14 51 40t19 58q0 20 -13 49l-75 197h86l65 -164q34 -78 4.5 -151.5t-106.5 -104.5q-73 -31 -145.5 -0.5t-106.5 106.5q-16 46 -16 86z" />
    <glyph glyph-name="uni00B9" unicode="&#xb9;" horiz-adv-x="399" 
d="M59 1618v80l220 80v-813h-82v702z" />
    <glyph glyph-name="ordmasculine" unicode="&#xba;" horiz-adv-x="976" 
d="M158 1049q0 140 94.5 232.5t230.5 92.5q137 0 231.5 -92.5t94.5 -232.5t-95 -234t-231 -94t-230.5 94t-94.5 234zM184 539v69h625v-69h-625zM238 1049q0 -105 71.5 -177.5t173.5 -72.5t174 72.5t72 177.5q0 106 -71.5 176.5t-174.5 70.5q-102 0 -173.5 -70.5
t-71.5 -176.5z" />
    <glyph glyph-name="guillemotright" unicode="&#xbb;" horiz-adv-x="872" 
d="M115 51l282 424l-282 424h102l283 -424l-283 -424h-102zM377 51l285 424l-283 424h102l283 -424l-283 -424h-104z" />
    <glyph glyph-name="onequarter" unicode="&#xbc;" horiz-adv-x="1533" 
d="M100 1202v80l219 80v-813h-81v702zM178 -20l918 1398h98l-918 -1398h-98zM819 172l445 639h61v-563h121v-76h-121v-172h-82v172h-424zM963 248h280v409z" />
    <glyph glyph-name="onehalf" unicode="&#xbd;" horiz-adv-x="1585" 
d="M102 1202v80l220 80v-813h-82v702zM168 -20l917 1398h99l-918 -1398h-98zM979 629q15 88 83 140t161 52q106 0 176.5 -65t70.5 -168t-90 -207q-252 -297 -254 -299h344v-82h-485v33l336 403q68 82 68 152q0 68 -47.5 109.5t-118.5 41.5q-63 0 -111.5 -35t-58.5 -94z" />
    <glyph glyph-name="threequarters" unicode="&#xbe;" horiz-adv-x="1732" 
d="M102 690l68 41q47 -100 170 -110q78 -6 135.5 38.5t63.5 116.5q3 71 -49.5 119.5t-124.5 48.5h-84v78h84q53 0 92 34t45 85q5 61 -32 102t-108 47q-50 4 -93.5 -18.5t-67.5 -61.5l-64 45q33 56 96 88.5t136 28.5q106 -7 166 -72.5t55 -154.5q-3 -50 -32.5 -92.5
t-76.5 -65.5q66 -20 106 -86t34 -137q-9 -102 -92 -167t-195 -58q-161 12 -232 151zM377 -20l917 1398h99l-918 -1398h-98zM1018 172l444 639h62v-563h121v-76h-121v-172h-82v172h-424zM1161 248h281v409z" />
    <glyph glyph-name="questiondown" unicode="&#xbf;" horiz-adv-x="952" 
d="M78 -84q0 137 81.5 237.5t202.5 135.5q51 15 82 29t61.5 38t44 60.5t13.5 89.5v106h92v-106q0 -72 -18.5 -124t-57 -86t-81 -54.5t-107.5 -40.5q-94 -29 -156.5 -105t-62.5 -180q0 -129 93 -211t220 -82q120 0 204.5 75t90.5 198l92 -5q-7 -163 -118 -261.5t-269 -98.5
q-166 0 -286.5 107t-120.5 278zM524 891q0 34 25.5 57t60.5 23q34 0 59 -23.5t25 -56.5t-25 -55.5t-59 -22.5q-36 0 -61 22.5t-25 55.5z" />
    <glyph glyph-name="Agrave" unicode="&#xc0;" horiz-adv-x="1282" 
d="M51 0l541 1411h98l541 -1411h-98l-148 383h-688l-147 -383h-99zM330 469h624l-313 813zM424 1792h113l155 -266h-92z" />
    <glyph glyph-name="Aacute" unicode="&#xc1;" horiz-adv-x="1282" 
d="M51 0l541 1411h98l541 -1411h-98l-148 383h-688l-147 -383h-99zM330 469h624l-313 813zM596 1526l154 266h114l-178 -266h-90z" />
    <glyph glyph-name="Acircumflex" unicode="&#xc2;" horiz-adv-x="1282" 
d="M51 0l541 1411h98l541 -1411h-98l-148 383h-688l-147 -383h-99zM330 469h624l-313 813zM362 1526l213 266h132l213 -266h-95l-184 203l-184 -203h-95z" />
    <glyph glyph-name="Atilde" unicode="&#xc3;" horiz-adv-x="1282" 
d="M51 0l541 1411h98l541 -1411h-98l-148 383h-688l-147 -383h-99zM330 469h624l-313 813zM389 1579q4 85 47.5 130.5t91.5 45.5h19q32 0 67 -21.5l67 -43t56 -21.5q27 0 50 21t24 67h80q-4 -85 -46.5 -129.5t-92.5 -44.5q-43 0 -111.5 44t-97.5 44q-26 0 -49.5 -23
t-24.5 -69h-80z" />
    <glyph glyph-name="Adieresis" unicode="&#xc4;" horiz-adv-x="1282" 
d="M51 0l541 1411h98l541 -1411h-98l-148 383h-688l-147 -383h-99zM330 469h624l-313 813zM393 1698q0 33 23.5 54.5t56.5 21.5q36 0 59 -21.5t23 -54.5q0 -32 -23.5 -53t-58.5 -21q-33 0 -56.5 21t-23.5 53zM727 1698q0 33 23.5 54.5t56.5 21.5q36 0 59 -21.5t23 -54.5
q0 -32 -23.5 -53t-58.5 -21q-33 0 -56.5 21t-23.5 53z" />
    <glyph glyph-name="Aring" unicode="&#xc5;" horiz-adv-x="1282" 
d="M51 0l541 1411h98l541 -1411h-98l-148 383h-688l-147 -383h-99zM330 469h624l-313 813zM459 1729q0 76 52 130t126 54q78 0 131 -53.5t53 -130.5q0 -75 -53 -128t-131 -53q-74 0 -126 53t-52 128zM535 1729q0 -43 30 -73t74 -30t75 30t31 73q0 45 -30.5 75.5t-75.5 30.5
q-44 0 -74 -30t-30 -76z" />
    <glyph glyph-name="AE" unicode="&#xc6;" horiz-adv-x="1964" 
d="M31 0l913 1411h885v-92h-690v-580h604v-94h-604v-553h714v-92h-806v387h-656l-250 -387h-110zM449 477h598v842h-48z" />
    <glyph glyph-name="Ccedilla" unicode="&#xc7;" horiz-adv-x="1351" 
d="M117 702q0 148 53 282t144 231.5t219.5 154.5t273.5 57q136 0 258.5 -50t218.5 -140l-63 -66q-179 164 -414 164q-168 0 -305.5 -85t-215 -230t-77.5 -318q0 -172 77.5 -316.5t215 -229t305.5 -84.5q239 0 414 164l63 -66q-196 -187 -473 -190l47 -115q34 -78 4.5 -151.5
t-106.5 -104.5q-73 -31 -145.5 -0.5t-106.5 106.5q-17 49 -17 86h82q0 -29 13 -59q19 -40 60.5 -57t82.5 0q32 14 51 40t19 58q0 20 -13 49l-59 154q-173 20 -311.5 119.5t-216.5 256.5t-78 340z" />
    <glyph glyph-name="Egrave" unicode="&#xc8;" horiz-adv-x="1128" 
d="M211 0v1411h782v-92h-690v-580h604v-92h-604v-555h715v-92h-807zM410 1792h112l156 -266h-92z" />
    <glyph glyph-name="Eacute" unicode="&#xc9;" horiz-adv-x="1128" 
d="M211 0v1411h782v-92h-690v-580h604v-92h-604v-555h715v-92h-807zM477 1526l154 266h114l-178 -266h-90z" />
    <glyph glyph-name="Ecircumflex" unicode="&#xca;" horiz-adv-x="1128" 
d="M211 0v1411h782v-92h-690v-580h604v-92h-604v-555h715v-92h-807zM295 1526l213 266h131l213 -266h-94l-185 203l-184 -203h-94z" />
    <glyph glyph-name="Edieresis" unicode="&#xcb;" horiz-adv-x="1128" 
d="M211 0v1411h782v-92h-690v-580h604v-92h-604v-555h715v-92h-807zM326 1698q0 33 23.5 54.5t56.5 21.5q35 0 58 -21t23 -55q0 -32 -23 -53t-58 -21q-33 0 -56.5 21t-23.5 53zM659 1698q0 33 23.5 54.5t56.5 21.5q36 0 59 -21.5t23 -54.5q0 -32 -23.5 -53t-58.5 -21
q-33 0 -56.5 21t-23.5 53z" />
    <glyph glyph-name="Igrave" unicode="&#xcc;" horiz-adv-x="514" 
d="M35 1792h112l156 -266h-92zM211 0v1411h92v-1411h-92z" />
    <glyph glyph-name="Iacute" unicode="&#xcd;" horiz-adv-x="514" 
d="M209 1526l153 266h115l-178 -266h-90zM211 0v1411h92v-1411h-92z" />
    <glyph glyph-name="Icircumflex" unicode="&#xce;" horiz-adv-x="514" 
d="M-20 1526l213 266h131l213 -266h-95l-184 203l-184 -203h-94zM211 0v1411h92v-1411h-92z" />
    <glyph glyph-name="Idieresis" unicode="&#xcf;" horiz-adv-x="514" 
d="M10 1698q0 33 23.5 54.5t56.5 21.5q36 0 59 -21.5t23 -54.5q0 -32 -23.5 -53t-58.5 -21q-33 0 -56.5 21t-23.5 53zM211 0v1411h92v-1411h-92zM344 1698q0 33 23.5 54.5t56.5 21.5q36 0 59 -21.5t23 -54.5q0 -32 -23.5 -53t-58.5 -21q-33 0 -56.5 21t-23.5 53z" />
    <glyph glyph-name="Eth" unicode="&#xd0;" horiz-adv-x="1488" 
d="M18 655v86h201v670h524q193 0 336 -94t215 -253.5t72 -361.5q0 -201 -72 -358.5t-214.5 -250.5t-336.5 -93h-524v655h-201zM311 92h432q168 0 289.5 80.5t181.5 217t60 312.5q0 177 -60 315t-182 220t-289 82h-432v-578h379v-86h-379v-563z" />
    <glyph glyph-name="Ntilde" unicode="&#xd1;" horiz-adv-x="1400" 
d="M211 0v1411h104l783 -1261v1261h92v-1411h-100l-787 1262v-1262h-92zM449 1579q4 85 47.5 130.5t91.5 45.5h18q32 0 67.5 -21.5t67.5 -43t56 -21.5q27 0 49.5 21t23.5 67h80q-4 -85 -46.5 -129.5t-92.5 -44.5q-43 0 -111.5 44t-97.5 44q-26 0 -49.5 -23t-24.5 -69h-79z
" />
    <glyph glyph-name="Ograve" unicode="&#xd2;" horiz-adv-x="1648" 
d="M115 702q0 198 93.5 364.5t256.5 263.5t358 97q196 0 359.5 -97t257.5 -263.5t94 -364.5q0 -147 -55.5 -280.5t-150 -230.5t-226.5 -154t-279 -57q-146 0 -277.5 57t-225.5 154t-149.5 230.5t-55.5 280.5zM207 702q0 -172 81 -316.5t223 -229t312 -84.5q171 0 313.5 84.5
t224 229t81.5 316.5q0 129 -48 246t-130.5 202t-197.5 135t-243 50q-127 0 -241.5 -50t-196.5 -135t-130 -202t-48 -246zM594 1792h113l155 -266h-92z" />
    <glyph glyph-name="Oacute" unicode="&#xd3;" horiz-adv-x="1648" 
d="M115 702q0 198 93.5 364.5t256.5 263.5t358 97q196 0 359.5 -97t257.5 -263.5t94 -364.5q0 -147 -55.5 -280.5t-150 -230.5t-226.5 -154t-279 -57q-146 0 -277.5 57t-225.5 154t-149.5 230.5t-55.5 280.5zM207 702q0 -172 81 -316.5t223 -229t312 -84.5q171 0 313.5 84.5
t224 229t81.5 316.5q0 129 -48 246t-130.5 202t-197.5 135t-243 50q-127 0 -241.5 -50t-196.5 -135t-130 -202t-48 -246zM782 1526l154 266h115l-179 -266h-90z" />
    <glyph glyph-name="Ocircumflex" unicode="&#xd4;" horiz-adv-x="1648" 
d="M115 702q0 198 93.5 364.5t256.5 263.5t358 97q196 0 359.5 -97t257.5 -263.5t94 -364.5q0 -147 -55.5 -280.5t-150 -230.5t-226.5 -154t-279 -57q-146 0 -277.5 57t-225.5 154t-149.5 230.5t-55.5 280.5zM207 702q0 -172 81 -316.5t223 -229t312 -84.5q171 0 313.5 84.5
t224 229t81.5 316.5q0 129 -48 246t-130.5 202t-197.5 135t-243 50q-127 0 -241.5 -50t-196.5 -135t-130 -202t-48 -246zM551 1526l213 266h131l213 -266h-94l-185 203l-184 -203h-94z" />
    <glyph glyph-name="Otilde" unicode="&#xd5;" horiz-adv-x="1648" 
d="M115 702q0 198 93.5 364.5t256.5 263.5t358 97q196 0 359.5 -97t257.5 -263.5t94 -364.5q0 -147 -55.5 -280.5t-150 -230.5t-226.5 -154t-279 -57q-146 0 -277.5 57t-225.5 154t-149.5 230.5t-55.5 280.5zM207 702q0 -172 81 -316.5t223 -229t312 -84.5q171 0 313.5 84.5
t224 229t81.5 316.5q0 129 -48 246t-130.5 202t-197.5 135t-243 50q-127 0 -241.5 -50t-196.5 -135t-130 -202t-48 -246zM578 1579q4 85 47.5 130.5t91.5 45.5h18q32 0 67.5 -21.5t67.5 -43t56 -21.5q27 0 49.5 21t23.5 67h80q-4 -85 -46.5 -129.5t-92.5 -44.5
q-43 0 -111.5 44t-97.5 44q-26 0 -49.5 -23t-24.5 -69h-79z" />
    <glyph glyph-name="Odieresis" unicode="&#xd6;" horiz-adv-x="1648" 
d="M115 702q0 198 93.5 364.5t256.5 263.5t358 97q196 0 359.5 -97t257.5 -263.5t94 -364.5q0 -147 -55.5 -280.5t-150 -230.5t-226.5 -154t-279 -57q-146 0 -277.5 57t-225.5 154t-149.5 230.5t-55.5 280.5zM207 702q0 -172 81 -316.5t223 -229t312 -84.5q171 0 313.5 84.5
t224 229t81.5 316.5q0 129 -48 246t-130.5 202t-197.5 135t-243 50q-127 0 -241.5 -50t-196.5 -135t-130 -202t-48 -246zM582 1698q0 33 23.5 54.5t56.5 21.5q35 0 58 -21t23 -55q0 -32 -23 -53t-58 -21q-33 0 -56.5 21t-23.5 53zM915 1698q0 33 23.5 54.5t56.5 21.5
q36 0 59 -21.5t23 -54.5q0 -32 -23.5 -53t-58.5 -21q-33 0 -56.5 21t-23.5 53z" />
    <glyph glyph-name="multiply" unicode="&#xd7;" horiz-adv-x="964" 
d="M154 293l266 266l-264 264l63 62l262 -262l267 264l63 -64l-264 -264l266 -268l-63 -64l-269 267l-264 -265z" />
    <glyph glyph-name="Oslash" unicode="&#xd8;" horiz-adv-x="1646" 
d="M113 702q0 198 93.5 364.5t256.5 263.5t358 97q135 0 258 -49t219 -137l187 189l55 -56l-186 -190q84 -97 131 -221.5t47 -260.5q0 -147 -55.5 -280.5t-150 -230.5t-226.5 -154t-279 -57q-135 0 -256.5 47t-214.5 133l-178 -180l-57 55l178 182q-86 98 -133 222.5
t-47 262.5zM205 702q0 -237 151 -419l877 891q-175 161 -412 161q-127 0 -241.5 -50t-196.5 -135t-130 -202t-48 -246zM414 225q177 -153 407 -153q171 0 313.5 84.5t224 229t81.5 316.5q0 116 -40 223.5t-112 192.5z" />
    <glyph glyph-name="Ugrave" unicode="&#xd9;" horiz-adv-x="1378" 
d="M197 469v942h92v-942q0 -177 115 -287t284 -110t285.5 110t116.5 287v942h92v-942q0 -145 -67.5 -258.5t-179.5 -173.5t-247 -60q-134 0 -245.5 60t-178.5 173.5t-67 258.5zM487 1792h113l156 -266h-92z" />
    <glyph glyph-name="Uacute" unicode="&#xda;" horiz-adv-x="1378" 
d="M197 469v942h92v-942q0 -177 115 -287t284 -110t285.5 110t116.5 287v942h92v-942q0 -145 -67.5 -258.5t-179.5 -173.5t-247 -60q-134 0 -245.5 60t-178.5 173.5t-67 258.5zM618 1526l154 266h115l-178 -266h-91z" />
    <glyph glyph-name="Ucircumflex" unicode="&#xdb;" horiz-adv-x="1378" 
d="M197 469v942h92v-942q0 -177 115 -287t284 -110t285.5 110t116.5 287v942h92v-942q0 -145 -67.5 -258.5t-179.5 -173.5t-247 -60q-134 0 -245.5 60t-178.5 173.5t-67 258.5zM410 1526l213 266h131l213 -266h-95l-184 203l-184 -203h-94z" />
    <glyph glyph-name="Udieresis" unicode="&#xdc;" horiz-adv-x="1378" 
d="M197 469v942h92v-942q0 -177 115 -287t284 -110t285.5 110t116.5 287v942h92v-942q0 -145 -67.5 -258.5t-179.5 -173.5t-247 -60q-134 0 -245.5 60t-178.5 173.5t-67 258.5zM440 1698q0 33 23.5 54.5t56.5 21.5q36 0 59 -21.5t23 -54.5q0 -32 -23.5 -53t-58.5 -21
q-33 0 -56.5 21t-23.5 53zM774 1698q0 33 23.5 54.5t56.5 21.5q36 0 59 -21.5t23 -54.5q0 -32 -23.5 -53t-58.5 -21q-33 0 -56.5 21t-23.5 53z" />
    <glyph glyph-name="Yacute" unicode="&#xdd;" horiz-adv-x="1232" 
d="M41 1411h111l464 -647l469 647h111l-532 -743v-668h-95v668zM553 1526l154 266h114l-178 -266h-90z" />
    <glyph glyph-name="Thorn" unicode="&#xde;" horiz-adv-x="1163" 
d="M211 0v1411h92v-270h367q176 0 293.5 -114.5t117.5 -299.5q0 -188 -118 -305t-293 -117h-367v-305h-92zM303 397h367q135 0 226 91.5t91 238.5q0 143 -91 232.5t-226 89.5h-367v-652z" />
    <glyph glyph-name="germandbls" unicode="&#xdf;" horiz-adv-x="1171" 
d="M172 0v1030q0 197 111 309.5t290 112.5h21q153 0 256.5 -100t103.5 -244q0 -90 -50.5 -170t-131.5 -104q88 -16 157.5 -81t104.5 -149t35 -168q0 -191 -129.5 -321.5t-329.5 -130.5q-112 0 -211 41l15 88q89 -39 194 -39q162 0 265.5 104t103.5 256q-5 144 -105 247
t-251 103h-70v86h67q106 0 175 69t69 169q0 105 -76.5 179t-191.5 75h-21q-136 0 -221.5 -88.5t-85.5 -243.5v-1030h-94z" />
    <glyph glyph-name="agrave" unicode="&#xe0;" 
d="M104 479q0 141 66.5 255.5t179.5 178.5t248 64q129 0 238.5 -60t167.5 -165v204h94v-956h-94v207q-58 -104 -168 -165.5t-238 -61.5q-206 0 -350 143t-144 356zM199 479q0 -171 116 -288t283 -117t285 111.5t121 283.5q0 180 -118.5 297t-287.5 117q-167 0 -283 -116
t-116 -288zM399 1382h113l156 -266h-93z" />
    <glyph glyph-name="aacute" unicode="&#xe1;" 
d="M104 479q0 141 66.5 255.5t179.5 178.5t248 64q129 0 238.5 -60t167.5 -165v204h94v-956h-94v207q-58 -104 -168 -165.5t-238 -61.5q-206 0 -350 143t-144 356zM199 479q0 -171 116 -288t283 -117t285 111.5t121 283.5q0 180 -118.5 297t-287.5 117q-167 0 -283 -116
t-116 -288zM539 1116l153 266h115l-178 -266h-90z" />
    <glyph glyph-name="acircumflex" unicode="&#xe2;" 
d="M104 479q0 141 66.5 255.5t179.5 178.5t248 64q129 0 238.5 -60t167.5 -165v204h94v-956h-94v207q-58 -104 -168 -165.5t-238 -61.5q-206 0 -350 143t-144 356zM199 479q0 -171 116 -288t283 -117t285 111.5t121 283.5q0 180 -118.5 297t-287.5 117q-167 0 -283 -116
t-116 -288zM324 1116l213 266h131l213 -266h-95l-184 203l-184 -203h-94z" />
    <glyph glyph-name="atilde" unicode="&#xe3;" 
d="M104 479q0 141 66.5 255.5t179.5 178.5t248 64q129 0 238.5 -60t167.5 -165v204h94v-956h-94v207q-58 -104 -168 -165.5t-238 -61.5q-206 0 -350 143t-144 356zM199 479q0 -171 116 -288t283 -117t285 111.5t121 283.5q0 180 -118.5 297t-287.5 117q-167 0 -283 -116
t-116 -288zM381 1169q4 85 47.5 131t91.5 46h19q32 0 67 -21.5l67 -43t56 -21.5q27 0 50 21t24 67h80q-4 -85 -47 -129.5t-93 -44.5q-43 0 -111 44t-97 44q-26 0 -49.5 -23.5t-24.5 -69.5h-80z" />
    <glyph glyph-name="adieresis" unicode="&#xe4;" 
d="M104 479q0 141 66.5 255.5t179.5 178.5t248 64q129 0 238.5 -60t167.5 -165v204h94v-956h-94v207q-58 -104 -168 -165.5t-238 -61.5q-206 0 -350 143t-144 356zM199 479q0 -171 116 -288t283 -117t285 111.5t121 283.5q0 180 -118.5 297t-287.5 117q-167 0 -283 -116
t-116 -288zM350 1288q0 33 23.5 54.5t56.5 21.5q36 0 59 -21.5t23 -54.5q0 -32 -23.5 -53t-58.5 -21q-33 0 -56.5 21t-23.5 53zM684 1288q0 33 23.5 54.5t56.5 21.5q36 0 59 -21.5t23 -54.5q0 -32 -23.5 -53t-58.5 -21q-33 0 -56.5 21t-23.5 53z" />
    <glyph glyph-name="aring" unicode="&#xe5;" 
d="M104 479q0 141 66.5 255.5t179.5 178.5t248 64q129 0 238.5 -60t167.5 -165v204h94v-956h-94v207q-58 -104 -168 -165.5t-238 -61.5q-206 0 -350 143t-144 356zM199 479q0 -171 116 -288t283 -117t285 111.5t121 283.5q0 180 -118.5 297t-287.5 117q-167 0 -283 -116
t-116 -288zM420 1319q0 76 52 130t126 54q78 0 131 -53.5t53 -130.5q0 -75 -53 -127.5t-131 -52.5q-74 0 -126 52.5t-52 127.5zM496 1319q0 -43 30 -72.5t74 -29.5t75.5 29.5t31.5 72.5q0 45 -31 75.5t-76 30.5q-44 0 -74 -30t-30 -76z" />
    <glyph glyph-name="ae" unicode="&#xe6;" horiz-adv-x="2045" 
d="M104 479q0 141 66.5 255.5t179.5 178.5t248 64q129 0 238.5 -60t167.5 -165v204h94v-172q65 91 166.5 142t222.5 51q206 0 337.5 -136.5t131.5 -359.5q0 -29 -2 -43h-854q12 -165 121.5 -265.5t265.5 -100.5q107 0 195 48.5t139 133.5l88 -31q-61 -115 -173 -179
t-249 -64q-121 0 -222.5 51t-166.5 143v-174h-94v207q-58 -104 -168 -165.5t-238 -61.5q-206 0 -350 143t-144 356zM199 479q0 -171 116 -288t283 -117t285 111.5t121 283.5q0 180 -118.5 297t-287.5 117q-167 0 -283 -116t-116 -288zM1100 524h762q-13 165 -116 263
t-259 98t-265 -99t-122 -262z" />
    <glyph glyph-name="ccedilla" unicode="&#xe7;" horiz-adv-x="1026" 
d="M106 481q0 147 68 261t181 174.5t249 60.5q184 0 326 -113l-60 -69q-118 90 -266 90q-170 0 -287.5 -112t-117.5 -292q0 -182 117.5 -295.5t287.5 -113.5q151 0 266 92l62 -70q-126 -108 -311 -114l47 -115q32 -78 2.5 -151.5t-105.5 -104.5q-73 -31 -145.5 -0.5
t-106.5 106.5q-16 46 -16 86h82q0 -31 12 -59q19 -40 61 -57t83 0q32 13 50.5 39.5t18.5 58.5q0 22 -12 49l-60 154q-185 24 -305.5 158.5t-120.5 336.5z" />
    <glyph glyph-name="egrave" unicode="&#xe8;" horiz-adv-x="1146" 
d="M106 481q0 221 138.5 358.5t343.5 137.5q206 0 337.5 -136.5t131.5 -359.5q0 -29 -2 -43h-854q12 -165 121.5 -265.5t265.5 -100.5q107 0 195 48.5t139 133.5l88 -31q-61 -115 -173 -179t-249 -64q-205 0 -343.5 139t-138.5 362zM201 524h762q-13 165 -116 263t-259 98
t-265 -99t-122 -262zM446 1382h113l156 -266h-92z" />
    <glyph glyph-name="eacute" unicode="&#xe9;" horiz-adv-x="1146" 
d="M106 481q0 221 138.5 358.5t343.5 137.5q206 0 337.5 -136.5t131.5 -359.5q0 -29 -2 -43h-854q12 -165 121.5 -265.5t265.5 -100.5q107 0 195 48.5t139 133.5l88 -31q-61 -115 -173 -179t-249 -64q-205 0 -343.5 139t-138.5 362zM201 524h762q-13 165 -116 263t-259 98
t-265 -99t-122 -262zM446 1116l154 266h115l-178 -266h-91z" />
    <glyph glyph-name="ecircumflex" unicode="&#xea;" horiz-adv-x="1146" 
d="M106 481q0 221 138.5 358.5t343.5 137.5q206 0 337.5 -136.5t131.5 -359.5q0 -29 -2 -43h-854q12 -165 121.5 -265.5t265.5 -100.5q107 0 195 48.5t139 133.5l88 -31q-61 -115 -173 -179t-249 -64q-205 0 -343.5 139t-138.5 362zM201 524h762q-13 165 -116 263t-259 98
t-265 -99t-122 -262zM303 1116l213 266h131l213 -266h-94l-184 203l-185 -203h-94z" />
    <glyph glyph-name="edieresis" unicode="&#xeb;" horiz-adv-x="1146" 
d="M106 481q0 221 138.5 358.5t343.5 137.5q206 0 337.5 -136.5t131.5 -359.5q0 -29 -2 -43h-854q12 -165 121.5 -265.5t265.5 -100.5q107 0 195 48.5t139 133.5l88 -31q-61 -115 -173 -179t-249 -64q-205 0 -343.5 139t-138.5 362zM201 524h762q-13 165 -116 263t-259 98
t-265 -99t-122 -262zM334 1288q0 33 23.5 54.5t56.5 21.5q36 0 59 -21.5t23 -54.5q0 -32 -23.5 -53t-58.5 -21q-33 0 -56.5 21t-23.5 53zM668 1288q0 33 23.5 54.5t56.5 21.5q35 0 58 -21t23 -55q0 -32 -23 -53t-58 -21q-33 0 -56.5 21t-23.5 53z" />
    <glyph glyph-name="igrave" unicode="&#xec;" horiz-adv-x="438" 
d="M0 1382h113l155 -266h-92zM172 0v956h94v-956h-94z" />
    <glyph glyph-name="iacute" unicode="&#xed;" horiz-adv-x="438" 
d="M170 1116l154 266h114l-178 -266h-90zM172 0v956h94v-956h-94z" />
    <glyph glyph-name="icircumflex" unicode="&#xee;" horiz-adv-x="438" 
d="M-57 1116l213 266h131l213 -266h-94l-185 203l-184 -203h-94zM172 0v956h94v-956h-94z" />
    <glyph glyph-name="idieresis" unicode="&#xef;" horiz-adv-x="438" 
d="M-27 1288q0 33 23.5 54.5t56.5 21.5q36 0 59 -21.5t23 -54.5q0 -32 -23.5 -53t-58.5 -21q-33 0 -56.5 21t-23.5 53zM172 0v956h94v-956h-94zM307 1288q0 33 23.5 54.5t56.5 21.5q36 0 59 -21.5t23 -54.5q0 -32 -23.5 -53t-58.5 -21q-33 0 -56.5 21t-23.5 53z" />
    <glyph glyph-name="eth" unicode="&#xf0;" horiz-adv-x="1212" 
d="M104 481q0 111 39.5 205t106.5 157t154.5 98.5t183.5 35.5q103 0 178 -33l-252 307l-184 -118l-41 59l182 119l-154 190h113l119 -143l147 92l45 -55l-149 -92l420 -521q94 -121 94 -301q0 -223 -145.5 -363.5t-354.5 -140.5q-137 0 -251 61.5t-182.5 178t-68.5 264.5z
M199 481q0 -180 118.5 -294.5t288.5 -114.5t288 114.5t118 294.5q0 181 -117.5 292.5t-288.5 111.5t-289 -111.5t-118 -292.5z" />
    <glyph glyph-name="ntilde" unicode="&#xf1;" horiz-adv-x="1144" 
d="M172 0v956h94v-188q26 72 83.5 121t121.5 68.5t133 19.5q172 0 277 -112.5t104 -303.5v-561h-92v561q0 149 -80 236.5t-209 87.5q-66 0 -123.5 -19.5t-106.5 -59t-78 -108.5t-30 -161v-537h-94zM326 1169q4 85 47.5 131t91.5 46h18q32 0 67.5 -21.5t67.5 -43t56 -21.5
q27 0 50 21t24 67h79q-4 -85 -46.5 -129.5t-92.5 -44.5q-43 0 -111.5 44t-97.5 44q-26 0 -49 -23.5t-24 -69.5h-80z" />
    <glyph glyph-name="ograve" unicode="&#xf2;" horiz-adv-x="1208" 
d="M104 481q0 147 68 261.5t181.5 174.5t250.5 60t250 -60t181.5 -174.5t68.5 -261.5q0 -148 -68.5 -264t-182 -176.5t-249.5 -60.5q-137 0 -250.5 60.5t-181.5 176t-68 264.5zM197 481q0 -182 117.5 -295.5t289.5 -113.5t290 113.5t118 295.5q0 181 -118 292.5t-290 111.5
t-289.5 -111.5t-117.5 -292.5zM381 1382h113l155 -266h-92z" />
    <glyph glyph-name="oacute" unicode="&#xf3;" horiz-adv-x="1208" 
d="M104 481q0 147 68 261.5t181.5 174.5t250.5 60t250 -60t181.5 -174.5t68.5 -261.5q0 -148 -68.5 -264t-182 -176.5t-249.5 -60.5q-137 0 -250.5 60.5t-181.5 176t-68 264.5zM197 481q0 -182 117.5 -295.5t289.5 -113.5t290 113.5t118 295.5q0 181 -118 292.5t-290 111.5
t-289.5 -111.5t-117.5 -292.5zM545 1116l153 266h115l-178 -266h-90z" />
    <glyph glyph-name="ocircumflex" unicode="&#xf4;" horiz-adv-x="1208" 
d="M104 481q0 147 68 261.5t181.5 174.5t250.5 60t250 -60t181.5 -174.5t68.5 -261.5q0 -148 -68.5 -264t-182 -176.5t-249.5 -60.5q-137 0 -250.5 60.5t-181.5 176t-68 264.5zM197 481q0 -182 117.5 -295.5t289.5 -113.5t290 113.5t118 295.5q0 181 -118 292.5t-290 111.5
t-289.5 -111.5t-117.5 -292.5zM326 1116l213 266h131l213 -266h-95l-184 203l-184 -203h-94z" />
    <glyph glyph-name="otilde" unicode="&#xf5;" horiz-adv-x="1208" 
d="M104 481q0 147 68 261.5t181.5 174.5t250.5 60t250 -60t181.5 -174.5t68.5 -261.5q0 -148 -68.5 -264t-182 -176.5t-249.5 -60.5q-137 0 -250.5 60.5t-181.5 176t-68 264.5zM197 481q0 -182 117.5 -295.5t289.5 -113.5t290 113.5t118 295.5q0 181 -118 292.5t-290 111.5
t-289.5 -111.5t-117.5 -292.5zM352 1169q4 85 48 131t92 46h18q32 0 67 -21.5l67 -43t56 -21.5q27 0 50 21t24 67h80q-4 -85 -46.5 -129.5t-92.5 -44.5q-43 0 -111.5 44t-97.5 44q-26 0 -49.5 -23.5t-24.5 -69.5h-80z" />
    <glyph glyph-name="odieresis" unicode="&#xf6;" horiz-adv-x="1208" 
d="M104 481q0 147 68 261.5t181.5 174.5t250.5 60t250 -60t181.5 -174.5t68.5 -261.5q0 -148 -68.5 -264t-182 -176.5t-249.5 -60.5q-137 0 -250.5 60.5t-181.5 176t-68 264.5zM197 481q0 -182 117.5 -295.5t289.5 -113.5t290 113.5t118 295.5q0 181 -118 292.5t-290 111.5
t-289.5 -111.5t-117.5 -292.5zM356 1288q0 33 23.5 54.5t56.5 21.5q36 0 59 -21.5t23 -54.5q0 -32 -23.5 -53t-58.5 -21q-33 0 -56.5 21t-23.5 53zM690 1288q0 33 23.5 54.5t56.5 21.5q36 0 59 -21.5t23 -54.5q0 -32 -23.5 -53t-58.5 -21q-33 0 -56.5 21t-23.5 53z" />
    <glyph glyph-name="divide" unicode="&#xf7;" horiz-adv-x="1181" 
d="M162 504v90h856v-90h-856zM504 176q0 35 24.5 57.5t59.5 22.5q36 0 61 -22.5t25 -57.5q0 -33 -25 -55.5t-61 -22.5q-34 0 -59 22.5t-25 55.5zM504 897q0 35 24.5 57.5t59.5 22.5q36 0 61 -22.5t25 -57.5q0 -33 -25 -55.5t-61 -22.5q-34 0 -59 22.5t-25 55.5z" />
    <glyph glyph-name="oslash" unicode="&#xf8;" horiz-adv-x="1206" 
d="M104 481q0 147 68 261.5t181.5 174.5t250.5 60q185 0 324 -111l112 117l56 -55l-111 -115q119 -135 119 -332q0 -148 -68.5 -264t-182 -176.5t-249.5 -60.5q-192 0 -328 114l-112 -114l-58 55l113 115q-115 137 -115 331zM197 481q0 -157 90 -264l573 584
q-111 84 -256 84q-172 0 -289.5 -111.5t-117.5 -292.5zM342 160q112 -88 262 -88q172 0 290 113.5t118 295.5q0 152 -94 264z" />
    <glyph glyph-name="ugrave" unicode="&#xf9;" horiz-adv-x="1146" 
d="M160 395v561h94v-561q0 -149 80 -236t209 -87q66 0 123.5 19.5t106.5 59t78 108.5t30 161v536h94v-956h-94v188q-26 -72 -83.5 -120.5t-121.5 -68t-133 -19.5q-172 0 -277.5 112t-105.5 303zM383 1382h113l155 -266h-92z" />
    <glyph glyph-name="uacute" unicode="&#xfa;" horiz-adv-x="1146" 
d="M160 395v561h94v-561q0 -149 80 -236t209 -87q66 0 123.5 19.5t106.5 59t78 108.5t30 161v536h94v-956h-94v188q-26 -72 -83.5 -120.5t-121.5 -68t-133 -19.5q-172 0 -277.5 112t-105.5 303zM453 1116l153 266h115l-178 -266h-90z" />
    <glyph glyph-name="ucircumflex" unicode="&#xfb;" horiz-adv-x="1146" 
d="M160 395v561h94v-561q0 -149 80 -236t209 -87q66 0 123.5 19.5t106.5 59t78 108.5t30 161v536h94v-956h-94v188q-26 -72 -83.5 -120.5t-121.5 -68t-133 -19.5q-172 0 -277.5 112t-105.5 303zM309 1116l213 266h131l213 -266h-94l-184 203l-185 -203h-94z" />
    <glyph glyph-name="udieresis" unicode="&#xfc;" horiz-adv-x="1146" 
d="M160 395v561h94v-561q0 -149 80 -236t209 -87q66 0 123.5 19.5t106.5 59t78 108.5t30 161v536h94v-956h-94v188q-26 -72 -83.5 -120.5t-121.5 -68t-133 -19.5q-172 0 -277.5 112t-105.5 303zM313 1288q0 33 23.5 54.5t56.5 21.5q36 0 59 -21.5t23 -54.5q0 -32 -23.5 -53
t-58.5 -21q-33 0 -56.5 21t-23.5 53zM647 1288q0 33 23.5 54.5t56.5 21.5q36 0 59 -21.5t23 -54.5q0 -32 -23.5 -53t-58.5 -21q-33 0 -56.5 21t-23.5 53z" />
    <glyph glyph-name="yacute" unicode="&#xfd;" horiz-adv-x="1024" 
d="M57 956h99l356 -843l358 843h101l-609 -1419h-92l191 459zM416 1116l153 266h115l-178 -266h-90z" />
    <glyph glyph-name="thorn" unicode="&#xfe;" 
d="M172 -463v1964h94v-747q58 104 168 163.5t238 59.5q135 0 247.5 -63.5t179 -177.5t66.5 -255q0 -142 -66.5 -257t-179 -179.5t-247.5 -64.5q-128 0 -238 61.5t-168 165.5v-670h-94zM266 471q3 -174 120.5 -285.5t285.5 -111.5q166 0 282.5 118t116.5 289q0 172 -116 288
t-283 116q-110 0 -202.5 -52.5t-148 -148t-55.5 -213.5z" />
    <glyph glyph-name="ydieresis" unicode="&#xff;" horiz-adv-x="1024" 
d="M57 956h99l356 -843l358 843h101l-609 -1419h-92l191 459zM268 1288q0 33 23.5 54.5t56.5 21.5q36 0 59 -21.5t23 -54.5q0 -32 -23.5 -53t-58.5 -21q-33 0 -56.5 21t-23.5 53zM602 1288q0 33 23.5 54.5t56.5 21.5q36 0 59 -21.5t23 -54.5q0 -32 -23.5 -53t-58.5 -21
q-33 0 -56.5 21t-23.5 53z" />
    <glyph glyph-name="Amacron" unicode="&#x100;" horiz-adv-x="1282" 
d="M51 0l541 1411h98l541 -1411h-98l-148 383h-688l-147 -383h-99zM330 469h624l-313 813zM403 1647v86h476v-86h-476z" />
    <glyph glyph-name="amacron" unicode="&#x101;" 
d="M104 479q0 141 66.5 255.5t179.5 178.5t248 64q129 0 238.5 -60t167.5 -165v204h94v-956h-94v207q-58 -104 -168 -165.5t-238 -61.5q-206 0 -350 143t-144 356zM199 479q0 -171 116 -288t283 -117t285 111.5t121 283.5q0 180 -118.5 297t-287.5 117q-167 0 -283 -116
t-116 -288zM393 1237v86h475v-86h-475z" />
    <glyph glyph-name="Abreve" unicode="&#x102;" horiz-adv-x="1282" 
d="M51 0l541 1411h98l541 -1411h-98l-148 383h-688l-147 -383h-99zM330 469h624l-313 813zM403 1774h76q5 -62 46 -104t114 -42q72 0 115.5 41.5t46.5 104.5h76q0 -101 -65.5 -163.5t-172.5 -62.5q-79 0 -134 33.5t-78.5 83t-23.5 109.5z" />
    <glyph glyph-name="abreve" unicode="&#x103;" 
d="M104 479q0 141 66.5 255.5t179.5 178.5t248 64q129 0 238.5 -60t167.5 -165v204h94v-956h-94v207q-58 -104 -168 -165.5t-238 -61.5q-206 0 -350 143t-144 356zM199 479q0 -171 116 -288t283 -117t285 111.5t121 283.5q0 180 -118.5 297t-287.5 117q-167 0 -283 -116
t-116 -288zM395 1364h76q5 -62 45.5 -103.5t114.5 -41.5q72 0 115.5 41t46.5 104h75q0 -101 -65 -163t-172 -62q-117 0 -176.5 66t-59.5 159z" />
    <glyph glyph-name="Aogonek" unicode="&#x104;" horiz-adv-x="1282" 
d="M51 0l541 1411h98l541 -1411h-12l-64 -168q-12 -27 -12 -49q0 -32 18.5 -58.5t50.5 -39.5q41 -17 83 0t61 57q12 28 12 59h82q0 -40 -16 -86q-34 -76 -106.5 -106.5t-145.5 0.5q-77 31 -106.5 104.5t3.5 151.5l54 135l-148 383h-688l-147 -383h-99zM330 469h624l-313 813
z" />
    <glyph glyph-name="aogonek" unicode="&#x105;" 
d="M104 479q0 141 66.5 255.5t179.5 178.5t248 64q129 0 238.5 -60t167.5 -165v204h94v-956h-17l-55 -168q-12 -36 -12 -49q0 -32 18.5 -58.5t50.5 -39.5q41 -17 83 0t61 57q12 28 12 59h82q0 -40 -16 -86q-34 -76 -106.5 -106.5t-145.5 0.5q-77 31 -106.5 104.5t3.5 151.5
l54 135v207q-58 -104 -168 -165.5t-238 -61.5q-206 0 -350 143t-144 356zM199 479q0 -171 116 -288t283 -117t285 111.5t121 283.5q0 180 -118.5 297t-287.5 117q-167 0 -283 -116t-116 -288z" />
    <glyph glyph-name="Cacute" unicode="&#x106;" horiz-adv-x="1351" 
d="M117 702q0 148 53 282t144 231.5t219.5 154.5t273.5 57q136 0 258.5 -50t218.5 -140l-63 -66q-179 164 -414 164q-168 0 -305.5 -85t-215 -230t-77.5 -318q0 -172 77.5 -316.5t215 -229t305.5 -84.5q239 0 414 164l63 -66q-200 -190 -477 -190q-193 0 -352 97
t-248.5 262.5t-89.5 362.5zM715 1526l153 266h115l-178 -266h-90z" />
    <glyph glyph-name="cacute" unicode="&#x107;" horiz-adv-x="1021" 
d="M104 481q0 147 68 261t181 174.5t249 60.5q184 0 326 -113l-60 -69q-118 90 -266 90q-170 0 -287.5 -112t-117.5 -292q0 -182 117.5 -295.5t287.5 -113.5q151 0 266 92l62 -70q-136 -114 -328 -114q-136 0 -249 61t-181 176.5t-68 263.5zM522 1116l154 266h115l-179 -266
h-90z" />
    <glyph glyph-name="Ccircumflex" unicode="&#x108;" horiz-adv-x="1351" 
d="M117 702q0 148 53 282t144 231.5t219.5 154.5t273.5 57q136 0 258.5 -50t218.5 -140l-63 -66q-179 164 -414 164q-168 0 -305.5 -85t-215 -230t-77.5 -318q0 -172 77.5 -316.5t215 -229t305.5 -84.5q239 0 414 164l63 -66q-200 -190 -477 -190q-193 0 -352 97
t-248.5 262.5t-89.5 362.5zM522 1526l213 266h131l213 -266h-94l-184 203l-185 -203h-94z" />
    <glyph glyph-name="ccircumflex" unicode="&#x109;" horiz-adv-x="1021" 
d="M104 481q0 147 68 261t181 174.5t249 60.5q184 0 326 -113l-60 -69q-118 90 -266 90q-170 0 -287.5 -112t-117.5 -292q0 -182 117.5 -295.5t287.5 -113.5q151 0 266 92l62 -70q-136 -114 -328 -114q-136 0 -249 61t-181 176.5t-68 263.5zM293 1116l213 266h131l213 -266
h-94l-185 203l-184 -203h-94z" />
    <glyph glyph-name="Cdotaccent" unicode="&#x10a;" horiz-adv-x="1351" 
d="M117 702q0 148 53 282t144 231.5t219.5 154.5t273.5 57q136 0 258.5 -50t218.5 -140l-63 -66q-179 164 -414 164q-168 0 -305.5 -85t-215 -230t-77.5 -318q0 -172 77.5 -316.5t215 -229t305.5 -84.5q239 0 414 164l63 -66q-200 -190 -477 -190q-193 0 -352 97
t-248.5 262.5t-89.5 362.5zM707 1698q0 33 23 54.5t56 21.5q36 0 59 -21.5t23 -54.5q0 -32 -23.5 -53t-58.5 -21q-33 0 -56 21t-23 53z" />
    <glyph glyph-name="cdotaccent" unicode="&#x10b;" horiz-adv-x="1021" 
d="M104 481q0 147 68 261t181 174.5t249 60.5q184 0 326 -113l-60 -69q-118 90 -266 90q-170 0 -287.5 -112t-117.5 -292q0 -182 117.5 -295.5t287.5 -113.5q151 0 266 92l62 -70q-136 -114 -328 -114q-136 0 -249 61t-181 176.5t-68 263.5zM510 1288q0 33 23.5 54.5
t56.5 21.5q36 0 59 -21.5t23 -54.5q0 -32 -23.5 -53t-58.5 -21q-33 0 -56.5 21t-23.5 53z" />
    <glyph glyph-name="Ccaron" unicode="&#x10c;" horiz-adv-x="1351" 
d="M117 702q0 148 53 282t144 231.5t219.5 154.5t273.5 57q136 0 258.5 -50t218.5 -140l-63 -66q-179 164 -414 164q-168 0 -305.5 -85t-215 -230t-77.5 -318q0 -172 77.5 -316.5t215 -229t305.5 -84.5q239 0 414 164l63 -66q-200 -190 -477 -190q-193 0 -352 97
t-248.5 262.5t-89.5 362.5zM496 1792h94l184 -203l184 203h95l-213 -266h-131z" />
    <glyph glyph-name="ccaron" unicode="&#x10d;" horiz-adv-x="1021" 
d="M104 481q0 147 68 261t181 174.5t249 60.5q184 0 326 -113l-60 -69q-118 90 -266 90q-170 0 -287.5 -112t-117.5 -292q0 -182 117.5 -295.5t287.5 -113.5q151 0 266 92l62 -70q-136 -114 -328 -114q-136 0 -249 61t-181 176.5t-68 263.5zM297 1382h94l184 -202l185 202
h94l-213 -266h-131z" />
    <glyph glyph-name="Dcaron" unicode="&#x10e;" horiz-adv-x="1478" 
d="M211 0v1411h524q193 0 335.5 -94t214 -253.5t71.5 -361.5q0 -201 -71.5 -358.5t-213.5 -250.5t-336 -93h-524zM303 92h432q168 0 289 80.5t180.5 217t59.5 312.5q0 177 -59.5 315t-181 220t-288.5 82h-432v-1227zM389 1792h94l185 -203l184 203h94l-213 -266h-131z" />
    <glyph glyph-name="dcaron" unicode="&#x10f;" 
d="M104 479q0 141 66.5 255.5t179.5 178.5t248 64q129 0 238.5 -60t167.5 -165v749h94v-1501h-94v207q-58 -104 -168 -165.5t-238 -61.5q-206 0 -350 143t-144 356zM199 479q0 -171 116 -288t283 -117t285 111.5t121 283.5q0 180 -118.5 297t-287.5 117q-167 0 -283 -116
t-116 -288zM1192 1139q106 158 84 315h110q0 -222 -135 -332z" />
    <glyph glyph-name="Dcroat" unicode="&#x110;" horiz-adv-x="1488" 
d="M18 655v86h201v670h524q193 0 336 -94t215 -253.5t72 -361.5q0 -201 -72 -358.5t-214.5 -250.5t-336.5 -93h-524v655h-201zM311 92h432q168 0 289.5 80.5t181.5 217t60 312.5q0 177 -60 315t-182 220t-289 82h-432v-578h379v-86h-379v-563z" />
    <glyph glyph-name="dcroat" unicode="&#x111;" 
d="M104 479q0 141 66.5 255.5t179.5 178.5t248 64q129 0 238.5 -60t167.5 -165v446h-334v76h334v227h94v-227h182v-76h-182v-1198h-94v207q-58 -104 -168 -165.5t-238 -61.5q-206 0 -350 143t-144 356zM199 479q0 -171 116 -288t283 -117q170 0 288 114.5t118 290.5
q0 175 -120.5 289.5t-285.5 114.5q-167 0 -283 -116t-116 -288z" />
    <glyph glyph-name="Emacron" unicode="&#x112;" horiz-adv-x="1128" 
d="M211 0v1411h782v-92h-690v-580h604v-92h-604v-555h715v-92h-807zM336 1647v86h475v-86h-475z" />
    <glyph glyph-name="emacron" unicode="&#x113;" horiz-adv-x="1146" 
d="M106 481q0 221 138.5 358.5t343.5 137.5q206 0 337.5 -136.5t131.5 -359.5q0 -29 -2 -43h-854q12 -165 121.5 -265.5t265.5 -100.5q107 0 195 48.5t139 133.5l88 -31q-61 -115 -173 -179t-249 -64q-205 0 -343.5 139t-138.5 362zM201 524h762q-13 165 -116 263t-259 98
t-265 -99t-122 -262zM344 1237v86h475v-86h-475z" />
    <glyph glyph-name="Ebreve" unicode="&#x114;" horiz-adv-x="1128" 
d="M211 0v1411h782v-92h-690v-580h604v-92h-604v-555h715v-92h-807zM336 1774h76q5 -62 45.5 -104t113.5 -42q72 0 115.5 41.5t46.5 104.5h76q0 -101 -65.5 -163.5t-172.5 -62.5q-116 0 -175.5 66t-59.5 160z" />
    <glyph glyph-name="ebreve" unicode="&#x115;" horiz-adv-x="1146" 
d="M106 481q0 221 138.5 358.5t343.5 137.5q206 0 337.5 -136.5t131.5 -359.5q0 -29 -2 -43h-854q12 -165 121.5 -265.5t265.5 -100.5q107 0 195 48.5t139 133.5l88 -31q-61 -115 -173 -179t-249 -64q-205 0 -343.5 139t-138.5 362zM201 524h762q-13 165 -116 263t-259 98
t-265 -99t-122 -262zM344 1364h76q5 -62 45.5 -103.5t114.5 -41.5q72 0 115 41t46 104h76q0 -101 -65 -163t-172 -62q-117 0 -176.5 66t-59.5 159z" />
    <glyph glyph-name="Edotaccent" unicode="&#x116;" horiz-adv-x="1128" 
d="M211 0v1411h782v-92h-690v-580h604v-92h-604v-555h715v-92h-807zM535 1698q0 33 23 54.5t56 21.5q36 0 59 -21.5t23 -54.5q0 -32 -23.5 -53t-58.5 -21q-33 0 -56 21t-23 53z" />
    <glyph glyph-name="edotaccent" unicode="&#x117;" horiz-adv-x="1146" 
d="M106 481q0 221 138.5 358.5t343.5 137.5q206 0 337.5 -136.5t131.5 -359.5q0 -29 -2 -43h-854q12 -165 121.5 -265.5t265.5 -100.5q107 0 195 48.5t139 133.5l88 -31q-61 -115 -173 -179t-249 -64q-205 0 -343.5 139t-138.5 362zM201 524h762q-13 165 -116 263t-259 98
t-265 -99t-122 -262zM500 1288q0 33 23.5 54.5t56.5 21.5q36 0 59 -21.5t23 -54.5q0 -32 -23.5 -53t-58.5 -21q-33 0 -56.5 21t-23.5 53z" />
    <glyph glyph-name="Eogonek" unicode="&#x118;" horiz-adv-x="1128" 
d="M211 0v1411h782v-92h-690v-580h604v-92h-604v-555h715v-92l-68 -168q-12 -27 -12 -49q0 -32 19 -58t51 -40q41 -17 82.5 0t60.5 57q12 28 12 59h82q0 -40 -16 -86q-34 -76 -106.5 -106.5t-145.5 0.5q-77 31 -106.5 104.5t3.5 151.5l76 135h-739z" />
    <glyph glyph-name="eogonek" unicode="&#x119;" horiz-adv-x="1148" 
d="M106 481q0 221 138.5 358.5t343.5 137.5q206 0 337.5 -136.5t131.5 -359.5q0 -29 -2 -43h-854q12 -165 121.5 -265.5t265.5 -100.5q107 0 195 48.5t139 133.5l88 -31l-70.5 -96l-67.5 -92.5t-54 -87.5t-56 -115q-12 -27 -12 -49q0 -32 18.5 -58.5t50.5 -39.5q41 -17 83 0
t61 57q12 28 12 59h82q0 -37 -17 -86q-34 -76 -106.5 -106.5t-145.5 0.5q-77 31 -106.5 104.5t4.5 151.5l72 145q-84 -30 -170 -30q-205 0 -343.5 139t-138.5 362zM201 524h762q-13 165 -116 263t-259 98t-265 -99t-122 -262z" />
    <glyph glyph-name="Ecaron" unicode="&#x11a;" horiz-adv-x="1128" 
d="M211 0v1411h782v-92h-690v-580h604v-92h-604v-555h715v-92h-807zM295 1792h94l184 -203l185 203h94l-213 -266h-131z" />
    <glyph glyph-name="ecaron" unicode="&#x11b;" horiz-adv-x="1146" 
d="M106 481q0 221 138.5 358.5t343.5 137.5q206 0 337.5 -136.5t131.5 -359.5q0 -29 -2 -43h-854q12 -165 121.5 -265.5t265.5 -100.5q107 0 195 48.5t139 133.5l88 -31q-61 -115 -173 -179t-249 -64q-205 0 -343.5 139t-138.5 362zM201 524h762q-13 165 -116 263t-259 98
t-265 -99t-122 -262zM303 1382h94l185 -202l184 202h94l-213 -266h-131z" />
    <glyph glyph-name="Gcircumflex" unicode="&#x11c;" horiz-adv-x="1552" 
d="M115 702q0 148 55 282t149 231t225.5 154.5t278.5 57.5q240 0 430 -147l-61 -70q-160 125 -369 125q-171 0 -313 -85t-222.5 -230t-80.5 -318q0 -129 47.5 -245.5t129.5 -201t196.5 -134t242.5 -49.5q240 0 385.5 132t165.5 376h-432v88h535q-6 -341 -179 -516t-475 -175
q-147 0 -278.5 57.5t-225.5 154.5t-149 231t-55 282zM508 1526l213 266h131l213 -266h-94l-185 203l-184 -203h-94z" />
    <glyph glyph-name="gcircumflex" unicode="&#x11d;" 
d="M104 477q0 213 144 356.5t350 143.5q128 0 238 -61.5t168 -165.5v206h94v-813q0 -140 -24.5 -247t-68.5 -177t-109.5 -114.5t-141.5 -63t-170 -18.5q-119 0 -224 54t-176 163l78 51q58 -87 142 -130.5t180 -43.5q97 0 171 26t131.5 84.5t87.5 162.5t30 251v70
q-55 -105 -166.5 -168t-239.5 -63q-101 0 -192 37.5t-157.5 103t-105.5 158.5t-39 198zM199 477q0 -172 116 -287.5t283 -115.5q166 0 286 114t120 289q0 176 -118 291t-288 115q-166 0 -282.5 -117.5t-116.5 -288.5zM352 1116l213 266h131l213 -266h-94l-184 203l-185 -203
h-94z" />
    <glyph glyph-name="Gbreve" unicode="&#x11e;" horiz-adv-x="1552" 
d="M115 702q0 148 55 282t149 231t225.5 154.5t278.5 57.5q240 0 430 -147l-61 -70q-160 125 -369 125q-171 0 -313 -85t-222.5 -230t-80.5 -318q0 -129 47.5 -245.5t129.5 -201t196.5 -134t242.5 -49.5q240 0 385.5 132t165.5 376h-432v88h535q-6 -341 -179 -516t-475 -175
q-147 0 -278.5 57.5t-225.5 154.5t-149 231t-55 282zM551 1774h76q5 -62 45.5 -104t113.5 -42q72 0 115.5 41.5t46.5 104.5h76q0 -101 -65.5 -163.5t-172.5 -62.5q-116 0 -175.5 66t-59.5 160z" />
    <glyph glyph-name="gbreve" unicode="&#x11f;" 
d="M104 477q0 213 144 356.5t350 143.5q128 0 238 -61.5t168 -165.5v206h94v-813q0 -140 -24.5 -247t-68.5 -177t-109.5 -114.5t-141.5 -63t-170 -18.5q-119 0 -224 54t-176 163l78 51q58 -87 142 -130.5t180 -43.5q97 0 171 26t131.5 84.5t87.5 162.5t30 251v70
q-55 -105 -166.5 -168t-239.5 -63q-101 0 -192 37.5t-157.5 103t-105.5 158.5t-39 198zM199 477q0 -172 116 -287.5t283 -115.5q166 0 286 114t120 289q0 176 -118 291t-288 115q-166 0 -282.5 -117.5t-116.5 -288.5zM395 1364h76q5 -62 45.5 -103.5t114.5 -41.5
q72 0 115.5 41t46.5 104h75q0 -101 -65 -163t-172 -62q-117 0 -176.5 66t-59.5 159z" />
    <glyph glyph-name="Gdotaccent" unicode="&#x120;" horiz-adv-x="1552" 
d="M115 702q0 148 55 282t149 231t225.5 154.5t278.5 57.5q240 0 430 -147l-61 -70q-160 125 -369 125q-171 0 -313 -85t-222.5 -230t-80.5 -318q0 -129 47.5 -245.5t129.5 -201t196.5 -134t242.5 -49.5q240 0 385.5 132t165.5 376h-432v88h535q-6 -341 -179 -516t-475 -175
q-147 0 -278.5 57.5t-225.5 154.5t-149 231t-55 282zM707 1698q0 33 23 54.5t56 21.5q36 0 59 -21.5t23 -54.5q0 -32 -23.5 -53t-58.5 -21q-33 0 -56 21t-23 53z" />
    <glyph glyph-name="gdotaccent" unicode="&#x121;" 
d="M104 477q0 213 144 356.5t350 143.5q128 0 238 -61.5t168 -165.5v206h94v-813q0 -140 -24.5 -247t-68.5 -177t-109.5 -114.5t-141.5 -63t-170 -18.5q-119 0 -224 54t-176 163l78 51q58 -87 142 -130.5t180 -43.5q97 0 171 26t131.5 84.5t87.5 162.5t30 251v70
q-55 -105 -166.5 -168t-239.5 -63q-101 0 -192 37.5t-157.5 103t-105.5 158.5t-39 198zM199 477q0 -172 116 -287.5t283 -115.5q166 0 286 114t120 289q0 176 -118 291t-288 115q-166 0 -282.5 -117.5t-116.5 -288.5zM551 1288q0 33 23.5 54.5t56.5 21.5q36 0 59 -21.5
t23 -54.5q0 -32 -23.5 -53t-58.5 -21q-33 0 -56.5 21t-23.5 53z" />
    <glyph glyph-name="Gcommaaccent" unicode="&#x122;" horiz-adv-x="1552" 
d="M115 702q0 148 55 282t149 231t225.5 154.5t278.5 57.5q240 0 430 -147l-61 -70q-160 125 -369 125q-171 0 -313 -85t-222.5 -230t-80.5 -318q0 -129 47.5 -245.5t129.5 -201t196.5 -134t242.5 -49.5q240 0 385.5 132t165.5 376h-432v88h535q-6 -341 -179 -516t-475 -175
q-147 0 -278.5 57.5t-225.5 154.5t-149 231t-55 282zM676 -457q125 145 119 320h104q-12 -222 -149 -330q-23 2 -74 10z" />
    <glyph glyph-name="gcommaaccent" unicode="&#x123;" 
d="M104 477q0 213 144 356.5t350 143.5q128 0 238 -61.5t168 -165.5v206h94v-813q0 -140 -24.5 -247t-68.5 -177t-109.5 -114.5t-141.5 -63t-170 -18.5q-119 0 -224 54t-176 163l78 51q58 -87 142 -130.5t180 -43.5q97 0 171 26t131.5 84.5t87.5 162.5t30 251v70
q-55 -105 -166.5 -168t-239.5 -63q-101 0 -192 37.5t-157.5 103t-105.5 158.5t-39 198zM199 477q0 -172 116 -287.5t283 -115.5q166 0 286 114t120 289q0 176 -118 291t-288 115q-166 0 -282.5 -117.5t-116.5 -288.5zM530 1118q-2 217 125 344l60 -22q-100 -138 -84 -322
h-101z" />
    <glyph glyph-name="Hcircumflex" unicode="&#x124;" horiz-adv-x="1454" 
d="M211 0v1411h92v-666h848v666h92v-1411h-92v657h-848v-657h-92zM449 1526l213 266h131l213 -266h-95l-184 203l-184 -203h-94z" />
    <glyph glyph-name="hcircumflex" unicode="&#x125;" horiz-adv-x="1144" 
d="M-59 1556l213 267h131l213 -267h-95l-184 203l-184 -203h-94zM172 0v1501h94v-733q26 72 83.5 121t121.5 68.5t133 19.5q171 0 276.5 -112.5t104.5 -303.5v-561h-92v561q0 149 -80 236.5t-209 87.5q-66 0 -123.5 -19.5t-106.5 -59t-78 -108.5t-30 -161v-537h-94z" />
    <glyph glyph-name="Hbar" unicode="&#x126;" horiz-adv-x="1480" 
d="M82 1067v76h141v268h92v-268h848v268h92v-268h154v-76h-154v-1067h-92v657h-848v-657h-92v1067h-141zM315 745h848v322h-848v-322z" />
    <glyph glyph-name="hbar" unicode="&#x127;" horiz-adv-x="1144" 
d="M-6 1200v74h178v227h92v-227h340v-74h-340v-432q26 72 83.5 121t122 68.5t134.5 19.5q171 0 276 -112.5t105 -303.5v-561h-92v561q0 149 -80 236.5t-209 87.5q-66 0 -123.5 -19.5t-106.5 -59t-78.5 -108.5t-31.5 -161v-537h-92v1200h-178z" />
    <glyph glyph-name="Itilde" unicode="&#x128;" horiz-adv-x="514" 
d="M6 1579q4 85 47.5 130.5t91.5 45.5h19q32 0 67 -21.5l67 -43t56 -21.5q27 0 50 21t24 67h80q-4 -85 -46.5 -129.5t-92.5 -44.5q-43 0 -111.5 44t-97.5 44q-26 0 -49.5 -23t-24.5 -69h-80zM211 0v1411h92v-1411h-92z" />
    <glyph glyph-name="itilde" unicode="&#x129;" horiz-adv-x="438" 
d="M-31 1169q4 85 48 131t92 46h18q32 0 67 -21.5l67 -43t56 -21.5q27 0 50 21t24 67h80q-4 -85 -46.5 -129.5t-92.5 -44.5q-43 0 -111.5 44t-97.5 44q-26 0 -49.5 -23.5t-24.5 -69.5h-80zM172 0v956h94v-956h-94z" />
    <glyph glyph-name="Imacron" unicode="&#x12a;" horiz-adv-x="514" 
d="M20 1647v86h476v-86h-476zM211 0v1411h92v-1411h-92z" />
    <glyph glyph-name="imacron" unicode="&#x12b;" horiz-adv-x="438" 
d="M-16 1237v86h475v-86h-475zM172 0v956h94v-956h-94z" />
    <glyph glyph-name="Ibreve" unicode="&#x12c;" horiz-adv-x="514" 
d="M20 1774h76q5 -62 46 -104t114 -42q72 0 115.5 41.5t46.5 104.5h76q0 -101 -65.5 -163.5t-172.5 -62.5q-116 0 -176 66t-60 160zM211 0v1411h92v-1411h-92z" />
    <glyph glyph-name="ibreve" unicode="&#x12d;" horiz-adv-x="438" 
d="M-16 1364h75q5 -62 45.5 -103.5t114.5 -41.5q72 0 115.5 41t46.5 104h76q0 -101 -65.5 -163t-172.5 -62q-116 0 -175.5 65.5t-59.5 159.5zM172 0v956h94v-956h-94z" />
    <glyph glyph-name="Iogonek" unicode="&#x12e;" horiz-adv-x="514" 
d="M158 -135l53 135v1411h92v-1411h-6l-64 -168q-12 -36 -12 -49q0 -32 19 -58t51 -40q41 -17 82.5 0t60.5 57q12 28 12 59h82q0 -40 -16 -86q-34 -76 -106.5 -106.5t-145.5 0.5q-77 31 -106.5 104.5t4.5 151.5z" />
    <glyph glyph-name="iogonek" unicode="&#x12f;" horiz-adv-x="436" 
d="M119 -135l53 135v956h92v-956h-6l-63 -168q-13 -39 -13 -49q0 -32 19 -58t51 -40q41 -17 82.5 0t60.5 57q13 30 13 59h81q0 -40 -16 -86q-34 -76 -106.5 -106.5t-145.5 0.5q-77 31 -106.5 104.5t4.5 151.5zM135 1311q0 32 24 53.5t58 21.5t57 -21.5t23 -53.5t-23 -54
t-57 -22t-58 22t-24 54z" />
    <glyph glyph-name="Idotaccent" unicode="&#x130;" horiz-adv-x="514" 
d="M176 1698q0 33 23.5 54.5t56.5 21.5q36 0 59 -21.5t23 -54.5q0 -32 -23.5 -53t-58.5 -21q-33 0 -56.5 21t-23.5 53zM211 0v1411h92v-1411h-92z" />
    <glyph glyph-name="dotlessi" unicode="&#x131;" horiz-adv-x="438" 
d="M172 0v956h94v-956h-94z" />
    <glyph glyph-name="IJ" unicode="&#x132;" horiz-adv-x="1030" 
d="M211 0v1411h92v-1411h-92zM303 -465q0 9 4 45t4 45q54 -8 97 -8q85 0 147.5 27t99 76t53.5 109.5t17 133.5v1448h94v-1448q0 -93 -22.5 -170.5t-69.5 -139t-128.5 -96t-190.5 -34.5q-43 0 -105 12z" />
    <glyph glyph-name="ij" unicode="&#x133;" horiz-adv-x="872" 
d="M135 1311q0 32 24 53.5t58 21.5t57 -21.5t23 -53.5t-23 -54t-57 -22t-58 22t-24 54zM172 0v956h92v-956h-92zM291 -373h84q55 0 97 17.5t67.5 45.5t41 70t21.5 85t6 96v1015h92v-1015q0 -404 -325 -404h-84v90zM573 1311q0 32 24 53.5t58 21.5t57 -21.5t23 -53.5t-23 -54
t-57 -22t-58 22t-24 54z" />
    <glyph glyph-name="Jcircumflex" unicode="&#x134;" horiz-adv-x="516" 
d="M-211 -465q0 9 4 45t4 45q54 -8 97 -8q85 0 147.5 27t99 76t53.5 109.5t17 133.5v1448h94v-1448q0 -93 -22.5 -170.5t-69.5 -139t-128.5 -96t-190.5 -34.5q-43 0 -105 12zM-23 1526l213 266h132l213 -266h-95l-184 203l-184 -203h-95z" />
    <glyph glyph-name="jcircumflex" unicode="&#x135;" horiz-adv-x="436" 
d="M-145 -373h84q55 0 97 17.5t67.5 45.5t41 70t21.5 85t6 96v1015h92v-1015q0 -404 -325 -404h-84v90zM-68 1116l213 266h131l213 -266h-94l-184 203l-184 -203h-95z" />
    <glyph glyph-name="Kcommaaccent" unicode="&#x136;" horiz-adv-x="1093" 
d="M211 0v1411h92v-711l576 711h112l-594 -731l697 -680h-127l-664 647v-647h-92zM449 -457q124 144 118 320h105q-12 -221 -150 -330q-21 2 -73 10z" />
    <glyph glyph-name="kcommaaccent" unicode="&#x137;" horiz-adv-x="929" 
d="M172 0v1501h92v-940l389 395h133l-411 -415l543 -541h-130l-524 520v-520h-92zM350 -457q125 145 119 320h104q-12 -222 -149 -330q-23 2 -74 10z" />
    <glyph glyph-name="kgreenlandic" unicode="&#x138;" horiz-adv-x="882" 
d="M172 0v956h92v-473l418 473h121l-436 -495l483 -461h-129l-457 430v-430h-92z" />
    <glyph glyph-name="Lacute" unicode="&#x139;" horiz-adv-x="980" 
d="M211 0v1411h92v-1319h619v-92h-711zM213 1571l154 266h114l-178 -266h-90z" />
    <glyph glyph-name="lacute" unicode="&#x13a;" horiz-adv-x="436" 
d="M172 0v1501h92v-1501h-92zM176 1624l156 266h112l-176 -266h-92z" />
    <glyph glyph-name="Lcommaaccent" unicode="&#x13b;" horiz-adv-x="980" 
d="M211 0v1411h92v-1319h619v-92h-711zM393 -457q125 145 119 320h104q-12 -222 -149 -330q-23 2 -74 10z" />
    <glyph glyph-name="lcommaaccent" unicode="&#x13c;" horiz-adv-x="436" 
d="M57 -457q125 145 119 320h105q-12 -221 -150 -330q-23 2 -74 10zM172 0v1501h92v-1501h-92z" />
    <glyph glyph-name="Lcaron" unicode="&#x13d;" horiz-adv-x="980" 
d="M211 0v1411h92v-1319h619v-92h-711zM500 1014q121 168 116 397h93q-5 -252 -150 -420q-9 3 -59 23z" />
    <glyph glyph-name="lcaron" unicode="&#x13e;" horiz-adv-x="436" 
d="M172 0v1501h92v-1501h-92zM358 1104q122 169 117 397h92q-5 -253 -149 -420q-15 5 -60 23z" />
    <glyph glyph-name="Ldot" unicode="&#x13f;" horiz-adv-x="980" 
d="M211 0v1411h92v-1319h619v-92h-711zM496 504q0 35 24.5 57.5t59.5 22.5q36 0 61 -22.5t25 -57.5q0 -33 -25 -55.5t-61 -22.5q-34 0 -59 22.5t-25 55.5z" />
    <glyph glyph-name="ldot" unicode="&#x140;" horiz-adv-x="616" 
d="M172 0v1501h92v-1501h-92zM442 504q0 35 24.5 57.5t59.5 22.5q36 0 61 -22.5t25 -57.5q0 -33 -25 -55.5t-61 -22.5q-34 0 -59 22.5t-25 55.5z" />
    <glyph glyph-name="Lslash" unicode="&#x141;" horiz-adv-x="995" 
d="M68 606v84l157 98v623h92v-563l226 141v-86l-226 -141v-670h619v-92h-711v705z" />
    <glyph glyph-name="lslash" unicode="&#x142;" horiz-adv-x="481" 
d="M27 598v86l161 102v715h95v-655l200 127v-86l-200 -127v-760h-95v700z" />
    <glyph glyph-name="Nacute" unicode="&#x143;" horiz-adv-x="1400" 
d="M211 0v1411h104l783 -1261v1261h92v-1411h-100l-787 1262v-1262h-92zM635 1571l153 266h113l-176 -266h-90z" />
    <glyph glyph-name="nacute" unicode="&#x144;" horiz-adv-x="1144" 
d="M172 0v956h94v-188q26 72 83.5 121t121.5 68.5t133 19.5q172 0 277 -112.5t104 -303.5v-561h-92v561q0 149 -80 236.5t-209 87.5q-66 0 -123.5 -19.5t-106.5 -59t-78 -108.5t-30 -161v-537h-94zM512 1116l154 266h114l-178 -266h-90z" />
    <glyph glyph-name="Ncommaaccent" unicode="&#x145;" horiz-adv-x="1400" 
d="M211 0v1411h104l783 -1261v1261h92v-1411h-100l-787 1262v-1262h-92zM530 -457q125 145 119 320h105q-12 -221 -150 -330q-23 2 -74 10z" />
    <glyph glyph-name="ncommaaccent" unicode="&#x146;" horiz-adv-x="1144" 
d="M172 0v956h94v-188q26 72 83.5 121t121.5 68.5t133 19.5q172 0 277 -112.5t104 -303.5v-561h-92v561q0 149 -80 236.5t-209 87.5q-66 0 -123.5 -19.5t-106.5 -59t-78 -108.5t-30 -161v-537h-94zM428 -457q125 145 119 320h104q-12 -222 -149 -330q-23 2 -74 10z" />
    <glyph glyph-name="Ncaron" unicode="&#x147;" horiz-adv-x="1400" 
d="M211 0v1411h104l783 -1261v1261h92v-1411h-100l-787 1262v-1262h-92zM422 1837h94l184 -203l185 203h94l-213 -266h-131z" />
    <glyph glyph-name="ncaron" unicode="&#x148;" horiz-adv-x="1144" 
d="M172 0v956h94v-188q26 72 83.5 121t121.5 68.5t133 19.5q172 0 277 -112.5t104 -303.5v-561h-92v561q0 149 -80 236.5t-209 87.5q-66 0 -123.5 -19.5t-106.5 -59t-78 -108.5t-30 -161v-537h-94zM299 1382h94l185 -202l184 202h94l-213 -266h-131z" />
    <glyph glyph-name="napostrophe" unicode="&#x149;" horiz-adv-x="1146" 
d="M-8 1049q100 158 82 307h100q0 -206 -125 -322zM172 0v956h94v-188q26 72 83.5 121t121.5 68.5t133 19.5q172 0 277.5 -112.5t105.5 -303.5v-561h-94v561q0 149 -80 236.5t-209 87.5q-66 0 -123.5 -19.5t-106.5 -59t-78 -108.5t-30 -161v-537h-94z" />
    <glyph glyph-name="Eng" unicode="&#x14a;" horiz-adv-x="1400" 
d="M211 0v1411h104l783 -1247v1247h92v-1411v-39q0 -93 -22.5 -170.5t-70 -139t-129 -96t-190.5 -34.5q-42 0 -104 12q0 9 4 45t4 45q54 -8 96 -8q84 0 146.5 27t98 76t53.5 109t20 134l2 39l-795 1262v-1262h-92z" />
    <glyph glyph-name="eng" unicode="&#x14b;" horiz-adv-x="1144" 
d="M172 0v956h94v-188q26 72 83.5 121t121.5 68.5t133 19.5q172 0 277 -112.5t104 -303.5v-598q0 -94 -22.5 -171t-69 -138.5t-128 -96t-190.5 -34.5q-52 0 -104 10q0 9 4 46t4 46q45 -10 96 -10q85 0 147.5 27t99 76t54 110t17.5 135v598q0 149 -80 236.5t-209 87.5
q-66 0 -123.5 -19.5t-106.5 -59t-78 -108.5t-30 -161v-537h-94z" />
    <glyph glyph-name="Omacron" unicode="&#x14c;" horiz-adv-x="1648" 
d="M115 702q0 198 93.5 364.5t256.5 263.5t358 97q196 0 359.5 -97t257.5 -263.5t94 -364.5q0 -147 -55.5 -280.5t-150 -230.5t-226.5 -154t-279 -57q-146 0 -277.5 57t-225.5 154t-149.5 230.5t-55.5 280.5zM207 702q0 -172 81 -316.5t223 -229t312 -84.5q171 0 313.5 84.5
t224 229t81.5 316.5q0 129 -48 246t-130.5 202t-197.5 135t-243 50q-127 0 -241.5 -50t-196.5 -135t-130 -202t-48 -246zM592 1647v86h475v-86h-475z" />
    <glyph glyph-name="omacron" unicode="&#x14d;" horiz-adv-x="1208" 
d="M104 481q0 147 68 261.5t181.5 174.5t250.5 60t250 -60t181.5 -174.5t68.5 -261.5q0 -148 -68.5 -264t-182 -176.5t-249.5 -60.5q-137 0 -250.5 60.5t-181.5 176t-68 264.5zM197 481q0 -182 117.5 -295.5t289.5 -113.5t290 113.5t118 295.5q0 181 -118 292.5t-290 111.5
t-289.5 -111.5t-117.5 -292.5zM367 1237v86h475v-86h-475z" />
    <glyph glyph-name="Obreve" unicode="&#x14e;" horiz-adv-x="1648" 
d="M115 702q0 198 93.5 364.5t256.5 263.5t358 97q196 0 359.5 -97t257.5 -263.5t94 -364.5q0 -147 -55.5 -280.5t-150 -230.5t-226.5 -154t-279 -57q-146 0 -277.5 57t-225.5 154t-149.5 230.5t-55.5 280.5zM207 702q0 -172 81 -316.5t223 -229t312 -84.5q171 0 313.5 84.5
t224 229t81.5 316.5q0 129 -48 246t-130.5 202t-197.5 135t-243 50q-127 0 -241.5 -50t-196.5 -135t-130 -202t-48 -246zM592 1774h76q5 -62 45.5 -104t113.5 -42q72 0 115.5 41.5t46.5 104.5h76q0 -101 -65.5 -163.5t-172.5 -62.5q-116 0 -175.5 66t-59.5 160z" />
    <glyph glyph-name="obreve" unicode="&#x14f;" horiz-adv-x="1208" 
d="M104 481q0 147 68 261.5t181.5 174.5t250.5 60t250 -60t181.5 -174.5t68.5 -261.5q0 -148 -68.5 -264t-182 -176.5t-249.5 -60.5q-137 0 -250.5 60.5t-181.5 176t-68 264.5zM197 481q0 -182 117.5 -295.5t289.5 -113.5t290 113.5t118 295.5q0 181 -118 292.5t-290 111.5
t-289.5 -111.5t-117.5 -292.5zM367 1364h75q5 -62 45.5 -103.5t114.5 -41.5q72 0 115.5 41t46.5 104h76q0 -101 -65.5 -163t-172.5 -62q-116 0 -175.5 65.5t-59.5 159.5z" />
    <glyph glyph-name="Ohungarumlaut" unicode="&#x150;" horiz-adv-x="1648" 
d="M115 702q0 198 93.5 364.5t256.5 263.5t358 97q196 0 359.5 -97t257.5 -263.5t94 -364.5q0 -147 -55.5 -280.5t-150 -230.5t-226.5 -154t-279 -57q-146 0 -277.5 57t-225.5 154t-149.5 230.5t-55.5 280.5zM207 702q0 -172 81 -316.5t223 -229t312 -84.5q171 0 313.5 84.5
t224 229t81.5 316.5q0 129 -48 246t-130.5 202t-197.5 135t-243 50q-127 0 -241.5 -50t-196.5 -135t-130 -202t-48 -246zM641 1526l152 266h106l-164 -266h-94zM874 1526l154 266h115l-178 -266h-91z" />
    <glyph glyph-name="ohungarumlaut" unicode="&#x151;" horiz-adv-x="1208" 
d="M104 481q0 147 68 261.5t181.5 174.5t250.5 60t250 -60t181.5 -174.5t68.5 -261.5q0 -148 -68.5 -264t-182 -176.5t-249.5 -60.5q-137 0 -250.5 60.5t-181.5 176t-68 264.5zM197 481q0 -182 117.5 -295.5t289.5 -113.5t290 113.5t118 295.5q0 181 -118 292.5t-290 111.5
t-289.5 -111.5t-117.5 -292.5zM406 1116l151 266h107l-164 -266h-94zM639 1116l154 266h114l-178 -266h-90z" />
    <glyph glyph-name="OE" unicode="&#x152;" horiz-adv-x="2359" 
d="M115 702q0 198 93.5 364.5t256.5 263.5t358 97q200 0 365 -102t254 -272v358h782v-92h-688v-580h602v-94h-602v-553h713v-92h-807v352q-89 -170 -253.5 -271t-365.5 -101q-146 0 -277.5 57t-225.5 154t-149.5 230.5t-55.5 280.5zM207 702q0 -172 81 -316.5t223 -229
t312 -84.5q131 0 246.5 50.5t197 137t128.5 204.5t47 249q-3 170 -85 312.5t-223.5 226t-310.5 83.5q-127 0 -241.5 -50t-196.5 -135t-130 -202t-48 -246z" />
    <glyph glyph-name="oe" unicode="&#x153;" horiz-adv-x="2052" 
d="M104 481q0 147 68 261.5t181.5 174.5t250.5 60q150 0 271.5 -74.5t179.5 -204.5q55 130 172.5 204.5t265.5 74.5q206 0 337.5 -136.5t131.5 -359.5q0 -29 -2 -43h-854q12 -165 121.5 -265.5t265.5 -100.5q106 0 193.5 48t140.5 134l88 -31q-61 -115 -173 -179t-249 -64
q-148 0 -265.5 75t-172.5 207q-58 -131 -179.5 -206.5t-271.5 -75.5q-137 0 -250.5 60.5t-181.5 176t-68 264.5zM197 481q0 -182 117.5 -295.5t289.5 -113.5q109 0 199.5 47.5t147 137.5t61.5 206v18q0 181 -118.5 292.5t-289.5 111.5q-172 0 -289.5 -111.5t-117.5 -292.5z
M1106 524h762q-13 165 -116 263t-259 98t-265 -99t-122 -262z" />
    <glyph glyph-name="Racute" unicode="&#x154;" horiz-adv-x="1236" 
d="M211 0v1411h520q101 0 178 -35.5t121.5 -96.5t66 -134t21.5 -156q0 -84 -21.5 -157t-66.5 -133t-123 -95t-182 -35h-27l404 -569h-113l-403 569h-281v-569h-94zM305 662h416q81 0 141.5 27t95 74t51.5 103.5t17 122.5q0 65 -16.5 122t-50.5 104.5t-92.5 75.5t-135.5 28
h-426v-657zM539 1526l153 266h115l-178 -266h-90z" />
    <glyph glyph-name="racute" unicode="&#x155;" horiz-adv-x="755" 
d="M172 0v956h94v-247q33 125 113 196.5t201 71.5q79 0 141 -27l-16 -90q-57 23 -125 23q-71 0 -126.5 -32t-90 -82.5t-57 -120t-31 -137.5t-9.5 -142v-369h-94zM203 1116l153 266h115l-178 -266h-90z" />
    <glyph glyph-name="Rcommaaccent" unicode="&#x156;" horiz-adv-x="1236" 
d="M211 0v1411h520q101 0 178 -35.5t121.5 -96.5t66 -134t21.5 -156q0 -84 -21.5 -157t-66.5 -133t-123 -95t-182 -35h-27l404 -569h-113l-403 569h-281v-569h-94zM305 662h416q81 0 141.5 27t95 74t51.5 103.5t17 122.5q0 65 -16.5 122t-50.5 104.5t-92.5 75.5t-135.5 28
h-426v-657zM471 -457q125 145 119 320h104q-12 -222 -149 -330q-23 2 -74 10z" />
    <glyph glyph-name="rcommaaccent" unicode="&#x157;" horiz-adv-x="755" 
d="M55 -457q125 145 119 320h105q-12 -221 -150 -330q-23 2 -74 10zM172 0v956h94v-247q33 125 113 196.5t201 71.5q79 0 141 -27l-16 -90q-57 23 -125 23q-71 0 -126.5 -32t-90 -82.5t-57 -120t-31 -137.5t-9.5 -142v-369h-94z" />
    <glyph glyph-name="Rcaron" unicode="&#x158;" horiz-adv-x="1236" 
d="M211 0v1411h520q101 0 178 -35.5t121.5 -96.5t66 -134t21.5 -156q0 -84 -21.5 -157t-66.5 -133t-123 -95t-182 -35h-27l404 -569h-113l-403 569h-281v-569h-94zM305 662h416q81 0 141.5 27t95 74t51.5 103.5t17 122.5q0 65 -16.5 122t-50.5 104.5t-92.5 75.5t-135.5 28
h-426v-657zM342 1792h94l185 -203l184 203h94l-213 -266h-131z" />
    <glyph glyph-name="rcaron" unicode="&#x159;" horiz-adv-x="755" 
d="M125 1382h94l184 -202l185 202h94l-213 -266h-131zM172 0v956h94v-247q33 125 113 196.5t201 71.5q79 0 141 -27l-16 -90q-57 23 -125 23q-71 0 -126.5 -32t-90 -82.5t-57 -120t-31 -137.5t-9.5 -142v-369h-94z" />
    <glyph glyph-name="Sacute" unicode="&#x15a;" horiz-adv-x="1150" 
d="M119 367h92q11 -117 109 -206t245 -89q162 0 262 77t121 181q10 72 -9 130t-62.5 97.5t-99 66t-126.5 42.5l-196 47q-326 69 -326 342q0 107 63 193.5t162 132.5t209 46q182 0 303.5 -100.5t128.5 -267.5h-92q-7 125 -102.5 200.5t-237.5 75.5q-134 0 -237 -80t-103 -200
q0 -196 250 -254l199 -45q88 -20 157 -54.5t123.5 -86.5t77.5 -129.5t8 -172.5q-13 -62 -48.5 -119.5t-92 -106.5t-143 -78t-189.5 -29q-95 0 -177.5 33t-139 88t-90.5 124t-39 142zM498 1526l153 266h115l-178 -266h-90z" />
    <glyph glyph-name="sacute" unicode="&#x15b;" horiz-adv-x="864" 
d="M92 244h86q60 -174 256 -174q108 0 173 50.5t65 133.5q0 135 -164 174l-139 33q-40 9 -71.5 20.5t-67 35t-58 54t-34.5 79.5t-5 110q13 96 100 156.5t203 60.5q120 0 201 -62.5t94 -177.5h-92q-12 68 -68 109t-135 41q-82 0 -142 -39t-69 -100q-21 -154 166 -197l137 -33
q236 -58 236 -264q0 -123 -93 -198.5t-243 -75.5q-126 0 -223 70.5t-113 193.5zM367 1116l153 266h115l-178 -266h-90z" />
    <glyph glyph-name="Scircumflex" unicode="&#x15c;" horiz-adv-x="1150" 
d="M119 367h92q11 -117 109 -206t245 -89q162 0 262 77t121 181q10 72 -9 130t-62.5 97.5t-99 66t-126.5 42.5l-196 47q-326 69 -326 342q0 107 63 193.5t162 132.5t209 46q182 0 303.5 -100.5t128.5 -267.5h-92q-7 125 -102.5 200.5t-237.5 75.5q-134 0 -237 -80t-103 -200
q0 -196 250 -254l199 -45q88 -20 157 -54.5t123.5 -86.5t77.5 -129.5t8 -172.5q-13 -62 -48.5 -119.5t-92 -106.5t-143 -78t-189.5 -29q-95 0 -177.5 33t-139 88t-90.5 124t-39 142zM281 1526l213 266h131l213 -266h-95l-184 203l-184 -203h-94z" />
    <glyph glyph-name="scircumflex" unicode="&#x15d;" horiz-adv-x="864" 
d="M92 244h86q60 -174 256 -174q108 0 173 50.5t65 133.5q0 135 -164 174l-139 33q-40 9 -71.5 20.5t-67 35t-58 54t-34.5 79.5t-5 110q13 96 100 156.5t203 60.5q120 0 201 -62.5t94 -177.5h-92q-12 68 -68 109t-135 41q-82 0 -142 -39t-69 -100q-21 -154 166 -197l137 -33
q236 -58 236 -264q0 -123 -93 -198.5t-243 -75.5q-126 0 -223 70.5t-113 193.5zM152 1116l213 266h131l213 -266h-95l-184 203l-184 -203h-94z" />
    <glyph glyph-name="Scedilla" unicode="&#x15e;" horiz-adv-x="1153" 
d="M121 367h92q11 -117 109 -206t245 -89q162 0 262 77t121 181q10 72 -9 130t-62.5 97.5t-99 66t-126.5 42.5l-196 47q-326 69 -326 342q0 107 63 193.5t162 132.5t209 46q182 0 303.5 -100.5t128.5 -267.5h-92q-7 125 -102.5 200.5t-237.5 75.5q-134 0 -237 -80t-103 -200
q0 -196 250 -254l199 -45q88 -20 157 -54.5t123.5 -86.5t77.5 -129.5t8 -172.5q-26 -118 -125 -211.5t-260 -115.5l50 -121q33 -78 3.5 -151.5t-106.5 -104.5q-73 -31 -145.5 -0.5t-106.5 106.5q-16 46 -16 86h82q0 -31 12 -59q19 -40 60.5 -57t82.5 0q32 14 51 40t19 58
q0 22 -12 49l-58 148h-4q-95 0 -177.5 33t-139 88t-90.5 124t-39 142z" />
    <glyph glyph-name="scedilla" unicode="&#x15f;" horiz-adv-x="864" 
d="M92 244h86q60 -174 256 -174q108 0 173 50.5t65 133.5q0 135 -164 174l-139 33q-40 9 -71.5 20.5t-67 35t-58 54t-34.5 79.5t-5 110q13 96 100 156.5t203 60.5q120 0 201 -62.5t94 -177.5h-92q-12 68 -68 109t-135 41q-82 0 -142 -39t-69 -100q-21 -154 166 -197l137 -33
q236 -58 236 -264q0 -103 -67 -174.5t-181 -91.5l49 -123q34 -78 4.5 -151.5t-106.5 -104.5q-73 -31 -145.5 -0.5t-106.5 106.5q-16 46 -16 86h81q0 -29 13 -59q19 -40 60.5 -57t82.5 0q32 14 51 40t19 58q0 20 -13 49l-57 148h-4q-126 0 -223 70.5t-113 193.5z" />
    <glyph glyph-name="Scaron" unicode="&#x160;" horiz-adv-x="1150" 
d="M119 367h92q11 -117 109 -206t245 -89q162 0 262 77t121 181q10 72 -9 130t-62.5 97.5t-99 66t-126.5 42.5l-196 47q-326 69 -326 342q0 107 63 193.5t162 132.5t209 46q182 0 303.5 -100.5t128.5 -267.5h-92q-7 125 -102.5 200.5t-237.5 75.5q-134 0 -237 -80t-103 -200
q0 -196 250 -254l199 -45q88 -20 157 -54.5t123.5 -86.5t77.5 -129.5t8 -172.5q-13 -62 -48.5 -119.5t-92 -106.5t-143 -78t-189.5 -29q-95 0 -177.5 33t-139 88t-90.5 124t-39 142zM303 1792h94l185 -203l184 203h94l-213 -266h-131z" />
    <glyph glyph-name="scaron" unicode="&#x161;" horiz-adv-x="864" 
d="M92 244h86q60 -174 256 -174q108 0 173 50.5t65 133.5q0 135 -164 174l-139 33q-40 9 -71.5 20.5t-67 35t-58 54t-34.5 79.5t-5 110q13 96 100 156.5t203 60.5q120 0 201 -62.5t94 -177.5h-92q-12 68 -68 109t-135 41q-82 0 -142 -39t-69 -100q-21 -154 166 -197l137 -33
q236 -58 236 -264q0 -123 -93 -198.5t-243 -75.5q-126 0 -223 70.5t-113 193.5zM152 1382h94l184 -202l184 202h95l-213 -266h-131z" />
    <glyph glyph-name="Tcommaaccent" unicode="&#x162;" horiz-adv-x="1138" 
d="M55 1319v92h1028v-92h-469v-1319h-92v1319h-467zM406 -457q124 144 118 320h105q-12 -221 -150 -330q-21 2 -73 10z" />
    <glyph glyph-name="tcommaaccent" unicode="&#x163;" horiz-adv-x="600" 
d="M55 872v84h174v385h93v-385h223v-84h-223v-872h-93v872h-174zM109 -457q124 144 118 320h105q-12 -221 -150 -330q-21 2 -73 10z" />
    <glyph glyph-name="Tcaron" unicode="&#x164;" horiz-adv-x="1138" 
d="M55 1319v92h1028v-92h-469v-1319h-92v1319h-467zM291 1792h94l184 -203l185 203h94l-213 -266h-131z" />
    <glyph glyph-name="tcaron" unicode="&#x165;" horiz-adv-x="600" 
d="M55 872v84h174v385h93v-385h223v-84h-223v-872h-93v872h-174zM420 1075q99 135 86 314h100q2 -214 -127 -334z" />
    <glyph glyph-name="Tbar" unicode="&#x166;" horiz-adv-x="1138" 
d="M55 1319v92h1028v-92h-469v-506h269v-80h-269v-733h-92v733h-268v80h268v506h-467z" />
    <glyph glyph-name="tbar" unicode="&#x167;" horiz-adv-x="608" 
d="M59 872v84h174v385h93v-385h223v-84h-223v-315h157v-78h-157v-479h-93v479h-139v78h139v315h-174z" />
    <glyph glyph-name="Utilde" unicode="&#x168;" horiz-adv-x="1378" 
d="M197 469v942h92v-942q0 -177 115 -287t284 -110t285.5 110t116.5 287v942h92v-942q0 -145 -67.5 -258.5t-179.5 -173.5t-247 -60q-134 0 -245.5 60t-178.5 173.5t-67 258.5zM438 1579q4 84 48 130t92 46h18q32 0 67 -21.5l67 -43t56 -21.5q27 0 50 21t24 67h80
q-4 -85 -46.5 -129.5t-92.5 -44.5q-43 0 -111.5 44t-97.5 44q-26 0 -49.5 -23t-24.5 -69h-80z" />
    <glyph glyph-name="utilde" unicode="&#x169;" horiz-adv-x="1146" 
d="M160 395v561h94v-561q0 -149 80 -236t209 -87q66 0 123.5 19.5t106.5 59t78 108.5t30 161v536h94v-956h-94v188q-26 -72 -83.5 -120.5t-121.5 -68t-133 -19.5q-172 0 -277.5 112t-105.5 303zM336 1169q4 85 47.5 131t91.5 46h19q32 0 67 -21.5l67 -43t56 -21.5
q27 0 50 21t24 67h80q-4 -85 -47 -129.5t-93 -44.5q-43 0 -111.5 44t-97.5 44q-26 0 -49 -23.5t-24 -69.5h-80z" />
    <glyph glyph-name="Umacron" unicode="&#x16a;" horiz-adv-x="1378" 
d="M197 469v942h92v-942q0 -177 115 -287t284 -110t285.5 110t116.5 287v942h92v-942q0 -145 -67.5 -258.5t-179.5 -173.5t-247 -60q-134 0 -245.5 60t-178.5 173.5t-67 258.5zM451 1647v86h475v-86h-475z" />
    <glyph glyph-name="umacron" unicode="&#x16b;" horiz-adv-x="1146" 
d="M160 395v561h94v-561q0 -149 80 -236t209 -87q66 0 123.5 19.5t106.5 59t78 108.5t30 161v536h94v-956h-94v188q-26 -72 -83.5 -120.5t-121.5 -68t-133 -19.5q-172 0 -277.5 112t-105.5 303zM350 1237v86h475v-86h-475z" />
    <glyph glyph-name="Ubreve" unicode="&#x16c;" horiz-adv-x="1378" 
d="M197 469v942h92v-942q0 -177 115 -287t284 -110t285.5 110t116.5 287v942h92v-942q0 -145 -67.5 -258.5t-179.5 -173.5t-247 -60q-134 0 -245.5 60t-178.5 173.5t-67 258.5zM453 1774h75q5 -62 46 -104t114 -42q72 0 115.5 41.5t46.5 104.5h76q0 -101 -65.5 -163.5
t-172.5 -62.5q-116 0 -175.5 66t-59.5 160z" />
    <glyph glyph-name="ubreve" unicode="&#x16d;" horiz-adv-x="1146" 
d="M160 395v561h94v-561q0 -149 80 -236t209 -87q66 0 123.5 19.5t106.5 59t78 108.5t30 161v536h94v-956h-94v188q-26 -72 -83.5 -120.5t-121.5 -68t-133 -19.5q-172 0 -277.5 112t-105.5 303zM350 1364h76q5 -62 45.5 -103.5t114.5 -41.5q72 0 115.5 41t46.5 104h75
q0 -101 -65 -163t-172 -62q-117 0 -176.5 66t-59.5 159z" />
    <glyph glyph-name="Uring" unicode="&#x16e;" horiz-adv-x="1378" 
d="M197 469v942h92v-942q0 -177 115 -287t284 -110t285.5 110t116.5 287v942h92v-942q0 -145 -67.5 -258.5t-179.5 -173.5t-247 -60q-134 0 -245.5 60t-178.5 173.5t-67 258.5zM508 1729q0 76 52 130t126 54q78 0 131 -53.5t53 -130.5q0 -75 -53 -128t-131 -53
q-74 0 -126 53t-52 128zM584 1729q0 -43 30 -73t74 -30t75.5 30t31.5 73q0 45 -31 75.5t-76 30.5q-44 0 -74 -30t-30 -76z" />
    <glyph glyph-name="uring" unicode="&#x16f;" horiz-adv-x="1146" 
d="M160 395v561h94v-561q0 -149 80 -236t209 -87q66 0 123.5 19.5t106.5 59t78 108.5t30 161v536h94v-956h-94v188q-26 -72 -83.5 -120.5t-121.5 -68t-133 -19.5q-172 0 -277.5 112t-105.5 303zM406 1319q0 76 52 130t126 54q78 0 131 -53.5t53 -130.5q0 -75 -53 -127.5
t-131 -52.5q-74 0 -126 52.5t-52 127.5zM481 1319q0 -43 30.5 -72.5t74.5 -29.5t75 29.5t31 72.5q0 45 -30.5 75.5t-75.5 30.5q-44 0 -74.5 -30.5t-30.5 -75.5z" />
    <glyph glyph-name="Uhungarumlaut" unicode="&#x170;" horiz-adv-x="1378" 
d="M197 469v942h92v-942q0 -177 115 -287t284 -110t285.5 110t116.5 287v942h92v-942q0 -145 -67.5 -258.5t-179.5 -173.5t-247 -60q-134 0 -245.5 60t-178.5 173.5t-67 258.5zM500 1526l151 266h107l-164 -266h-94zM733 1526l154 266h114l-178 -266h-90z" />
    <glyph glyph-name="uhungarumlaut" unicode="&#x171;" horiz-adv-x="1146" 
d="M160 395v561h94v-561q0 -149 80 -236t209 -87q66 0 123.5 19.5t106.5 59t78 108.5t30 161v536h94v-956h-94v188q-26 -72 -83.5 -120.5t-121.5 -68t-133 -19.5q-172 0 -277.5 112t-105.5 303zM373 1116l151 266h107l-164 -266h-94zM606 1116l154 266h114l-178 -266h-90z
" />
    <glyph glyph-name="Uogonek" unicode="&#x172;" horiz-adv-x="1382" 
d="M199 469v942h92v-942q0 -177 115 -287t284 -110t285.5 110t116.5 287v942h92v-942q0 -199 -120.5 -332t-305.5 -155l-58 -150q-12 -27 -12 -49q0 -32 19 -58t51 -40q41 -17 82.5 0t60.5 57q12 28 12 59h82q0 -40 -16 -86q-34 -76 -106.5 -106.5t-145.5 0.5
q-77 31 -106.5 104.5t4.5 151.5l45 112q-200 8 -335.5 143.5t-135.5 348.5z" />
    <glyph glyph-name="uogonek" unicode="&#x173;" horiz-adv-x="1146" 
d="M160 395v561h94v-561q0 -149 80 -236t209 -87q66 0 123.5 19.5t106.5 59t78 108.5t30 161v536h94v-956h-8l-64 -168q-12 -27 -12 -49q0 -32 19 -58t51 -40q41 -17 82.5 0t60.5 57q12 28 12 59h82q0 -40 -16 -86q-34 -76 -106.5 -106.5t-145.5 0.5q-77 31 -106.5 104.5
t3.5 151.5l54 135v188q-26 -72 -83.5 -120.5t-121.5 -68t-133 -19.5q-172 0 -277.5 112t-105.5 303z" />
    <glyph glyph-name="Wcircumflex" unicode="&#x174;" horiz-adv-x="1880" 
d="M59 1411h97l428 -1274l311 1065h90l309 -1065l428 1274h99l-480 -1411h-98l-303 1038l-305 -1038h-96zM662 1526l212 266h132l213 -266h-95l-184 203l-184 -203h-94z" />
    <glyph glyph-name="wcircumflex" unicode="&#x175;" horiz-adv-x="1673" 
d="M59 956h101l309 -815l305 815h121l309 -813l305 813h99l-359 -956h-86l-329 854l-320 -854h-86zM555 1116l213 266h131l213 -266h-94l-184 203l-185 -203h-94z" />
    <glyph glyph-name="Ycircumflex" unicode="&#x176;" horiz-adv-x="1232" 
d="M41 1411h111l464 -647l469 647h111l-532 -743v-668h-95v668zM340 1526l213 266h131l213 -266h-94l-185 203l-184 -203h-94z" />
    <glyph glyph-name="ycircumflex" unicode="&#x177;" horiz-adv-x="1024" 
d="M57 956h99l356 -843l358 843h101l-609 -1419h-92l191 459zM238 1116l213 266h131l213 -266h-95l-184 203l-184 -203h-94z" />
    <glyph glyph-name="Ydieresis" unicode="&#x178;" horiz-adv-x="1232" 
d="M41 1411h111l464 -647l469 647h111l-532 -743v-668h-95v668zM371 1698q0 33 23.5 54.5t56.5 21.5q35 0 58 -21t23 -55q0 -32 -23 -53t-58 -21q-33 0 -56.5 21t-23.5 53zM705 1698q0 33 23 54.5t56 21.5q36 0 59 -21.5t23 -54.5q0 -32 -23.5 -53t-58.5 -21q-33 0 -56 21
t-23 53z" />
    <glyph glyph-name="Zacute" unicode="&#x179;" horiz-adv-x="1101" 
d="M82 0v76l813 1241h-801v94h920v-80l-811 -1237h811v-94h-932zM465 1526l153 266h115l-178 -266h-90z" />
    <glyph glyph-name="zacute" unicode="&#x17a;" horiz-adv-x="980" 
d="M86 0v74l664 790h-650v92h787v-75l-668 -789h668v-92h-801zM401 1116l154 266h115l-178 -266h-91z" />
    <glyph glyph-name="Zdotaccent" unicode="&#x17b;" horiz-adv-x="1101" 
d="M82 0v76l813 1241h-801v94h920v-80l-811 -1237h811v-94h-932zM467 1698q0 33 23.5 54.5t56.5 21.5q36 0 59 -21.5t23 -54.5q0 -32 -23.5 -53t-58.5 -21q-33 0 -56.5 21t-23.5 53z" />
    <glyph glyph-name="zdotaccent" unicode="&#x17c;" horiz-adv-x="980" 
d="M86 0v74l664 790h-650v92h787v-75l-668 -789h668v-92h-801zM406 1288q0 33 23 54.5t56 21.5q36 0 59 -21.5t23 -54.5q0 -32 -23.5 -53t-58.5 -21q-33 0 -56 21t-23 53z" />
    <glyph glyph-name="Zcaron" unicode="&#x17d;" horiz-adv-x="1101" 
d="M82 0v76l813 1241h-801v94h920v-80l-811 -1237h811v-94h-932zM268 1792h94l185 -203l184 203h94l-213 -266h-131z" />
    <glyph glyph-name="zcaron" unicode="&#x17e;" horiz-adv-x="980" 
d="M86 0v74l664 790h-650v92h787v-75l-668 -789h668v-92h-801zM209 1382h94l184 -202l185 202h94l-213 -266h-131z" />
    <glyph glyph-name="longs" unicode="&#x17f;" horiz-adv-x="555" 
d="M57 872v84h193v140q0 405 325 405h84v-90h-84q-68 0 -116 -25.5t-72.5 -71.5t-34.5 -98.5t-10 -119.5v-1096h-92v872h-193z" />
    <glyph glyph-name="florin" unicode="&#x192;" horiz-adv-x="1216" 
d="M63 -438l17 90h84q233 0 289 315l168 905h-191l16 84h193l25 140q17 91 44.5 160t73 126.5t117 88t166.5 30.5h84l-19 -90h-83q-233 0 -289 -315l-27 -140h256l-16 -84h-256l-168 -905q-17 -91 -45 -160t-74 -126.5t-117.5 -88t-165.5 -30.5h-82z" />
    <glyph glyph-name="Aringacute" unicode="&#x1fa;" horiz-adv-x="1282" 
d="M51 0l541 1411h98l541 -1411h-98l-148 383h-688l-147 -383h-99zM330 469h624l-313 813zM461 1729q0 65 38 114.5t97 63.5l129 221h113l-150 -223q59 -15 97 -64t38 -112q0 -75 -54 -128t-130 -53q-75 0 -126.5 53t-51.5 128zM537 1731q0 -44 29.5 -74.5t72.5 -30.5
q44 0 75 30.5t31 74.5t-31 75t-75 31q-43 0 -72.5 -31t-29.5 -75z" />
    <glyph glyph-name="aringacute" unicode="&#x1fb;" 
d="M104 479q0 141 66.5 255.5t179.5 178.5t248 64q129 0 238.5 -60t167.5 -165v204h94v-956h-94v207q-58 -104 -168 -165.5t-238 -61.5q-206 0 -350 143t-144 356zM199 479q0 -171 116 -288t283 -117t285 111.5t121 283.5q0 180 -118.5 297t-287.5 117q-167 0 -283 -116
t-116 -288zM440 1298q0 66 38 115.5t97 63.5l130 221h112l-149 -223q59 -15 97 -64.5t38 -112.5q0 -75 -54 -127.5t-131 -52.5q-75 0 -126.5 52.5t-51.5 127.5zM516 1300q0 -44 29.5 -74t72.5 -30q45 0 76 30t31 74t-31.5 75.5t-75.5 31.5q-43 0 -72.5 -31.5t-29.5 -75.5z
" />
    <glyph glyph-name="AEacute" unicode="&#x1fc;" horiz-adv-x="1964" 
d="M31 0l913 1411h885v-92h-690v-580h604v-94h-604v-553h714v-92h-806v387h-656l-250 -387h-110zM449 477h598v842h-48zM985 1526l154 266h114l-178 -266h-90z" />
    <glyph glyph-name="aeacute" unicode="&#x1fd;" horiz-adv-x="2045" 
d="M104 479q0 141 66.5 255.5t179.5 178.5t248 64q129 0 238.5 -60t167.5 -165v204h94v-172q65 91 166.5 142t222.5 51q206 0 337.5 -136.5t131.5 -359.5q0 -29 -2 -43h-854q12 -165 121.5 -265.5t265.5 -100.5q107 0 195 48.5t139 133.5l88 -31q-61 -115 -173 -179
t-249 -64q-121 0 -222.5 51t-166.5 143v-174h-94v207q-58 -104 -168 -165.5t-238 -61.5q-206 0 -350 143t-144 356zM199 479q0 -171 116 -288t283 -117t285 111.5t121 283.5q0 180 -118.5 297t-287.5 117q-167 0 -283 -116t-116 -288zM995 1116l154 266h115l-179 -266h-90z
M1100 524h762q-13 165 -116 263t-259 98t-265 -99t-122 -262z" />
    <glyph glyph-name="Oslashacute" unicode="&#x1fe;" horiz-adv-x="1646" 
d="M113 702q0 198 93.5 364.5t256.5 263.5t358 97q135 0 258 -49t219 -137l187 189l55 -56l-186 -190q84 -97 131 -221.5t47 -260.5q0 -147 -55.5 -280.5t-150 -230.5t-226.5 -154t-279 -57q-135 0 -256.5 47t-214.5 133l-178 -180l-57 55l178 182q-86 98 -133 222.5
t-47 262.5zM205 702q0 -237 151 -419l877 891q-175 161 -412 161q-127 0 -241.5 -50t-196.5 -135t-130 -202t-48 -246zM414 225q177 -153 407 -153q171 0 313.5 84.5t224 229t81.5 316.5q0 116 -40 223.5t-112 192.5zM782 1526l154 266h115l-179 -266h-90z" />
    <glyph glyph-name="oslashacute" unicode="&#x1ff;" horiz-adv-x="1206" 
d="M104 481q0 147 68 261.5t181.5 174.5t250.5 60q185 0 324 -111l112 117l56 -55l-111 -115q119 -135 119 -332q0 -148 -68.5 -264t-182 -176.5t-249.5 -60.5q-192 0 -328 114l-112 -114l-58 55l113 115q-115 137 -115 331zM197 481q0 -157 90 -264l573 584
q-111 84 -256 84q-172 0 -289.5 -111.5t-117.5 -292.5zM342 160q112 -88 262 -88q172 0 290 113.5t118 295.5q0 152 -94 264zM547 1116l153 266h115l-178 -266h-90z" />
    <glyph glyph-name="Scommaaccent" unicode="&#x218;" horiz-adv-x="1150" 
d="M119 367h92q11 -117 109 -206t245 -89q162 0 262 77t121 181q10 72 -9 130t-62.5 97.5t-99 66t-126.5 42.5l-196 47q-326 69 -326 342q0 107 63 193.5t162 132.5t209 46q182 0 303.5 -100.5t128.5 -267.5h-92q-7 125 -102.5 200.5t-237.5 75.5q-134 0 -237 -80t-103 -200
q0 -196 250 -254l199 -45q88 -20 157 -54.5t123.5 -86.5t77.5 -129.5t8 -172.5q-13 -62 -48.5 -119.5t-92 -106.5t-143 -78t-189.5 -29q-95 0 -177.5 33t-139 88t-90.5 124t-39 142zM416 -457q125 145 119 320h104q-12 -221 -150 -330q-21 2 -73 10z" />
    <glyph glyph-name="scommaaccent" unicode="&#x219;" horiz-adv-x="864" 
d="M92 244h86q60 -174 256 -174q108 0 173 50.5t65 133.5q0 135 -164 174l-139 33q-40 9 -71.5 20.5t-67 35t-58 54t-34.5 79.5t-5 110q13 96 100 156.5t203 60.5q120 0 201 -62.5t94 -177.5h-92q-12 68 -68 109t-135 41q-82 0 -142 -39t-69 -100q-21 -154 166 -197l137 -33
q236 -58 236 -264q0 -123 -93 -198.5t-243 -75.5q-126 0 -223 70.5t-113 193.5zM268 -457q125 145 119 320h105q-12 -221 -150 -330q-23 2 -74 10z" />
    <glyph glyph-name="circumflex" unicode="&#x2c6;" horiz-adv-x="987" 
d="M215 1116l213 266h131l213 -266h-94l-184 203l-185 -203h-94z" />
    <glyph glyph-name="caron" unicode="&#x2c7;" horiz-adv-x="987" 
d="M215 1382h94l185 -202l184 202h94l-213 -266h-131z" />
    <glyph glyph-name="breve" unicode="&#x2d8;" horiz-adv-x="1042" 
d="M285 1364h75q5 -62 45.5 -103.5t114.5 -41.5q72 0 115.5 41t46.5 104h76q0 -101 -65.5 -163t-172.5 -62q-116 0 -175.5 65.5t-59.5 159.5z" />
    <glyph glyph-name="dotaccent" unicode="&#x2d9;" horiz-adv-x="980" 
d="M410 1288q0 33 23 54.5t56 21.5q36 0 59 -21.5t23 -54.5q0 -32 -23.5 -53t-58.5 -21q-33 0 -56 21t-23 53z" />
    <glyph glyph-name="ring" unicode="&#x2da;" horiz-adv-x="1017" 
d="M328 1319q0 76 52 130t126 54q78 0 131 -53.5t53 -130.5q0 -75 -53 -127.5t-131 -52.5q-74 0 -126 52.5t-52 127.5zM403 1319q0 -43 30.5 -72.5t74.5 -29.5t75 29.5t31 72.5q0 45 -30.5 75.5t-75.5 30.5q-44 0 -74.5 -30.5t-30.5 -75.5z" />
    <glyph glyph-name="ogonek" unicode="&#x2db;" horiz-adv-x="1036" 
d="M348 -135l66 164h86l-76 -197q-12 -27 -12 -49q0 -32 18.5 -58.5t50.5 -39.5q41 -17 83 0t61 57q12 28 12 59h82q0 -37 -17 -86q-34 -76 -106 -106.5t-145 0.5q-77 31 -106.5 104.5t3.5 151.5z" />
    <glyph glyph-name="tilde" unicode="&#x2dc;" horiz-adv-x="923" 
d="M211 1169q4 85 47.5 131t91.5 46h19q32 0 67 -21.5l67 -43t56 -21.5q27 0 50 21t24 67h80q-4 -85 -47 -129.5t-93 -44.5q-43 0 -111 44t-97 44q-26 0 -49.5 -23.5t-24.5 -69.5h-80z" />
    <glyph glyph-name="hungarumlaut" unicode="&#x2dd;" horiz-adv-x="829" 
d="M164 1116l151 266h107l-164 -266h-94zM397 1116l154 266h115l-179 -266h-90z" />
    <glyph glyph-name="Wgrave" unicode="&#x1e80;" horiz-adv-x="1880" 
d="M59 1411h97l428 -1274l311 1065h90l309 -1065l428 1274h99l-480 -1411h-98l-303 1038l-305 -1038h-96zM674 1792h112l156 -266h-92z" />
    <glyph glyph-name="wgrave" unicode="&#x1e81;" horiz-adv-x="1673" 
d="M59 956h101l309 -815l305 815h121l309 -813l305 813h99l-359 -956h-86l-329 854l-320 -854h-86zM602 1382h113l155 -266h-92z" />
    <glyph glyph-name="Wacute" unicode="&#x1e82;" horiz-adv-x="1880" 
d="M59 1411h97l428 -1274l311 1065h90l309 -1065l428 1274h99l-480 -1411h-98l-303 1038l-305 -1038h-96zM930 1526l153 266h115l-178 -266h-90z" />
    <glyph glyph-name="wacute" unicode="&#x1e83;" horiz-adv-x="1673" 
d="M59 956h101l309 -815l305 815h121l309 -813l305 813h99l-359 -956h-86l-329 854l-320 -854h-86zM801 1116l153 266h115l-178 -266h-90z" />
    <glyph glyph-name="Wdieresis" unicode="&#x1e84;" horiz-adv-x="1880" 
d="M59 1411h97l428 -1274l311 1065h90l309 -1065l428 1274h99l-480 -1411h-98l-303 1038l-305 -1038h-96zM692 1698q0 33 23.5 54.5t56.5 21.5q36 0 59 -21.5t23 -54.5q0 -32 -23.5 -53t-58.5 -21q-33 0 -56.5 21t-23.5 53zM1026 1698q0 33 23.5 54.5t56.5 21.5
q36 0 59 -21.5t23 -54.5q0 -32 -23.5 -53t-58.5 -21q-33 0 -56.5 21t-23.5 53z" />
    <glyph glyph-name="wdieresis" unicode="&#x1e85;" horiz-adv-x="1673" 
d="M59 956h101l309 -815l305 815h121l309 -813l305 813h99l-359 -956h-86l-329 854l-320 -854h-86zM586 1288q0 33 23.5 54.5t56.5 21.5q36 0 59 -21.5t23 -54.5q0 -32 -23.5 -53t-58.5 -21q-33 0 -56.5 21t-23.5 53zM920 1288q0 33 23 54.5t56 21.5q36 0 59 -21.5t23 -54.5
q0 -32 -23.5 -53t-58.5 -21q-33 0 -56 21t-23 53z" />
    <glyph glyph-name="Ygrave" unicode="&#x1ef2;" horiz-adv-x="1232" 
d="M41 1411h111l464 -647l469 647h111l-532 -743v-668h-95v668zM418 1792h112l156 -266h-92z" />
    <glyph glyph-name="ygrave" unicode="&#x1ef3;" horiz-adv-x="1024" 
d="M57 956h99l356 -843l358 843h101l-609 -1419h-92l191 459zM344 1382h113l155 -266h-92z" />
    <glyph glyph-name="uni2009" unicode="&#x2009;" horiz-adv-x="28" 
 />
    <glyph glyph-name="endash" unicode="&#x2013;" horiz-adv-x="1198" 
d="M145 418v86h908v-86h-908z" />
    <glyph glyph-name="emdash" unicode="&#x2014;" horiz-adv-x="1622" 
d="M145 418v86h1332v-86h-1332z" />
    <glyph glyph-name="quoteleft" unicode="&#x2018;" horiz-adv-x="454" 
d="M143 1008q5 250 150 422l29.5 -11.5l29.5 -11.5q-121 -168 -116 -399h-93z" />
    <glyph glyph-name="quoteright" unicode="&#x2019;" horiz-adv-x="456" 
d="M125 1014q122 169 117 397h92q-5 -252 -150 -420q-9 3 -59 23z" />
    <glyph glyph-name="quotesinglbase" unicode="&#x201a;" horiz-adv-x="442" 
d="M70 -137q121 167 118 397h93q-5 -252 -150 -420q-6 2 -30.5 11.5t-30.5 11.5z" />
    <glyph glyph-name="quotedblleft" unicode="&#x201c;" horiz-adv-x="665" 
d="M143 1008q5 254 150 422l29.5 -11.5l29.5 -11.5q-121 -168 -116 -399h-93zM354 1008q5 250 150 422q9 -3 59 -23q-122 -169 -117 -399h-92z" />
    <glyph glyph-name="quotedblright" unicode="&#x201d;" horiz-adv-x="665" 
d="M123 1012q122 169 117 399h92q-5 -250 -150 -422q-9 3 -59 23zM334 1012q122 169 117 399h92q-5 -254 -150 -422l-29.5 11.5z" />
    <glyph glyph-name="quotedblbase" unicode="&#x201e;" horiz-adv-x="653" 
d="M70 -137q121 168 116 397h93q-5 -252 -150 -420q-9 3 -59 23zM281 -137q121 168 116 397h92q-5 -257 -149 -420l-29.5 11.5z" />
    <glyph glyph-name="dagger" unicode="&#x2020;" horiz-adv-x="823" 
d="M96 915v95h269v401h92v-401h270v-95h-270v-1185h-92v1185h-269z" />
    <glyph glyph-name="daggerdbl" unicode="&#x2021;" horiz-adv-x="876" 
d="M123 186v93h268v636h-268v95h268v401h92v-401h271v-95h-271v-636h271v-93h-271v-456h-92v456h-268z" />
    <glyph glyph-name="bullet" unicode="&#x2022;" horiz-adv-x="892" 
d="M184 483q0 105 76.5 176.5t185.5 71.5q108 0 185.5 -71.5t77.5 -176.5q0 -106 -77 -178t-186 -72q-110 0 -186 72t-76 178z" />
    <glyph glyph-name="ellipsis" unicode="&#x2026;" horiz-adv-x="1347" 
d="M154 57q0 35 24.5 57.5t59.5 22.5q36 0 61 -22.5t25 -57.5q0 -33 -25 -55t-61 -22q-34 0 -59 22t-25 55zM590 57q0 35 24 57.5t60 22.5t61 -22.5t25 -57.5q0 -33 -25 -55t-61 -22t-60 22t-24 55zM1026 57q0 35 24 57.5t60 22.5t60 -22.5t24 -57.5q0 -33 -24 -55t-60 -22
t-60 22t-24 55z" />
    <glyph glyph-name="perthousand" unicode="&#x2030;" horiz-adv-x="1964" 
d="M84 1130q0 103 71 175.5t175 72.5q103 0 175.5 -72.5t72.5 -175.5q0 -104 -72.5 -174.5t-175.5 -70.5q-104 0 -175 70.5t-71 174.5zM176 1130q0 -66 44 -109.5t110 -43.5q65 0 110 44t45 109t-45.5 110.5t-109.5 45.5q-65 0 -109.5 -45.5t-44.5 -110.5zM313 0l668 1368
h78l-666 -1368h-80zM809 231q0 103 71 175.5t175 72.5q103 0 175.5 -72.5t72.5 -175.5q0 -104 -72.5 -174.5t-175.5 -70.5q-104 0 -175 70.5t-71 174.5zM901 231q0 -66 44 -109.5t110 -43.5q65 0 110 44t45 109t-45.5 110.5t-109.5 45.5q-65 0 -109.5 -45.5t-44.5 -110.5z
M1395 231q0 103 70.5 175.5t174.5 72.5q103 0 175.5 -72.5t72.5 -175.5q0 -104 -72.5 -174.5t-175.5 -70.5q-104 0 -174.5 70.5t-70.5 174.5zM1487 231q0 -66 43.5 -109.5t109.5 -43.5q65 0 110.5 44t45.5 109t-46 110.5t-110 45.5q-65 0 -109 -45.5t-44 -110.5z" />
    <glyph glyph-name="guilsinglleft" unicode="&#x2039;" horiz-adv-x="608" 
d="M109 475l282 424h103l-283 -424l283 -424h-103z" />
    <glyph glyph-name="guilsinglright" unicode="&#x203a;" horiz-adv-x="608" 
d="M115 51l282 424l-282 424h102l283 -424l-283 -424h-102z" />
    <glyph glyph-name="fraction" unicode="&#x2044;" horiz-adv-x="368" 
d="M-330 -20l918 1398h100l-917 -1398h-101z" />
    <glyph glyph-name="uni2070" unicode="&#x2070;" horiz-adv-x="735" 
d="M90 1374q0 92 13 162.5t43.5 129.5t87 90.5t137.5 31.5q79 0 134.5 -31.5t85 -90.5t42 -129.5t12.5 -162.5t-12.5 -162t-42 -129t-85 -90.5t-134.5 -31.5q-81 0 -137.5 31.5t-87 90t-43.5 129t-13 162.5zM172 1374q0 -58 5.5 -105.5t19 -90.5t36 -72.5t57.5 -46.5t81 -17
q56 0 94.5 25t59.5 72.5t29.5 104t8.5 130.5t-8.5 130.5t-29.5 104t-59.5 72.5t-94.5 25q-46 0 -81 -17t-57.5 -46.5t-36 -72.5t-19 -90.5t-5.5 -105.5z" />
    <glyph glyph-name="uni2074" unicode="&#x2074;" horiz-adv-x="727" 
d="M39 1137l444 639h60v-564h123v-75h-123v-172h-80v172h-424zM182 1212h281v410z" />
    <glyph glyph-name="uni2075" unicode="&#x2075;" horiz-adv-x="700" 
d="M68 1124l67 47q26 -59 82 -97t117 -38q96 0 153.5 53t57.5 130q0 81 -56.5 126.5t-128.5 45.5q-61 0 -108.5 -13.5t-128.5 -52.5l-23 27l74 424h399v-80h-329l-49 -266q85 43 165 43q110 0 188.5 -67.5t78.5 -186.5t-80 -192t-213 -73q-81 0 -154 47.5t-112 122.5z" />
    <glyph glyph-name="uni2076" unicode="&#x2076;" horiz-adv-x="694" 
d="M94 1227q-6 58 -4 122.5t7 127.5t25 120t50.5 100t83.5 68t123 25q75 -3 130 -35t89 -110l-72 -33q-48 98 -149 98q-77 1 -126 -51t-65 -127.5t-10 -167.5q19 59 73 88t120 27q106 -3 177 -83t66 -190q-5 -108 -81 -181t-183 -69q-107 3 -176 76t-78 195zM176 1225
q0 -77 50.5 -130.5t123.5 -56.5q75 -3 127 47t55 125q3 77 -44.5 130.5t-120.5 56.5q-76 3 -132 -46.5t-59 -125.5z" />
    <glyph glyph-name="uni2077" unicode="&#x2077;" horiz-adv-x="647" 
d="M74 965l403 731h-399v80h536l-444 -811h-96z" />
    <glyph glyph-name="uni2078" unicode="&#x2078;" horiz-adv-x="706" 
d="M80 1212q0 72 38 133t101 93q-35 26 -55 65.5t-19 85.5q0 84 59 141.5t148 57.5q90 0 150.5 -57.5t60.5 -141.5q0 -95 -78 -153q65 -31 103.5 -91.5t38.5 -132.5q0 -108 -79.5 -183t-195.5 -75t-194 75t-78 183zM160 1212q0 -74 55 -126t137 -52q83 0 139 52t56 126
q0 73 -56.5 128t-136.5 55q-81 0 -137.5 -55.5t-56.5 -127.5zM225 1589q0 -54 37.5 -89t95.5 -34q52 0 87.5 36.5t35.5 86.5q0 48 -37 82.5t-92 34.5q-53 0 -90 -34.5t-37 -82.5z" />
    <glyph glyph-name="uni2079" unicode="&#x2079;" horiz-adv-x="694" 
d="M80 1536q5 109 81.5 181.5t184.5 68.5q106 -5 174.5 -77t77.5 -193q6 -58 4 -122.5t-7 -127.5t-25.5 -120t-50.5 -100t-83 -68t-123 -24q-75 2 -131 34t-90 112l72 28q46 -92 153 -96q76 -1 124.5 50.5t65 126.5t11.5 167q-21 -57 -74 -85.5t-118 -26.5q-107 1 -179 82
t-67 190zM162 1532q-3 -77 44 -130t122 -56q74 -3 129.5 46.5t58.5 125.5q0 77 -50.5 130t-123.5 56t-125 -47t-55 -125z" />
    <glyph glyph-name="uni2080" unicode="&#x2080;" horiz-adv-x="735" 
d="M90 45q0 92 13 162.5t43.5 129.5t87 90.5t137.5 31.5q79 0 134.5 -31.5t85 -90.5t42 -129.5t12.5 -162.5t-12.5 -162.5t-42 -129.5t-85 -90.5t-134.5 -31.5q-81 0 -137.5 31.5t-87 90.5t-43.5 129.5t-13 162.5zM172 45q0 -58 5.5 -105.5t19 -90.5t36 -72.5t57.5 -46.5
t81 -17q56 0 94.5 25t59.5 72.5t29.5 104t8.5 130.5t-8.5 130.5t-29.5 104t-59.5 72.5t-94.5 25q-46 0 -81 -17t-57.5 -46.5t-36 -72.5t-19 -90.5t-5.5 -105.5z" />
    <glyph glyph-name="uni2081" unicode="&#x2081;" horiz-adv-x="397" 
d="M57 299v80l219 80v-811h-81v700z" />
    <glyph glyph-name="uni2082" unicode="&#x2082;" horiz-adv-x="655" 
d="M74 276q15 88 83 140.5t160 52.5q105 0 176.5 -65.5t71.5 -167.5q0 -103 -90 -207l-112.5 -133.5l-139.5 -167.5h344v-80h-485v33l334 403q67 77 67 152q0 67 -47.5 109t-118.5 42q-63 0 -110.5 -35.5t-56.5 -95.5z" />
    <glyph glyph-name="uni2083" unicode="&#x2083;" horiz-adv-x="665" 
d="M63 -213q8 4 36.5 21.5t31.5 19.5q48 -101 170 -111q78 -5 135.5 40.5t63.5 115.5q3 71 -49.5 119.5t-124.5 48.5h-84v80h84q53 0 92 33.5t45 85.5q5 60 -32 100.5t-107 46.5q-50 4 -94 -17.5t-68 -60.5q-62 41 -64 43q32 57 95.5 89t136.5 28q106 -7 166 -72.5
t55 -154.5q-3 -50 -32.5 -92.5t-76.5 -65.5q66 -18 106 -85t34 -138q-9 -101 -92 -165.5t-195 -57.5q-161 9 -232 149z" />
    <glyph glyph-name="uni2084" unicode="&#x2084;" horiz-adv-x="724" 
d="M39 -182l444 641h60v-563h123v-78h-123v-170h-80v170h-424zM182 -104h281v409z" />
    <glyph glyph-name="uni2085" unicode="&#x2085;" horiz-adv-x="696" 
d="M66 -195l67 50q27 -59 82.5 -98.5t116.5 -39.5q96 0 153.5 53t57.5 132q0 81 -56.5 126.5t-128.5 45.5q-59 0 -106.5 -14t-130.5 -54l-23 29l74 424h399v-82h-329l-49 -264q91 43 165 43q110 0 188.5 -67.5t78.5 -186.5q0 -120 -80 -193.5t-213 -73.5q-81 0 -154 47.5
t-112 122.5z" />
    <glyph glyph-name="uni2086" unicode="&#x2086;" horiz-adv-x="694" 
d="M94 -90q-3 57 -4 105t3.5 108t15 107.5t32 94.5t52 78t78.5 50t108 18q158 -4 219 -145l-72 -31q-47 95 -149 98q-77 1 -126 -51.5t-65 -128t-10 -166.5q19 58 73.5 87.5t119.5 27.5q106 -3 177 -84t66 -189q-5 -109 -81 -182t-183 -69q-107 5 -176 77t-78 195zM176 -92
q0 -79 50.5 -132.5t123.5 -56.5q74 -3 126.5 48t55.5 127t-44 129.5t-121 56.5q-75 3 -131.5 -47t-59.5 -125z" />
    <glyph glyph-name="uni2087" unicode="&#x2087;" horiz-adv-x="641" 
d="M76 -352l403 729h-399v82h536l-444 -811h-96z" />
    <glyph glyph-name="uni2088" unicode="&#x2088;" horiz-adv-x="706" 
d="M80 -106q0 73 37.5 132.5t101.5 92.5q-35 26 -55 65.5t-19 85.5q0 84 59 141.5t148 57.5q90 0 150.5 -57.5t60.5 -141.5q0 -96 -78 -151q65 -33 103.5 -92.5t38.5 -132.5q0 -108 -79 -182t-196 -74q-116 0 -194 74t-78 182zM160 -106q0 -74 55 -125.5t137 -51.5
q83 0 139 51.5t56 125.5t-56 128t-137 54q-82 0 -138 -54.5t-56 -127.5zM225 270q0 -54 37.5 -88.5t95.5 -34.5q52 0 87.5 36.5t35.5 86.5t-37 84.5t-92 34.5q-54 0 -90.5 -34.5t-36.5 -84.5z" />
    <glyph glyph-name="uni2089" unicode="&#x2089;" horiz-adv-x="692" 
d="M80 217q5 109 81.5 181.5t184.5 68.5q105 -3 174 -75.5t78 -194.5q6 -58 4 -122.5t-7 -127.5t-25.5 -120t-50.5 -100t-83 -68t-123 -24q-161 7 -221 146l72 31q47 -97 153 -97q58 -1 100 27.5t64.5 79t31.5 110.5t5 127q-21 -58 -74 -87t-118 -27q-108 3 -179.5 83.5
t-66.5 188.5zM162 215q-3 -77 44 -131t122 -57q74 -3 129.5 46.5t58.5 125.5q0 78 -50.5 131.5t-123.5 56.5t-125 -47t-55 -125z" />
    <glyph glyph-name="colonmonetary" unicode="&#x20a1;" horiz-adv-x="1390" 
d="M111 702q0 191 83.5 353t233 261t332.5 109l78 209l73 -26l-65 -181q97 -10 170 -34l63 174l76 -27l-65 -178q102 -45 188 -125l-64 -66q-74 65 -155 103l-434 -1174q86 -28 176 -28q238 0 413 164l64 -66q-200 -190 -477 -190q-106 0 -207 32l-80 -215l-74 27l78 217
q-72 31 -149 92l-99 -268l-73 26l110 302q-93 98 -144.5 229.5t-51.5 279.5zM203 702q0 -236 139 -411l383 1038q-227 -29 -374.5 -206.5t-147.5 -420.5zM403 225q71 -62 148 -98l434 1180q-86 25 -172 28z" />
    <glyph glyph-name="lira" unicode="&#x20a4;" horiz-adv-x="1308" 
d="M109 0v92h206v342h-170v84h170v160h-170v82h170v295q0 113 58.5 202.5t151 136t198.5 46.5q158 0 269 -100t118 -263h-92q-7 121 -91.5 195t-203.5 74q-127 0 -221 -81t-94 -210v-295h284v-82h-284v-160h284v-84h-284v-342h628q29 0 48.5 22t19.5 54v102h92v-102
q0 -70 -47 -119t-113 -49h-927z" />
    <glyph glyph-name="uni20A6" unicode="&#x20a6;" horiz-adv-x="1472" 
d="M125 543v78h121v194h-121v78h121v518h104l320 -518h463v518h92v-518h125v-78h-125v-194h125v-78h-125v-543h-101l-338 543h-446v-543h-94v543h-121zM340 621h397l-121 194h-276v-194zM340 893h229l-229 369v-369zM719 815l121 -194h293v194h-414zM889 543l244 -393v393
h-244z" />
    <glyph glyph-name="peseta" unicode="&#x20a7;" horiz-adv-x="1458" 
d="M119 831v80h149v152h-149v80h149v268h549q151 0 242.5 -74t126.5 -194h170v-80h-156q6 -38 6 -74q0 -41 -6 -78h156v-80h-172q-35 -119 -127.5 -190.5t-243.5 -71.5h-451v-569h-94v831h-149zM362 662h445q205 0 276 169h-721v-169zM362 911h744q8 33 8 78q0 11 -1 23.5
t-2.5 27.5t-2.5 23h-746v-152zM362 1143h723q-32 80 -98.5 128t-169.5 48h-455v-176z" />
    <glyph glyph-name="uni20A8" unicode="&#x20a8;" horiz-adv-x="1376" 
d="M160 569v93h422q56 0 102 6q133 13 196.5 102.5t63.5 218.5q0 23 -2 35h-782v76h770q-24 98 -93.5 158.5t-185.5 60.5h-491v92h579h535v-76h-383q104 -75 135 -235h248v-76h-240q2 -14 2 -35q0 -62 -11.5 -117.5t-37 -107.5t-64.5 -91t-97 -65t-130 -33l-75 -4l401 -571
h-113l-403 569h-346z" />
    <glyph glyph-name="uni20A9" unicode="&#x20a9;" horiz-adv-x="1994" 
d="M115 1411h96l188 -565h447l104 356h90l103 -356h444l191 565h98l-193 -565h164v-82h-190l-82 -238h272v-84h-301l-149 -442h-99l-129 442h-350l-129 -442h-96l-152 442h-295v84h267l-80 238h-187v82h158zM428 764l80 -238h244l69 238h-393zM537 442l102 -305l88 305h-190
zM844 526h301l-70 238h-162zM938 846h113l-56 192zM1167 764l68 -238h246l80 238h-394zM1260 442l90 -305l102 305h-192z" />
    <glyph glyph-name="afii57636" unicode="&#x20aa;" horiz-adv-x="1511" 
d="M213 0v1102h342q188 0 305 -118t117 -292v-319h-92v319q0 135 -91 226.5t-239 91.5h-250v-1010h-92zM535 410v319h92v-319q0 -135 90.5 -226.5t236.5 -91.5h252v1010h92v-1102h-344q-187 0 -303 118t-116 292z" />
    <glyph glyph-name="Euro" unicode="&#x20ac;" horiz-adv-x="1617" 
d="M111 561v74h931v-74h-628q43 -214 204 -351.5t379 -137.5q239 0 414 164l64 -66q-95 -91 -218 -140.5t-260 -49.5q-256 0 -444 163.5t-234 417.5h-208zM111 770v74h208q46 254 234 418.5t444 164.5q136 0 259 -50t219 -140l-64 -66q-179 164 -414 164q-218 0 -379 -138
t-204 -353h628v-74h-931z" />
    <glyph glyph-name="afii61289" unicode="&#x2113;" horiz-adv-x="774" 
d="M164 309v856q0 308 258 308q131 0 190.5 -84t59.5 -224v-405q0 -141 -59.5 -225t-190.5 -84h-164v-142q0 -102 36.5 -159.5t127.5 -57.5h190v-92h-190q-73 0 -124.5 23t-80 66.5t-41 97t-12.5 122.5zM258 545h164q83 0 120.5 58.5t37.5 156.5v405q0 215 -158 215
q-92 0 -128 -56.5t-36 -158.5v-620z" />
    <glyph glyph-name="afii61352" unicode="&#x2116;" horiz-adv-x="1955" 
d="M213 0v1411h104l783 -1261v1261h92v-1411h-100l-787 1262v-1262h-92zM1391 1188q0 96 66.5 162.5t162.5 66.5q97 0 163 -66t66 -163q0 -96 -66.5 -163t-162.5 -67q-95 0 -162 67.5t-67 162.5zM1401 805v67h440v-67h-440zM1464 1188q0 -64 46 -110t110 -46t110 46t46 110
t-45.5 109.5t-110.5 45.5t-110.5 -45.5t-45.5 -109.5z" />
    <glyph glyph-name="trademark" unicode="&#x2122;" horiz-adv-x="1734" 
d="M135 1331v80h668l307 -620l309 620h64l96 -786h-78l-78 637l-278 -570h-66l-282 568l-76 -635h-80l88 706h-266v-706h-80v706h-248z" />
    <glyph glyph-name="estimated" unicode="&#x212e;" horiz-adv-x="1370" 
d="M139 573q0 164 66.5 298t196.5 215t300 81q127 0 233.5 -48t177.5 -129.5t110 -189.5t39 -229h-879v-395q135 -129 311 -129q67 0 124.5 14.5t99.5 36.5t81 58t66.5 70t58.5 81l64 -39q-43 -67 -87 -115.5t-103 -89.5t-135 -62t-169 -21q-122 0 -227 47.5t-176.5 128
t-111.5 189t-40 228.5zM383 639h633v334q-59 54 -144 90.5t-170 36.5q-195 0 -319 -127v-334z" />
    <glyph glyph-name="minus" unicode="&#x2212;" horiz-adv-x="1179" 
d="M162 494v90h856v-90h-856z" />
    <glyph glyph-name="notequal" unicode="&#x2260;" horiz-adv-x="1234" 
d="M154 248v90h290l226 340h-516v90h571l139 219h97l-142 -219h258v-90h-311l-225 -340h536v-90h-592l-147 -230h-94l147 230h-237z" />
    <glyph glyph-name="lessequal" unicode="&#x2264;" horiz-adv-x="1384" 
d="M156 0v90h1040v-90h-1040zM156 623v104l1042 399v-100l-934 -352l934 -352v-99z" />
    <glyph glyph-name="greaterequal" unicode="&#x2265;" horiz-adv-x="1384" 
d="M186 223v99l934 352l-934 352v100l1043 -399v-104zM188 0v90h1041v-90h-1041z" />
    <glyph glyph-name="uniE000" unicode="&#xe000;" horiz-adv-x="952" 
d="M0 0v952h952v-952h-952z" />
    <glyph glyph-name="uniF6C3" unicode="&#xf6c3;" horiz-adv-x="512" 
d="M143 -457q125 145 119 320h105q-12 -221 -150 -330q-23 2 -74 10z" />
    <glyph glyph-name="uniF6DD" unicode="&#xf6dd;" horiz-adv-x="2355" 
d="M160 0v1411h520q101 0 178 -35.5t121.5 -96.5t66 -134t21.5 -156q0 -84 -21.5 -157t-66.5 -133t-123 -95t-182 -35h-27l404 -569h-113l-403 569h-281v-569h-94zM254 662h416q81 0 141.5 27t95 74t51.5 103.5t17 122.5q0 65 -16.5 122t-50.5 104.5t-92.5 75.5t-135.5 28
h-426v-657zM1288 -463v1419h94v-206q58 104 168 165.5t238 61.5q135 0 247.5 -64.5t179 -180t66.5 -257.5q0 -140 -66.5 -254.5t-179 -177.5t-247.5 -63q-128 0 -238 59.5t-168 163.5v-666h-94zM1382 485q0 -178 118.5 -294.5t287.5 -116.5q167 0 283 114.5t116 286.5
q0 171 -116.5 289.5t-282.5 118.5q-167 0 -285 -112t-121 -286z" />
    <glyph glyph-name="uniF8FF" unicode="&#xf8ff;" horiz-adv-x="1734" 
d="M164 0v1407h1407v-1407h-1407zM336 162h18v76l27 -76h20l23 76v-76h18v108h-28l-19 -73l-28 73h-31v-108zM336 446h166l-152 154v365l522 -519l525 519v-365l-152 -154h172v773l-545 -539l-536 539v-773zM457 215q0 -22 13 -37.5t38 -15.5q22 0 34.5 15.5t12.5 37.5
q0 23 -12.5 39t-34.5 16q-25 0 -38 -16t-13 -39zM473 215q0 12 10.5 23.5t24.5 11.5q12 0 18 -11t6 -24q0 -12 -6 -22.5t-18 -10.5q-14 0 -24.5 11.5t-10.5 21.5zM555 203q0 -20 12.5 -30.5t32.5 -10.5q45 0 45 35q0 22 -31 28q-21 3 -26.5 5t-5.5 8q0 12 18 12q21 0 21 -12
h18q0 32 -39 32q-15 0 -27 -9t-12 -23q0 -11 8 -17t25 -14q27 0 27 -10t-4.5 -12.5t-16.5 -2.5q-18 0 -18 21h-27zM645 250h35v-88h16v88h31v20h-82v-20zM709 162h24l8 26h45l7 -26h22h19v45h26q8 0 13.5 -6t5.5 -13v-26h26q-6 6 -6 26q0 19 -14 27q10 4 12 8.5t2 14.5
q0 32 -27 32h-57v-108l-43 108h-18zM748 207l12 37h6l14 -37h-32zM834 221v29h26q19 0 19 -12q0 -17 -19 -17h-26zM913 162h41q24 0 38 16.5t14 42.5q0 22 -14 35.5t-38 13.5h-41v-108zM938 182v68h8q21 0 28 -8t7 -27q0 -13 -9 -23t-18 -10h-16zM1012 162h82v20h-58v25h51
v18h-51v25h51v20h-75v-108zM1094 203q0 -41 45 -41q19 0 32 10t13 25q0 21 -31 28q-23 3 -29 5t-6 8q0 12 15 12q24 0 24 -12h21q0 32 -39 32q-16 0 -30.5 -9t-14.5 -23q0 -11 9.5 -17t29.5 -14q24 0 24 -10q0 -15 -18 -15q-10 0 -18.5 5.5t-8.5 15.5h-18zM1192 162h14v108
h-14v-108zM1221 215q0 -22 13.5 -37.5t37.5 -15.5q18 0 24 14l9 -14h12v59h-45v-18h24q-9 -21 -24 -21q-14 0 -23.5 11.5t-9.5 21.5q0 12 9.5 23.5t23.5 11.5q6 0 12 -6t6 -15h27q-4 20 -17 30.5t-28 10.5q-24 0 -37.5 -16t-13.5 -39zM1329 162h17v67l45 -67h26v108h-26v-67
l-45 67h-17v-108z" />
    <glyph glyph-name="published" horiz-adv-x="1677" 
d="M123 702q0 147 56 281t151.5 231.5t228 155t279.5 57.5q196 0 361 -97.5t260 -264t95 -363.5q0 -147 -56 -280.5t-151.5 -230.5t-228.5 -154t-280 -57t-279.5 57t-228 154t-151.5 230.5t-56 280.5zM207 702q0 -173 83.5 -320t229 -233t318.5 -86t318.5 86t229.5 233
t84 320t-84 320.5t-229.5 234t-318.5 86.5t-318.5 -86.5t-229 -233.5t-83.5 -321zM666 362v652h256q96 0 142 -58.5t46 -144.5q0 -85 -46.5 -143t-143.5 -58h-175v-248h-79zM745 688h173q59 0 85.5 35t26.5 88q0 52 -26 87.5t-82 35.5h-177v-246z" />
    <glyph glyph-name="frenchfranc" horiz-adv-x="1445" 
d="M213 0v1411h770v-92h-678v-506h596v-217q64 238 313 238q83 0 144 -25l-19 -90q-62 22 -125 22q-67 0 -119.5 -21.5t-86 -63t-55.5 -89.5t-33 -112.5t-15 -120.5t-4 -125v-209h-94v721h-502v-721h-92z" />
    <glyph glyph-name="parenleft.case" horiz-adv-x="706" 
d="M115 705q0 440 139 690.5t373 261.5v-92q-192 -9 -306 -235.5t-114 -624.5q0 -396 114 -623.5t306 -235.5v-94q-234 11 -373 263t-139 690z" />
    <glyph glyph-name="parenright.case" horiz-adv-x="706" 
d="M80 -154q192 8 306 235.5t114 623.5q0 398 -114 624.5t-306 235.5v92q234 -11 373 -261.5t139 -690.5q0 -438 -139 -690t-373 -263v94z" />
    <glyph glyph-name="hyphen.case" horiz-adv-x="980" 
d="M154 655v88h673v-88h-673z" />
    <glyph glyph-name="at.case" horiz-adv-x="2043" 
d="M111 711q0 150 44.5 289.5t127 252.5t193 197.5t249 131t287.5 46.5q188 0 361 -67t301.5 -182t205 -279.5t76.5 -349.5q0 -77 -11.5 -154t-39.5 -155.5t-69.5 -138t-107.5 -97t-147 -37.5q-55 0 -102 13.5t-87 43.5t-62.5 85t-22.5 130v283q1 131 -92 223t-224 92
t-223 -91.5t-92 -223.5q0 -131 92 -223t223 -92q52 0 105.5 19t91.5 52v-98q-96 -62 -197 -62q-166 0 -284.5 119t-118.5 285q0 168 118.5 285.5t284.5 117.5q164 0 282.5 -115t121.5 -280v-295q0 -98 52.5 -139t133.5 -41q78 0 137 48t90 125.5t45.5 158t14.5 162.5
q0 134 -44.5 257t-124.5 219t-186 167t-235 109t-266 38q-224 0 -411.5 -111.5t-294.5 -302t-107 -415.5q0 -178 68 -334.5t184 -265.5t277 -169t339 -53v-88h-57q-249 0 -455.5 121t-325 330t-118.5 459z" />
    <glyph glyph-name="bracketleft.case" horiz-adv-x="579" 
d="M190 -231v1873h299v-94h-204v-1685h204v-94h-299z" />
    <glyph glyph-name="bracketright.case" horiz-adv-x="579" 
d="M90 -137h205v1685h-205v94h299v-1873h-299v94z" />
    <glyph glyph-name="braceleft.case" horiz-adv-x="763" 
d="M88 672v80q57 9 96 56.5t39 106.5v361q-1 170 111 276.5t274 106.5h72v-88h-72q-122 0 -208 -82.5t-85 -212.5v-361q0 -63 -31.5 -120t-84.5 -86q51 -28 83.5 -85.5t32.5 -117.5v-354q0 -131 85 -213t208 -82h72v-88h-72q-162 0 -273.5 106t-111.5 277v354
q0 60 -39 108.5t-96 57.5z" />
    <glyph glyph-name="braceright.case" horiz-adv-x="763" 
d="M84 -143h72q124 0 208.5 82t84.5 213v354q0 60 32.5 117.5t83.5 85.5q-53 29 -84.5 86t-31.5 120v361q1 140 -90.5 217.5t-225.5 77.5h-49v88h72q99 0 183.5 -42t138.5 -121.5t61 -182.5q2 -25 2 -80v-318q0 -59 39 -106.5t96 -56.5v-80q-57 -9 -96 -57.5t-39 -108.5
v-354q0 -171 -111.5 -277t-273.5 -106h-72v88z" />
    <glyph glyph-name="exclamdown.case" horiz-adv-x="495" 
d="M164 1346q0 33 25 56t59 23q36 0 61 -23t25 -56t-25 -55.5t-61 -22.5q-34 0 -59 22.5t-25 55.5zM203 0l4 1067h82l6 -1067h-92z" />
    <glyph glyph-name="guillemotleft.case" horiz-adv-x="923" 
d="M129 707l283 423h102l-283 -423l285 -424h-104zM393 707l283 423h102l-282 -423l282 -424h-102z" />
    <glyph glyph-name="periodcentered.case" horiz-adv-x="477" 
d="M154 735q0 35 24.5 57.5t59.5 22.5q36 0 61 -22.5t25 -57.5q0 -33 -25 -55.5t-61 -22.5q-34 0 -59 22.5t-25 55.5z" />
    <glyph glyph-name="guillemotright.case" horiz-adv-x="923" 
d="M145 283l283 424l-283 423h103l282 -423l-282 -424h-103zM408 283l284 424l-282 423h102l283 -423l-283 -424h-104z" />
    <glyph glyph-name="questiondown.case" horiz-adv-x="983" 
d="M90 369q0 137 81.5 236.5t203.5 135.5q51 15 82 29t61 38t43.5 60.5t13.5 89.5v107h93v-107q0 -72 -18.5 -124t-57.5 -86t-81.5 -54.5t-107.5 -40.5q-95 -29 -157 -104.5t-62 -179.5q0 -129 93.5 -211t220.5 -82q120 0 204.5 74.5t90.5 197.5l92 -4q-7 -163 -118 -261.5
t-269 -98.5q-166 0 -287 107t-121 278zM537 1343q0 34 25.5 57t60.5 23q34 0 59 -23.5t25 -56.5t-25 -55t-59 -22q-36 0 -61 22t-25 55z" />
    <glyph glyph-name="endash.case" horiz-adv-x="1202" 
d="M147 649v86h908v-86h-908z" />
    <glyph glyph-name="emdash.case" horiz-adv-x="1626" 
d="M147 649v86h1332v-86h-1332z" />
    <glyph glyph-name="bullet.case" horiz-adv-x="888" 
d="M182 715q0 105 76.5 176.5t185.5 71.5q108 0 185.5 -71.5t77.5 -176.5q0 -106 -77 -178t-186 -72q-110 0 -186 72t-76 178z" />
    <glyph glyph-name="guilsinglleft.case" horiz-adv-x="659" 
d="M129 707l283 423h102l-283 -423l283 -424h-102z" />
    <glyph glyph-name="guilsinglright.case" horiz-adv-x="659" 
d="M145 283l283 424l-283 423h103l282 -423l-282 -424h-103z" />
    <glyph glyph-name="cent.case" horiz-adv-x="1071" 
d="M113 711q0 202 122 335.5t310 155.5v211h78v-207q175 -6 313 -112l-59 -70q-118 90 -267 90q-170 0 -287.5 -111.5t-117.5 -291.5q0 -182 117.5 -296t287.5 -114q152 0 267 92l61 -69q-130 -109 -315 -115v-211h-78v215q-188 22 -310 157.5t-122 340.5z" />
    <glyph glyph-name="zero.tnum" horiz-adv-x="1187" 
d="M121 678q0 123 12.5 222.5t45.5 191t85.5 153t136 97.5t193.5 36t193 -36t135 -97.5t84 -153t44.5 -190.5t12.5 -223q0 -122 -12.5 -221t-44.5 -190.5t-84 -152.5t-135 -97.5t-193 -36.5t-193.5 36.5t-136 98t-85.5 152.5t-45.5 190t-12.5 221zM215 678q0 -106 10.5 -192
t36.5 -164.5t68 -131.5t109 -84.5t155 -31.5t154.5 31.5t108 84.5t67 132t35.5 164.5t10 191.5q0 107 -10 193t-35.5 165t-67 132t-108 84.5t-154.5 31.5t-155 -31.5t-109 -84.5t-68 -132t-36.5 -165.5t-10.5 -192.5z" />
    <glyph glyph-name="one.tnum" horiz-adv-x="1187" 
d="M365 1163v88l331 123v-1374h-94v1247z" />
    <glyph glyph-name="two.tnum" horiz-adv-x="1187" 
d="M184 1087q29 133 138.5 212t259.5 79q171 0 284 -106t113 -273q0 -174 -148 -346l-475 -561h631v-92h-797v33l574 684q123 147 123 282q0 127 -87 207t-218 80q-116 0 -202.5 -60t-109.5 -161z" />
    <glyph glyph-name="three.tnum" horiz-adv-x="1187" 
d="M145 233l84 37q39 -84 124 -137t184 -59q151 -8 262.5 76.5t124.5 218.5q3 140 -89.5 227.5t-222.5 87.5h-135v90h135q94 -2 171.5 64.5t84.5 165.5q9 113 -64.5 192.5t-211.5 89.5q-90 7 -175.5 -35t-125.5 -110l-76 45q54 95 157.5 147t225.5 45q188 -13 283.5 -122.5
t81.5 -262.5q-8 -83 -59.5 -154t-133.5 -106q75 -18 135 -78.5t89.5 -140.5t23.5 -158q-15 -168 -159 -278t-329 -96q-130 9 -234.5 78t-150.5 173z" />
    <glyph glyph-name="four.tnum" horiz-adv-x="1187" 
d="M74 295l737 1065h68v-977h213v-88h-213v-295h-93v295h-712zM242 383h544v795z" />
    <glyph glyph-name="five.tnum" horiz-adv-x="1187" 
d="M133 250q8 6 40 26.5t40 26.5q47 -96 150 -160.5t210 -64.5q176 0 277.5 96.5t101.5 243.5q0 62 -20 115.5t-54 91.5t-78.5 65t-92.5 40t-97 13q-102 0 -182 -22t-201 -82l-37 49l119 672h645v-92h-565l-94 -514q93 43 164.5 63.5t150.5 20.5q83 0 160 -28t139.5 -79.5
t100 -133t37.5 -179.5q0 -194 -128 -315t-346 -121q-131 0 -254.5 76t-185.5 192z" />
    <glyph glyph-name="six.tnum" horiz-adv-x="1187" 
d="M184 426q-6 96 -7.5 177t5 183t23 182t51.5 160t85 133t128.5 85.5t177.5 31.5q254 -4 357 -233l-84 -35q-78 173 -275 176q-71 1 -128.5 -21t-96.5 -58.5t-67.5 -91.5t-44.5 -111t-25 -126.5t-11.5 -129.5t-1.5 -127q37 111 140.5 166.5t222.5 52.5q118 -5 211.5 -66.5
t143.5 -162.5t46 -220q-8 -181 -132.5 -299t-303.5 -112q-174 6 -286.5 126.5t-127.5 319.5zM276 424q-1 -148 93 -246.5t233 -103.5q139 -4 236.5 88t103.5 233q6 143 -83.5 244.5t-227.5 105.5q-93 3 -173.5 -37.5t-129.5 -115.5t-52 -168z" />
    <glyph glyph-name="seven.tnum" horiz-adv-x="1187" 
d="M197 1268v92h870l-750 -1360h-106l700 1268h-714z" />
    <glyph glyph-name="eight.tnum" horiz-adv-x="1187" 
d="M141 406q0 127 72 231t193 154q-70 40 -110 110.5t-40 155.5q0 135 96 228t240 93q146 0 245 -93.5t99 -227.5q0 -85 -43.5 -156t-116.5 -113q121 -48 194.5 -151.5t73.5 -230.5q0 -179 -130.5 -302.5t-321.5 -123.5q-192 0 -321.5 123.5t-129.5 302.5zM233 406
q0 -140 103 -237t256 -97t256.5 97t103.5 237q0 135 -102.5 233.5t-251.5 101.5h-23q-145 -4 -243.5 -102t-98.5 -233zM348 1057q0 -94 66.5 -161.5t165.5 -70.5h20q103 3 172.5 70.5t69.5 161.5q0 96 -72.5 162.5t-177.5 66.5q-104 0 -174 -66.5t-70 -162.5z" />
    <glyph glyph-name="nine.tnum" horiz-adv-x="1187" 
d="M152 967q9 179 134 297t304 114q173 -6 286 -127t128 -319q5 -73 6.5 -136.5t-0.5 -142t-9 -144.5t-23 -137t-39.5 -127t-60.5 -107.5t-84 -85.5t-112 -53.5t-143 -18.5q-259 4 -359 231l82 37q78 -172 281 -176q71 -1 128 21t95.5 57.5t67 90t44 110t24.5 125
t11.5 128.5t1.5 127q-24 -70 -83.5 -121t-131 -73t-145.5 -19q-178 6 -293 136t-110 313zM244 961q-5 -143 84.5 -245t228.5 -106q92 -3 172 37.5t129.5 116.5t52.5 170q1 147 -93 246t-232 104q-140 5 -238 -88t-104 -235z" />
    <glyph glyph-name="zero.taboldstyle" horiz-adv-x="1187" 
d="M94 514q0 119 40.5 220t109 168t158.5 104.5t190 37.5q101 0 192 -37.5t160 -104.5t109.5 -168t40.5 -220q0 -118 -40.5 -220t-109 -170.5t-160 -107.5t-192.5 -39q-99 0 -190 39t-159 107.5t-108.5 170.5t-40.5 220zM186 514q0 -98 33 -181.5t88.5 -140t129.5 -88.5
t155 -32q171 0 290 123t119 319q0 98 -33 181t-88.5 139t-130 87t-157.5 31q-168 0 -287 -121.5t-119 -316.5z" />
    <glyph glyph-name="one.taboldstyle" horiz-adv-x="1187" 
d="M324 774v92l434 176v-1042h-92v905z" />
    <glyph glyph-name="two.taboldstyle" horiz-adv-x="1187" 
d="M236 0v51l497 529q98 98 98 190q0 86 -68.5 142.5t-174.5 56.5q-95 0 -164 -43.5t-82 -116.5l-88 18q18 107 113 170.5t223 63.5q147 0 242.5 -81.5t95.5 -209.5q0 -134 -125 -256l-404 -422h535v-92h-698z" />
    <glyph glyph-name="six.taboldstyle" horiz-adv-x="1187" 
d="M184 426q-6 96 -7.5 177t5 183t23.5 182t51.5 160t85 133t129 85.5t178.5 31.5q119 -2 209.5 -55t145.5 -178l-82 -35q-80 173 -277 176q-71 1 -128.5 -21t-96 -58.5t-67 -91.5t-44 -111t-24.5 -126.5t-11.5 -129t-1.5 -127.5q25 75 85 127t130.5 73t145.5 19
q118 -5 212 -66.5t144.5 -162.5t46.5 -220q-9 -181 -134 -299t-304 -112q-173 6 -286 127t-128 319zM279 424q-1 -148 92.5 -246.5t230.5 -103.5q139 -4 237.5 88t104.5 233q5 143 -84.5 244.5t-228.5 105.5q-141 5 -244.5 -87.5t-107.5 -233.5z" />
    <glyph glyph-name="eight.taboldstyle" horiz-adv-x="1187" 
d="M141 406q0 126 72.5 230.5t192.5 154.5q-70 40 -110 110.5t-40 155.5q0 135 96 228t240 93q146 0 245 -93.5t99 -227.5q0 -85 -43.5 -156t-116.5 -113q121 -48 196 -152t75 -230q0 -179 -131.5 -302.5t-323.5 -123.5q-191 0 -321 123.5t-130 302.5zM233 406
q0 -140 103 -237t256 -97t256.5 97t103.5 237q0 135 -102.5 233.5t-251.5 101.5h-23q-145 -4 -243.5 -102t-98.5 -233zM348 1057q0 -94 66.5 -161.5t165.5 -70.5h22q102 3 172 70.5t70 161.5q0 96 -72.5 162.5t-179.5 66.5q-104 0 -174 -66.5t-70 -162.5z" />
    <glyph glyph-name="three.taboldstyle" horiz-adv-x="1187" 
d="M150 -174l83 37q39 -85 124 -138t184 -59q151 -8 262.5 76.5t124.5 218.5q3 140 -89.5 227.5t-222.5 87.5h-135v91h135q94 -2 171.5 64.5t84.5 164.5q9 113 -64.5 193t-211.5 90q-89 7 -175 -35t-126 -111l-76 45q55 95 158 147.5t225 45.5q188 -13 283.5 -122.5
t81.5 -262.5q-8 -83 -59.5 -154t-133.5 -106q75 -18 135 -78.5t89.5 -140.5t23.5 -158q-10 -110 -79 -200t-178 -137t-230 -38q-130 9 -234.5 78.5t-150.5 173.5z" />
    <glyph glyph-name="four.taboldstyle" horiz-adv-x="1187" 
d="M72 -113l739 1067h68v-979h213v-88h-213v-293h-93v293h-714zM242 -25h544v795z" />
    <glyph glyph-name="five.taboldstyle" horiz-adv-x="1187" 
d="M135 -156q8 6 40 27t40 27q48 -96 150.5 -161t209.5 -65q176 0 277.5 96.5t101.5 243.5q0 77 -30.5 140.5t-80.5 103t-110 61t-121 21.5q-102 0 -181.5 -22.5t-201.5 -82.5l-36 50l118 671h645v-92h-565l-94 -514q93 43 164.5 63.5t150.5 20.5q83 0 160 -28t139.5 -79.5
t100 -133t37.5 -179.5q0 -194 -128 -315t-346 -121q-130 0 -254 76t-186 192z" />
    <glyph glyph-name="seven.taboldstyle" horiz-adv-x="1187" 
d="M197 862v92h870l-750 -1360h-106l700 1268h-714z" />
    <glyph glyph-name="nine.taboldstyle" horiz-adv-x="1187" 
d="M160 561q9 181 134 299.5t304 112.5q173 -6 286 -127.5t128 -319.5q5 -73 6.5 -136.5t-0.5 -142t-9 -144.5t-23 -137t-39.5 -127t-60.5 -107.5t-84 -85.5t-112 -53.5t-143 -18.5q-258 4 -359 233l82 35q78 -172 281 -176q71 -1 128.5 21t96 58.5t67 91.5t44 111.5
t24.5 127t11.5 129t1.5 127.5q-37 -111 -139.5 -166.5t-221.5 -52.5q-118 5 -211.5 66.5t-144 162t-47.5 219.5zM254 557q-6 -145 83.5 -245t227.5 -105q143 -6 247 86t108 235q1 147 -93.5 246.5t-232.5 104.5q-139 4 -236.5 -88.5t-103.5 -233.5z" />
    <glyph glyph-name="zero.oldstyle" horiz-adv-x="1236" 
d="M119 514q0 119 40.5 220t108.5 168t158 104.5t190 37.5q101 0 192 -37.5t160 -104.5t109.5 -168t40.5 -220q0 -118 -40.5 -220t-109 -170.5t-160 -107.5t-192.5 -39q-99 0 -189.5 39t-158.5 107.5t-108.5 170.5t-40.5 220zM211 514q0 -98 33 -181.5t88.5 -140t129 -88.5
t154.5 -32q83 0 157.5 32t130.5 88.5t89 140t33 181.5t-33 181t-89 139t-130.5 87t-157.5 31q-168 0 -286.5 -121.5t-118.5 -316.5z" />
    <glyph glyph-name="one.oldstyle" horiz-adv-x="712" 
d="M86 774v92l434 176v-1042h-92v905z" />
    <glyph glyph-name="two.oldstyle" horiz-adv-x="940" 
d="M113 0v51l497 529q99 99 99 190q0 86 -69 142.5t-175 56.5q-95 0 -164 -43.5t-82 -116.5l-88 18q18 107 113 170.5t223 63.5q147 0 242.5 -81.5t95.5 -209.5q0 -134 -125 -256l-404 -422h535v-92h-698z" />
    <glyph glyph-name="three.oldstyle" horiz-adv-x="1064" 
d="M88 -174l84 37q39 -85 123.5 -138t183.5 -59q151 -8 262.5 76.5t124.5 218.5q3 140 -89 227.5t-222 87.5h-135v91h135q94 -2 171.5 64.5t84.5 164.5q9 113 -64.5 193t-211.5 90q-89 7 -175.5 -35t-126.5 -111l-75 45q55 95 158 147.5t225 45.5q126 -9 213 -64.5
t123.5 -138.5t27.5 -182q-8 -83 -59 -154t-133 -106q75 -18 135 -78.5t89.5 -140.5t23.5 -158q-10 -110 -79.5 -200t-178.5 -137t-230 -38q-130 9 -234.5 78.5t-150.5 173.5z" />
    <glyph glyph-name="four.oldstyle" horiz-adv-x="1146" 
d="M53 -113l740 1067h67v-979h211v-88h-211v-293h-92v293h-715zM223 -25h545v795z" />
    <glyph glyph-name="five.oldstyle" horiz-adv-x="1103" 
d="M94 -156q8 6 40 27t40 27q47 -96 150.5 -161t210.5 -65q176 0 277 96t101 244q0 77 -30.5 140.5t-80.5 103t-110 61t-121 21.5q-102 0 -181.5 -22.5t-201.5 -82.5l-36 50l118 671h645v-92h-565l-94 -514q93 43 164.5 63.5t150.5 20.5q83 0 160 -28t139.5 -79.5t100 -133
t37.5 -179.5q0 -194 -127.5 -315t-345.5 -121q-130 0 -254.5 76t-186.5 192z" />
    <glyph glyph-name="six.oldstyle" horiz-adv-x="1132" 
d="M158 426q-6 96 -7.5 177t5 183t23.5 182t51.5 160t85 133t129 85.5t178.5 31.5q253 -3 354 -233l-82 -35q-80 173 -277 176q-71 1 -128.5 -21t-96 -58.5t-67 -91t-44.5 -111t-24.5 -126.5t-10.5 -129.5t-1 -127.5q36 111 138.5 166.5t221.5 52.5q118 -5 212 -66.5
t144 -162.5t46 -220q-8 -181 -133 -299t-304 -112q-174 6 -286 126.5t-127 319.5zM250 424q-1 -148 92.5 -246.5t232.5 -103.5q139 -4 236.5 88t103.5 233q6 143 -83.5 244.5t-227.5 105.5q-93 3 -173 -37.5t-129 -115.5t-52 -168z" />
    <glyph glyph-name="seven.oldstyle" horiz-adv-x="983" 
d="M94 862v92h871l-750 -1360h-106l700 1268h-715z" />
    <glyph glyph-name="eight.oldstyle" horiz-adv-x="1148" 
d="M123 406q0 127 72 231t192 154q-70 40 -109.5 110t-39.5 156q0 135 96 228t239 93q146 0 245.5 -93.5t99.5 -227.5q0 -85 -43.5 -156t-116.5 -113q121 -48 194.5 -151.5t73.5 -230.5q0 -179 -131 -302.5t-322 -123.5q-192 0 -321 123t-129 303zM215 406
q0 -140 102.5 -237t255.5 -97t257 97t104 237q0 135 -102.5 233.5t-251.5 101.5h-23q-145 -4 -243.5 -102t-98.5 -233zM330 1057q0 -95 66 -162t165 -70h21q103 3 172 70t69 162q0 96 -72.5 162.5t-177.5 66.5q-104 0 -173.5 -66.5t-69.5 -162.5z" />
    <glyph glyph-name="nine.oldstyle" horiz-adv-x="1087" 
d="M111 561q9 181 134 299.5t304 112.5q172 -6 284.5 -127t129.5 -320q4 -74 6 -137t0 -142t-9.5 -144.5t-23.5 -137t-39.5 -127t-60 -107t-83.5 -85.5t-112 -53.5t-143 -18.5q-258 4 -359 233l82 35q78 -172 281 -176q71 -1 128.5 21t96 58.5t66.5 91.5t44 111t25 127
t11 129.5t1 127.5q-25 -75 -85 -127t-130 -73t-145 -19q-118 5 -212 66.5t-144.5 162t-46.5 219.5zM203 557q-5 -145 84.5 -245.5t228.5 -104.5q141 -6 244.5 86t107.5 235q1 147 -92.5 246.5t-230.5 104.5q-139 4 -237.5 -88.5t-104.5 -233.5z" />
    <glyph glyph-name="Lslash.sc" horiz-adv-x="884" 
d="M80 514v76l131 82v528h88v-473l188 121v-78l-188 -121v-561h522v-88h-610v594z" />
    <glyph glyph-name="Zcaron.sc" horiz-adv-x="987" 
d="M92 0v74l686 1038h-674v88h785v-78l-686 -1034h686v-88h-797zM252 1554h86l151 -170l154 170h88l-182 -229h-117z" />
    <glyph glyph-name="exclam.sc" horiz-adv-x="499" 
d="M176 59q0 31 21.5 52.5t52.5 21.5t52.5 -21.5t21.5 -52.5t-21.5 -52t-52.5 -21t-52.5 21t-21.5 52zM207 1200h86l-6 -903h-74z" />
    <glyph glyph-name="ampersand.sc" horiz-adv-x="1193" 
d="M127 362q0 103 60 196t161 136q-57 39 -89 102.5t-32 131.5q0 118 86 200t211 82q84 0 152 -35.5t108 -97.5l-71 -45q-63 92 -189 92q-90 0 -150.5 -56.5t-60.5 -139.5q0 -86 57.5 -143.5t147.5 -57.5h293v156h86v-158h162v-76h-162v-287q0 -52 4 -91t16.5 -78t33.5 -64
t56.5 -41t84.5 -18v-84q-93 0 -162 48.5t-90 135.5q-38 -87 -131.5 -135.5t-196.5 -48.5q-168 0 -276.5 108t-108.5 268zM213 362q0 -123 84.5 -206.5t214.5 -83.5q129 0 212.5 78.5t86.5 197.5v301h-297q-127 0 -214 -85t-87 -202z" />
    <glyph glyph-name="question.sc" horiz-adv-x="872" 
d="M100 899q6 141 101 227t231 86q91 0 169.5 -39.5t127.5 -116t49 -173.5q0 -118 -69.5 -202.5t-173.5 -115.5q-42 -13 -67.5 -24.5t-50.5 -31.5t-36.5 -50.5t-11.5 -73.5v-88h-86v88q0 62 16 106.5t48.5 74t69 47.5t91.5 34q78 25 130 87.5t52 148.5q0 108 -76.5 174.5
t-181.5 66.5q-101 0 -171.5 -62.5t-74.5 -166.5zM250 59q0 31 21.5 52.5t52.5 21.5t52 -21.5t21 -52.5t-21 -52t-52 -21t-52.5 21t-21.5 52z" />
    <glyph glyph-name="A.sc" horiz-adv-x="1140" 
d="M63 0l461 1200h92l459 -1200h-94l-123 324h-577l-125 -324h-93zM311 403h516l-258 676z" />
    <glyph glyph-name="B.sc" horiz-adv-x="1120" 
d="M199 0v1200h428q142 0 225.5 -77t83.5 -214q0 -93 -36.5 -165.5t-113.5 -102.5q93 -27 155.5 -120.5t62.5 -190.5q0 -137 -91 -233.5t-241 -96.5h-473zM287 86h383q110 0 177.5 71.5t67.5 172.5q0 100 -73.5 183t-186.5 83h-368v-510zM287 676h375q90 0 139 70t49 163
q0 98 -63.5 151.5t-168.5 53.5h-331v-438z" />
    <glyph glyph-name="C.sc" horiz-adv-x="1196" 
d="M117 596q0 126 45 239t122.5 195.5t187 131t233.5 48.5q119 0 224.5 -42.5t184.5 -120.5q-1 -1 -26 -27.5t-35 -34.5q-145 139 -348 139q-141 0 -256 -70.5t-179.5 -191.5t-64.5 -266q0 -220 143.5 -373t356.5 -153q201 0 350 139l59 -62q-80 -78 -186 -122.5t-223 -44.5
q-124 0 -233.5 48.5t-187 131.5t-122.5 196.5t-45 239.5z" />
    <glyph glyph-name="D.sc" horiz-adv-x="1296" 
d="M199 0v1200h446q124 0 225 -46t167 -127.5t101.5 -191t35.5 -237.5q0 -171 -61 -305.5t-182 -213.5t-286 -79h-446zM285 88h360q140 0 240.5 67.5t150 181.5t49.5 261q0 148 -49 262.5t-150 183t-241 68.5h-360v-1024z" />
    <glyph glyph-name="E.sc" horiz-adv-x="1003" 
d="M199 0v1200h669v-86h-581v-483h510v-86h-510v-459h600v-86h-688z" />
    <glyph glyph-name="F.sc" horiz-adv-x="935" 
d="M199 0v1200h659v-86h-571v-483h454v-86h-454v-545h-88z" />
    <glyph glyph-name="G.sc" horiz-adv-x="1357" 
d="M117 596q0 168 79 309t217.5 223t305.5 82q209 0 371 -127l-60 -63q-136 104 -311 104q-143 0 -261.5 -70.5t-185.5 -191.5t-67 -266t67 -266t185.5 -191.5t261.5 -70.5q201 0 322.5 109.5t138.5 309.5h-365v84h461q-4 -291 -151.5 -441t-405.5 -150q-167 0 -305.5 82.5
t-217.5 224t-79 309.5z" />
    <glyph glyph-name="H.sc" horiz-adv-x="1277" 
d="M199 0v1200h88v-563h704v563h88v-1200h-88v555h-704v-555h-88z" />
    <glyph glyph-name="I.sc" horiz-adv-x="485" 
d="M199 0v1200h88v-1200h-88z" />
    <glyph glyph-name="J.sc" horiz-adv-x="483" 
d="M-160 -397l10 86q37 -11 84 -11q136 0 200.5 80t64.5 209v1233h86v-1233q0 -80 -19 -145.5t-59 -118t-109.5 -82t-163.5 -29.5q-41 0 -94 11z" />
    <glyph glyph-name="K.sc" horiz-adv-x="978" 
d="M199 0v1200h88v-598l479 598h104l-497 -618l588 -582h-119l-555 549v-549h-88z" />
    <glyph glyph-name="L.sc" horiz-adv-x="872" 
d="M199 0v1200h88v-1114h522v-86h-610z" />
    <glyph glyph-name="M.sc" horiz-adv-x="1691" 
d="M129 0l150 1200h88l481 -983l477 983h88l150 -1200h-86l-131 1049l-455 -926h-88l-457 928l-131 -1051h-86z" />
    <glyph glyph-name="N.sc" horiz-adv-x="1232" 
d="M199 0v1200h96l653 -1055v1055h86v-1200h-94l-653 1055v-1055h-88z" />
    <glyph glyph-name="O.sc" horiz-adv-x="1439" 
d="M117 596q0 168 79.5 309t218 223t304.5 82q167 0 306 -82t218.5 -223t79.5 -309t-79.5 -309.5t-218.5 -224t-306 -82.5q-166 0 -304.5 82.5t-218 224t-79.5 309.5zM205 596q0 -144 67 -264.5t185.5 -191t261.5 -70.5q144 0 263 70.5t187 191t68 264.5q0 145 -68 266
t-187 191.5t-263 70.5q-143 0 -261.5 -70.5t-185.5 -191.5t-67 -266z" />
    <glyph glyph-name="P.sc" horiz-adv-x="1085" 
d="M199 0v1200h469q87 0 152.5 -30.5t103.5 -83t56.5 -115t18.5 -133.5q0 -56 -11 -107t-37 -97t-64 -79.5t-95.5 -53.5t-129.5 -20h-375v-481h-88zM287 567h370q67 0 117.5 22.5t79.5 62t43 86t14 100.5q0 74 -23 134t-79.5 101t-140.5 41h-381v-547z" />
    <glyph glyph-name="Q.sc" horiz-adv-x="1439" 
d="M117 596q0 168 79 309t217.5 223t305.5 82t306 -82t218.5 -223t79.5 -309q0 -169 -83.5 -312.5t-223.5 -224.5l137 -213l-72 -47l-143 224q-108 -43 -219 -43q-167 0 -305.5 82.5t-217.5 224t-79 309.5zM203 596q0 -144 67.5 -264.5t186 -191t260.5 -70.5q95 0 172 26
l-139 226l71 47l150 -238q122 70 194 193.5t72 271.5q0 144 -68.5 265.5t-187.5 192t-262 70.5t-262 -70.5t-186.5 -191.5t-67.5 -266z" />
    <glyph glyph-name="R.sc" horiz-adv-x="1095" 
d="M199 0v1200h442q87 0 153 -30.5t104 -83t56.5 -115.5t18.5 -135t-18.5 -133.5t-56.5 -113.5t-106 -82t-159 -30h-6l336 -477h-107l-338 481h-231v-481h-88zM287 565h346q67 0 117.5 22.5t79 62t42 86t13.5 100.5q0 74 -23 134t-79.5 101t-141.5 41h-354v-547z" />
    <glyph glyph-name="S.sc" horiz-adv-x="1019" 
d="M121 315h88q8 -98 90 -173.5t205 -75.5q135 0 217.5 65t97.5 152q10 59 -6 107t-53 81t-83 54.5t-104 35.5l-163 39q-281 63 -281 293q0 92 54 165.5t138.5 112.5t180.5 39q155 0 258.5 -86t109.5 -231h-88q-6 106 -84 168.5t-196 62.5q-113 0 -199 -65t-86 -166
q0 -162 209 -211l168 -37q76 -18 135.5 -47.5t105 -74.5t64.5 -110.5t6 -146.5q-23 -115 -127 -200.5t-274 -85.5q-161 0 -268 101.5t-115 233.5z" />
    <glyph glyph-name="T.sc" horiz-adv-x="997" 
d="M61 1112v88h875v-88h-393v-1112h-88v1112h-394z" />
    <glyph glyph-name="U.sc" horiz-adv-x="1214" 
d="M186 399v799h88v-799q0 -147 97 -239t237 -92t236 92t96 239v799h88v-799q0 -186 -122 -302.5t-298 -116.5q-115 0 -210.5 51t-153.5 147.5t-58 220.5z" />
    <glyph glyph-name="V.sc" horiz-adv-x="989" 
d="M84 1200h92l320 -1071l317 1071h92l-360 -1200h-101z" />
    <glyph glyph-name="W.sc" horiz-adv-x="1634" 
d="M68 1200h92l356 -1067l260 891h82l258 -893l357 1069h94l-408 -1200h-90l-252 866l-254 -866h-88z" />
    <glyph glyph-name="X.sc" horiz-adv-x="1048" 
d="M43 0l428 647l-371 553h105l317 -481l320 481h106l-373 -553l431 -647h-107l-377 575l-375 -575h-104z" />
    <glyph glyph-name="Y.sc" horiz-adv-x="1093" 
d="M53 1200h105l389 -545l393 545h104l-452 -635v-565h-90v567z" />
    <glyph glyph-name="Z.sc" horiz-adv-x="987" 
d="M92 0v74l686 1038h-674v88h785v-78l-686 -1034h686v-88h-797z" />
    <glyph glyph-name="Scaron.sc" horiz-adv-x="1019" 
d="M121 315h88q8 -98 90 -173.5t205 -75.5q135 0 217.5 65t97.5 152q10 59 -6 107t-53 81t-83 54.5t-104 35.5l-163 39q-281 63 -281 293q0 92 54 165.5t138.5 112.5t180.5 39q155 0 258.5 -86t109.5 -231h-88q-6 106 -84 168.5t-196 62.5q-113 0 -199 -65t-86 -166
q0 -162 209 -211l168 -37q76 -18 135.5 -47.5t105 -74.5t64.5 -110.5t6 -146.5q-23 -115 -127 -200.5t-274 -85.5q-161 0 -268 101.5t-115 233.5zM276 1567h86l152 -168l154 168h86l-181 -230h-116z" />
    <glyph glyph-name="OE.sc" horiz-adv-x="2041" 
d="M117 596q0 168 79.5 309t218 223t304.5 82q165 0 302.5 -82.5t215.5 -220.5v293h670v-88h-582v-481h508v-86h-508v-457h600v-88h-688v287q-78 -140 -215.5 -223.5t-302.5 -83.5q-166 0 -304.5 82.5t-218 224t-79.5 309.5zM205 596q0 -144 67 -264.5t185.5 -191
t261.5 -70.5q147 0 266 72t184.5 194.5t65.5 269.5q-2 142 -70 260.5t-186 188t-260 69.5q-143 0 -261.5 -70.5t-185.5 -191.5t-67 -266z" />
    <glyph glyph-name="Ydieresis.sc" horiz-adv-x="1093" 
d="M53 1200h105l389 -545l393 545h104l-452 -635v-565h-90v567zM332 1466q0 30 21.5 50t52.5 20t52 -20t21 -50q0 -29 -21 -48t-52 -19t-52.5 19t-21.5 48zM618 1466q0 30 22 50t52 20q31 0 52.5 -20t21.5 -50q0 -29 -21.5 -48t-52.5 -19q-30 0 -52 19t-22 48z" />
    <glyph glyph-name="exclamdown.sc" horiz-adv-x="495" 
d="M174 1139q0 31 21.5 52t52.5 21t52.5 -21t21.5 -52t-21.5 -52.5t-52.5 -21.5t-52.5 21.5t-21.5 52.5zM205 -2l6 903h74l6 -903h-86z" />
    <glyph glyph-name="questiondown.sc" horiz-adv-x="872" 
d="M94 315q0 117 70 202t174 116q42 13 67.5 24.5t50.5 31.5t36.5 50.5t11.5 73.5v88h86v-88q0 -62 -16 -106.5t-48.5 -74t-69 -47.5t-91.5 -34q-78 -25 -130.5 -87.5t-52.5 -148.5q0 -108 76.5 -174.5t181.5 -66.5q101 0 171.5 62.5t74.5 166.5l86 -4q-6 -141 -101 -227
t-231 -86q-91 0 -169.5 39.5t-127.5 116t-49 173.5zM475 1139q0 31 21.5 52t52.5 21t52.5 -21t21.5 -52t-21.5 -52.5t-52.5 -21.5t-52.5 21.5t-21.5 52.5z" />
    <glyph glyph-name="Agrave.sc" horiz-adv-x="1140" 
d="M63 0l461 1200h92l459 -1200h-94l-123 324h-577l-125 -324h-93zM311 403h516l-258 676zM371 1550h104l135 -229h-86z" />
    <glyph glyph-name="Aacute.sc" horiz-adv-x="1140" 
d="M63 0l461 1200h92l459 -1200h-94l-123 324h-577l-125 -324h-93zM311 403h516l-258 676zM532 1321l136 229h104l-154 -229h-86z" />
    <glyph glyph-name="Acircumflex.sc" horiz-adv-x="1140" 
d="M63 0l461 1200h92l459 -1200h-94l-123 324h-577l-125 -324h-93zM311 403h516l-258 676zM330 1321l180 229h119l180 -229h-88l-152 170l-153 -170h-86z" />
    <glyph glyph-name="Atilde.sc" horiz-adv-x="1140" 
d="M63 0l461 1200h92l459 -1200h-94l-123 324h-577l-125 -324h-93zM311 403h516l-258 676zM354 1364q3 85 46 121.5t94 36.5q31 0 59 -19t52 -38t46 -19t41.5 19t20.5 57h71q-4 -81 -43 -117.5t-86 -36.5q-40 0 -92 37t-78 37q-21 0 -39.5 -19t-19.5 -59h-72z" />
    <glyph glyph-name="Adieresis.sc" horiz-adv-x="1140" 
d="M63 0l461 1200h92l459 -1200h-94l-123 324h-577l-125 -324h-93zM311 403h516l-258 676zM350 1466q0 30 21.5 50t52.5 20t52.5 -20t21.5 -50q0 -29 -21.5 -48t-52.5 -19t-52.5 19t-21.5 48zM637 1466q0 30 21 50t51 20q32 0 53.5 -19.5t21.5 -50.5q0 -29 -21.5 -48
t-53.5 -19q-30 0 -51 19t-21 48z" />
    <glyph glyph-name="Aring.sc" horiz-adv-x="1140" 
d="M63 0l461 1200h92l459 -1200h-94l-123 324h-577l-125 -324h-93zM311 403h516l-258 676zM412 1493q0 66 44.5 113t108.5 47q67 0 113.5 -47t46.5 -113t-46.5 -112t-113.5 -46q-64 0 -108.5 46t-44.5 112zM481 1493q0 -37 24 -62.5t62 -25.5q37 0 62.5 25.5t25.5 62.5
t-25.5 63.5t-62.5 26.5q-38 0 -62 -26t-24 -64z" />
    <glyph glyph-name="AE.sc" horiz-adv-x="1712" 
d="M49 0l774 1200h752v-88h-582v-481h510v-86h-510v-457h602v-88h-690v326h-543l-208 -326h-105zM416 410h489v702h-33z" />
    <glyph glyph-name="Ccedilla.sc" horiz-adv-x="1198" 
d="M119 596q0 126 45 239t122.5 195.5t187 131t233.5 48.5q119 0 224.5 -42.5t184.5 -120.5l-61 -62q-145 139 -348 139q-141 0 -256 -70.5t-179.5 -191.5t-64.5 -266q0 -220 143.5 -373t356.5 -153q201 0 350 139l59 -62q-81 -78 -186 -121.5t-221 -43.5l43 -103
q20 -46 10.5 -90t-34.5 -77t-67.5 -49.5t-87.5 -6.5q-55 9 -94 55.5t-39 114.5l72 -4q0 -52 40.5 -81.5t86.5 -10.5q37 14 49.5 53t-2.5 67l-55 136q-222 28 -367 201.5t-145 408.5z" />
    <glyph glyph-name="Egrave.sc" horiz-adv-x="1003" 
d="M199 0v1200h669v-86h-581v-483h510v-86h-510v-459h600v-86h-688zM350 1550h109l133 -229h-86z" />
    <glyph glyph-name="Eacute.sc" horiz-adv-x="1003" 
d="M199 0v1200h669v-86h-581v-483h510v-86h-510v-459h600v-86h-688zM477 1321l133 229h105l-152 -229h-86z" />
    <glyph glyph-name="Ecircumflex.sc" horiz-adv-x="1003" 
d="M199 0v1200h669v-86h-581v-483h510v-86h-510v-459h600v-86h-688zM293 1321l178 229h119l180 -229h-88l-152 170l-151 -170h-86z" />
    <glyph glyph-name="Edieresis.sc" horiz-adv-x="1003" 
d="M199 0v1200h669v-86h-581v-483h510v-86h-510v-459h600v-86h-688zM315 1466q0 30 21.5 50t52.5 20t52.5 -20t21.5 -50q0 -29 -21.5 -48t-52.5 -19t-52.5 19t-21.5 48zM602 1466q0 30 21.5 50t52.5 20t52.5 -20t21.5 -50q0 -29 -21.5 -48t-52.5 -19t-52.5 19t-21.5 48z" />
    <glyph glyph-name="Igrave.sc" horiz-adv-x="485" 
d="M45 1550h107l131 -229h-84zM199 0v1200h88v-1200h-88z" />
    <glyph glyph-name="Iacute.sc" horiz-adv-x="485" 
d="M197 1321l133 229h106l-153 -229h-86zM199 0v1200h88v-1200h-88z" />
    <glyph glyph-name="Icircumflex.sc" horiz-adv-x="485" 
d="M4 1321l180 229h119l180 -229h-88l-153 170l-152 -170h-86zM199 0v1200h88v-1200h-88z" />
    <glyph glyph-name="Idieresis.sc" horiz-adv-x="485" 
d="M27 1466q0 30 20.5 50t50.5 20q31 0 52.5 -20t21.5 -50q0 -29 -21.5 -48t-52.5 -19q-30 0 -50.5 19t-20.5 48zM199 0v1200h88v-1200h-88zM311 1466q0 30 22 50t52 20q31 0 52.5 -20t21.5 -50q0 -29 -21.5 -48t-52.5 -19q-30 0 -52 19t-22 48z" />
    <glyph glyph-name="Eth.sc" horiz-adv-x="1300" 
d="M33 555v80h170v565h446q124 0 225 -46t167 -127.5t101.5 -191t35.5 -237.5q0 -171 -61 -305.5t-182 -213.5t-286 -79h-446v555h-170zM289 88h360q209 0 325 142t116 368q0 147 -49.5 262t-150.5 183.5t-241 68.5h-360v-477h317v-80h-317v-467z" />
    <glyph glyph-name="Ntilde.sc" horiz-adv-x="1232" 
d="M199 0v1200h96l653 -1055v1055h86v-1200h-94l-653 1055v-1055h-88zM399 1364q2 46 17 79t37.5 49t44 23t43.5 7q31 0 59 -19t52 -38t46 -19t41.5 19t20.5 57h71q-4 -81 -43.5 -117.5t-87.5 -36.5q-31 0 -61 18.5t-57 37t-50 18.5q-22 0 -41 -19t-20 -59h-72z" />
    <glyph glyph-name="Ograve.sc" horiz-adv-x="1439" 
d="M117 596q0 168 79.5 309t218 223t304.5 82q167 0 306 -82t218.5 -223t79.5 -309t-79.5 -309.5t-218.5 -224t-306 -82.5q-166 0 -304.5 82.5t-218 224t-79.5 309.5zM205 596q0 -144 67 -264.5t185.5 -191t261.5 -70.5q144 0 263 70.5t187 191t68 264.5q0 145 -68 266
t-187 191.5t-263 70.5q-143 0 -261.5 -70.5t-185.5 -191.5t-67 -266zM528 1552h107l133 -229h-84z" />
    <glyph glyph-name="Oacute.sc" horiz-adv-x="1439" 
d="M117 596q0 168 79.5 309t218 223t304.5 82q167 0 306 -82t218.5 -223t79.5 -309t-79.5 -309.5t-218.5 -224t-306 -82.5q-166 0 -304.5 82.5t-218 224t-79.5 309.5zM205 596q0 -144 67 -264.5t185.5 -191t261.5 -70.5q144 0 263 70.5t187 191t68 264.5q0 145 -68 266
t-187 191.5t-263 70.5q-143 0 -261.5 -70.5t-185.5 -191.5t-67 -266zM657 1323l134 229h106l-154 -229h-86z" />
    <glyph glyph-name="Ocircumflex.sc" horiz-adv-x="1439" 
d="M117 596q0 168 79.5 309t218 223t304.5 82q167 0 306 -82t218.5 -223t79.5 -309t-79.5 -309.5t-218.5 -224t-306 -82.5q-166 0 -304.5 82.5t-218 224t-79.5 309.5zM205 596q0 -144 67 -264.5t185.5 -191t261.5 -70.5q144 0 263 70.5t187 191t68 264.5q0 145 -68 266
t-187 191.5t-263 70.5q-143 0 -261.5 -70.5t-185.5 -191.5t-67 -266zM483 1323l181 229h118l181 -229h-89l-151 168l-152 -168h-88z" />
    <glyph glyph-name="Otilde.sc" horiz-adv-x="1439" 
d="M117 596q0 168 79.5 309t218 223t304.5 82q167 0 306 -82t218.5 -223t79.5 -309t-79.5 -309.5t-218.5 -224t-306 -82.5q-166 0 -304.5 82.5t-218 224t-79.5 309.5zM205 596q0 -144 67 -264.5t185.5 -191t261.5 -70.5q144 0 263 70.5t187 191t68 264.5q0 145 -68 266
t-187 191.5t-263 70.5q-143 0 -261.5 -70.5t-185.5 -191.5t-67 -266zM506 1364q4 86 46.5 122t92.5 36q31 0 59.5 -19t53 -38t45.5 -19t40.5 18.5t20.5 57.5h72q-4 -81 -43 -117.5t-88 -36.5q-31 0 -61 18.5t-57 37t-50 18.5q-20 0 -39 -19.5t-20 -58.5h-72z" />
    <glyph glyph-name="Odieresis.sc" horiz-adv-x="1439" 
d="M117 596q0 168 79.5 309t218 223t304.5 82q167 0 306 -82t218.5 -223t79.5 -309t-79.5 -309.5t-218.5 -224t-306 -82.5q-166 0 -304.5 82.5t-218 224t-79.5 309.5zM205 596q0 -144 67 -264.5t185.5 -191t261.5 -70.5q144 0 263 70.5t187 191t68 264.5q0 145 -68 266
t-187 191.5t-263 70.5q-143 0 -261.5 -70.5t-185.5 -191.5t-67 -266zM508 1468q0 29 21.5 48.5t52.5 19.5q30 0 51.5 -19.5t21.5 -48.5t-21.5 -48t-51.5 -19q-31 0 -52.5 19t-21.5 48zM795 1468q0 29 21 48.5t52 19.5t52.5 -19.5t21.5 -48.5t-21.5 -48t-52.5 -19t-52 19
t-21 48z" />
    <glyph glyph-name="Oslash.sc" horiz-adv-x="1439" 
d="M117 596q0 168 79.5 309t218 223t304.5 82q237 0 403 -153l158 157l49 -51l-155 -159q149 -173 149 -408q0 -168 -79.5 -309.5t-218.5 -224t-306 -82.5q-228 0 -397 153l-150 -153l-53 51l149 153q-151 175 -151 412zM205 596q0 -203 125 -350l733 747q-151 131 -344 131
q-143 0 -261.5 -70.5t-185.5 -191.5t-67 -266zM383 195q141 -125 336 -125q144 0 263 70.5t187 191t68 264.5q0 195 -125 346z" />
    <glyph glyph-name="Ugrave.sc" horiz-adv-x="1214" 
d="M186 399v799h88v-799q0 -147 97 -239t237 -92t236 92t96 239v799h88v-799q0 -186 -122 -302.5t-298 -116.5q-115 0 -210.5 51t-153.5 147.5t-58 220.5zM432 1550h107l133 -229h-86z" />
    <glyph glyph-name="Uacute.sc" horiz-adv-x="1214" 
d="M186 399v799h88v-799q0 -147 97 -239t237 -92t236 92t96 239v799h88v-799q0 -186 -122 -302.5t-298 -116.5q-115 0 -210.5 51t-153.5 147.5t-58 220.5zM549 1321l131 229h106l-153 -229h-84z" />
    <glyph glyph-name="Ucircumflex.sc" horiz-adv-x="1214" 
d="M186 399v799h88v-799q0 -147 97 -239t237 -92t236 92t96 239v799h88v-799q0 -186 -122 -302.5t-298 -116.5q-115 0 -210.5 51t-153.5 147.5t-58 220.5zM371 1323l180 229h119l180 -229h-88l-152 168l-151 -168h-88z" />
    <glyph glyph-name="Udieresis.sc" horiz-adv-x="1214" 
d="M186 399v799h88v-799q0 -147 97 -239t237 -92t236 92t96 239v799h88v-799q0 -186 -122 -302.5t-298 -116.5q-115 0 -210.5 51t-153.5 147.5t-58 220.5zM391 1466q0 30 21 50t51 20q32 0 53 -19.5t21 -50.5q0 -29 -21 -48t-53 -19q-30 0 -51 19t-21 48zM678 1466
q0 30 21 50t51 20q31 0 53 -20t22 -50q0 -29 -22 -48t-53 -19q-30 0 -51 19t-21 48z" />
    <glyph glyph-name="Yacute.sc" horiz-adv-x="1093" 
d="M53 1200h105l389 -545l393 545h104l-452 -635v-565h-90v567zM498 1321l133 229h104l-153 -229h-84z" />
    <glyph glyph-name="Thorn.sc" horiz-adv-x="1030" 
d="M199 0v1200h88v-227h305q149 0 249.5 -99t100.5 -256q0 -161 -100.5 -261.5t-249.5 -100.5h-305v-256h-88zM287 344h305q111 0 186.5 76t75.5 198q0 119 -75.5 193t-188.5 74h-303v-541z" />
    <glyph glyph-name="Amacron.sc" horiz-adv-x="1140" 
d="M63 0l461 1200h92l459 -1200h-94l-123 324h-577l-125 -324h-93zM311 403h516l-258 676zM369 1415v80h409v-80h-409z" />
    <glyph glyph-name="Abreve.sc" horiz-adv-x="1140" 
d="M63 0l461 1200h92l459 -1200h-94l-123 324h-577l-125 -324h-93zM311 403h516l-258 676zM365 1550h71q3 -52 37 -86t94 -34q61 0 96 34t37 86h72q0 -88 -56.5 -141t-148.5 -53q-100 0 -151 57t-51 137z" />
    <glyph glyph-name="Cacute.sc" horiz-adv-x="1196" 
d="M117 596q0 126 45 239t122.5 195.5t187 131t233.5 48.5q119 0 224.5 -42.5t184.5 -120.5q-1 -1 -26 -27.5t-35 -34.5q-145 139 -348 139q-141 0 -256 -70.5t-179.5 -191.5t-64.5 -266q0 -220 143.5 -373t356.5 -153q201 0 350 139l59 -62q-80 -78 -186 -122.5t-223 -44.5
q-124 0 -233.5 48.5t-187 131.5t-122.5 196.5t-45 239.5zM653 1337l133 230h107l-156 -230h-84z" />
    <glyph glyph-name="Ccircumflex.sc" horiz-adv-x="1196" 
d="M117 596q0 126 45 239t122.5 195.5t187 131t233.5 48.5q119 0 224.5 -42.5t184.5 -120.5q-1 -1 -26 -27.5t-35 -34.5q-145 139 -348 139q-141 0 -256 -70.5t-179.5 -191.5t-64.5 -266q0 -220 143.5 -373t356.5 -153q201 0 350 139l59 -62q-80 -78 -186 -122.5t-223 -44.5
q-124 0 -233.5 48.5t-187 131.5t-122.5 196.5t-45 239.5zM449 1337l178 230h118l181 -230h-88l-152 170l-151 -170h-86z" />
    <glyph glyph-name="Cdotaccent.sc" horiz-adv-x="1196" 
d="M117 596q0 126 45 239t122.5 195.5t187 131t233.5 48.5q119 0 224.5 -42.5t184.5 -120.5q-1 -1 -26 -27.5t-35 -34.5q-145 139 -348 139q-141 0 -256 -70.5t-179.5 -191.5t-64.5 -266q0 -220 143.5 -373t356.5 -153q201 0 350 139l59 -62q-80 -78 -186 -122.5t-223 -44.5
q-124 0 -233.5 48.5t-187 131.5t-122.5 196.5t-45 239.5zM602 1485q0 30 22 49.5t52 19.5q31 0 52.5 -19.5t21.5 -49.5q0 -29 -21.5 -48.5t-52.5 -19.5q-30 0 -52 19.5t-22 48.5z" />
    <glyph glyph-name="Ccaron.sc" horiz-adv-x="1196" 
d="M117 596q0 126 45 239t122.5 195.5t187 131t233.5 48.5q119 0 224.5 -42.5t184.5 -120.5q-1 -1 -26 -27.5t-35 -34.5q-145 139 -348 139q-141 0 -256 -70.5t-179.5 -191.5t-64.5 -266q0 -220 143.5 -373t356.5 -153q201 0 350 139l59 -62q-80 -78 -186 -122.5t-223 -44.5
q-124 0 -233.5 48.5t-187 131.5t-122.5 196.5t-45 239.5zM438 1567h88l152 -168l153 168h87l-181 -230h-119z" />
    <glyph glyph-name="Dcaron.sc" horiz-adv-x="1296" 
d="M199 0v1200h446q124 0 225 -46t167 -127.5t101.5 -191t35.5 -237.5q0 -171 -61 -305.5t-182 -213.5t-286 -79h-446zM285 88h360q140 0 240.5 67.5t150 181.5t49.5 261q0 148 -49 262.5t-150 183t-241 68.5h-360v-1024zM371 1567h88l151 -168l152 168h88l-180 -230h-119z
" />
    <glyph glyph-name="Aogonek.sc" horiz-adv-x="1140" 
d="M63 0l461 1200h92l459 -1200h-18l-62 -150q-15 -28 -2.5 -67t49.5 -53q46 -19 86.5 10.5t40.5 81.5l72 4q0 -67 -38 -112t-95 -58q-50 -8 -93 8.5t-66.5 49t-31.5 76t13 89.5l51 121l-123 324h-577l-125 -324h-93zM311 403h516l-258 676z" />
    <glyph glyph-name="Emacron.sc" horiz-adv-x="1003" 
d="M199 0v1200h669v-86h-581v-483h510v-86h-510v-459h600v-86h-688zM324 1415v80h407v-80h-407z" />
    <glyph glyph-name="Ebreve.sc" horiz-adv-x="1003" 
d="M199 0v1200h669v-86h-581v-483h510v-86h-510v-459h600v-86h-688zM322 1550h71q3 -52 37 -86t94 -34q62 0 96.5 34t36.5 86h74q0 -88 -56.5 -141t-150.5 -53q-100 0 -151 57t-51 137z" />
    <glyph glyph-name="Edotaccent.sc" horiz-adv-x="1003" 
d="M199 0v1200h669v-86h-581v-483h510v-86h-510v-459h600v-86h-688zM467 1485q0 30 21.5 49.5t52.5 19.5t52 -19.5t21 -49.5q0 -29 -21 -48.5t-52 -19.5t-52.5 19.5t-21.5 48.5z" />
    <glyph glyph-name="Ecaron.sc" horiz-adv-x="1003" 
d="M199 0v1200h669v-86h-581v-483h510v-86h-510v-459h600v-86h-688zM289 1567h86l151 -168l154 168h86l-180 -230h-119z" />
    <glyph glyph-name="Gcircumflex.sc" horiz-adv-x="1357" 
d="M117 596q0 168 79 309t217.5 223t305.5 82q209 0 371 -127l-60 -63q-136 104 -311 104q-143 0 -261.5 -70.5t-185.5 -191.5t-67 -266t67 -266t185.5 -191.5t261.5 -70.5q201 0 322.5 109.5t138.5 309.5h-365v84h461q-4 -291 -151.5 -441t-405.5 -150q-167 0 -305.5 82.5
t-217.5 224t-79 309.5zM449 1337l180 230h119l180 -230h-88l-152 170l-151 -170h-88z" />
    <glyph glyph-name="Gbreve.sc" horiz-adv-x="1357" 
d="M117 596q0 168 79 309t217.5 223t305.5 82q209 0 371 -127l-60 -63q-136 104 -311 104q-143 0 -261.5 -70.5t-185.5 -191.5t-67 -266t67 -266t185.5 -191.5t261.5 -70.5q201 0 322.5 109.5t138.5 309.5h-365v84h461q-4 -291 -151.5 -441t-405.5 -150q-167 0 -305.5 82.5
t-217.5 224t-79 309.5zM500 1550h71q3 -52 37.5 -86t96.5 -34q61 0 95 34t36 86h71q0 -88 -55 -141t-147 -53q-102 0 -153.5 57t-51.5 137z" />
    <glyph glyph-name="Eogonek.sc" horiz-adv-x="1003" 
d="M199 0v1200h669v-86h-581v-483h510v-86h-510v-459h600v-86l-62 -150q-15 -28 -2.5 -67t49.5 -53q46 -19 86.5 10.5t40.5 81.5l72 4q0 -67 -38 -112t-95 -58q-50 -8 -94.5 9t-69 50t-32 76.5t17.5 87.5l63 121h-624z" />
    <glyph glyph-name="Dcroat.sc" horiz-adv-x="1300" 
d="M33 555v80h170v565h446q124 0 225 -46t167 -127.5t101.5 -191t35.5 -237.5q0 -171 -61 -305.5t-182 -213.5t-286 -79h-446v555h-170zM289 88h360q209 0 325 142t116 368q0 147 -49.5 262t-150.5 183.5t-241 68.5h-360v-477h317v-80h-317v-467z" />
    <glyph glyph-name="Gdotaccent.sc" horiz-adv-x="1357" 
d="M117 596q0 168 79 309t217.5 223t305.5 82q209 0 371 -127l-60 -63q-136 104 -311 104q-143 0 -261.5 -70.5t-185.5 -191.5t-67 -266t67 -266t185.5 -191.5t261.5 -70.5q201 0 322.5 109.5t138.5 309.5h-365v84h461q-4 -291 -151.5 -441t-405.5 -150q-167 0 -305.5 82.5
t-217.5 224t-79 309.5zM631 1485q0 30 21.5 49.5t52.5 19.5q30 0 51.5 -19.5t21.5 -49.5q0 -29 -21.5 -48.5t-51.5 -19.5q-31 0 -52.5 19.5t-21.5 48.5z" />
    <glyph glyph-name="Hcircumflex.sc" horiz-adv-x="1277" 
d="M199 0v1200h88v-563h704v563h88v-1200h-88v555h-704v-555h-88zM399 1337l181 230h118l181 -230h-88l-152 170l-152 -170h-88z" />
    <glyph glyph-name="Hbar.sc" horiz-adv-x="1298" 
d="M90 907v68h119v225h88v-225h704v225h89v-225h129v-68h-129v-907h-89v555h-704v-555h-88v907h-119zM297 637h704v270h-704v-270z" />
    <glyph glyph-name="Itilde.sc" horiz-adv-x="485" 
d="M27 1376q4 86 46.5 122t94.5 36q31 0 59 -18.5t52.5 -37t46.5 -18.5q21 0 40.5 18.5t20.5 55.5h72q-4 -80 -43.5 -117t-87.5 -37q-31 0 -61 18.5t-57 37t-50 18.5q-22 0 -41.5 -19t-20.5 -59h-71zM199 0v1200h88v-1200h-88z" />
    <glyph glyph-name="Imacron.sc" horiz-adv-x="485" 
d="M39 1415v80h405v-80h-405zM199 0v1200h88v-1200h-88z" />
    <glyph glyph-name="Iogonek.sc" horiz-adv-x="485" 
d="M147 -121l52 121v1200h88v-1200h-13l-61 -150q-15 -28 -2.5 -67t49.5 -53q46 -19 86.5 10.5t40.5 81.5l72 4q0 -67 -38 -112t-95 -58q-50 -8 -93 8.5t-67 49t-32 76t13 89.5z" />
    <glyph glyph-name="IJ.sc" horiz-adv-x="968" 
d="M199 0v1200h88v-1200h-88zM326 -397l10 86q37 -11 84 -11q136 0 200 80t64 209v1233h86v-1233q0 -80 -19 -145.5t-59 -118.5t-109 -82t-163 -29q-41 0 -94 11z" />
    <glyph glyph-name="Jcircumflex.sc" horiz-adv-x="483" 
d="M-160 -397l10 86q37 -11 84 -11q136 0 200.5 80t64.5 209v1233h86v-1233q0 -80 -19 -145.5t-59 -118t-109.5 -82t-163.5 -29.5q-41 0 -94 11zM2 1337l180 230h119l180 -230h-88l-151 170l-152 -170h-88z" />
    <glyph glyph-name="Lacute.sc" horiz-adv-x="872" 
d="M199 0v1200h88v-1114h522v-86h-610zM201 1337l133 230h106l-153 -230h-86z" />
    <glyph glyph-name="Lcaron.sc" horiz-adv-x="874" 
d="M199 0v1200h88v-1114h522v-86h-610zM471 877q93 131 90 321h86q-3 -228 -127 -342z" />
    <glyph glyph-name="Ldot.sc" horiz-adv-x="872" 
d="M199 0v1200h88v-1114h522v-86h-610zM471 459q0 30 21.5 49.5t52.5 19.5q30 0 51.5 -19.5t21.5 -49.5q0 -29 -21.5 -48.5t-51.5 -19.5q-31 0 -52.5 19.5t-21.5 48.5z" />
    <glyph glyph-name="Nacute.sc" horiz-adv-x="1232" 
d="M199 0v1200h96l653 -1055v1055h86v-1200h-94l-653 1055v-1055h-88zM584 1337l133 230h104l-151 -230h-86z" />
    <glyph glyph-name="Ncaron.sc" horiz-adv-x="1232" 
d="M199 0v1200h96l653 -1055v1055h86v-1200h-94l-653 1055v-1055h-88zM408 1567h86l153 -168l152 168h88l-182 -230h-117z" />
    <glyph glyph-name="Omacron.sc" horiz-adv-x="1439" 
d="M117 596q0 168 79.5 309t218 223t304.5 82q167 0 306 -82t218.5 -223t79.5 -309t-79.5 -309.5t-218.5 -224t-306 -82.5q-166 0 -304.5 82.5t-218 224t-79.5 309.5zM205 596q0 -144 67 -264.5t185.5 -191t261.5 -70.5q144 0 263 70.5t187 191t68 264.5q0 145 -68 266
t-187 191.5t-263 70.5q-143 0 -261.5 -70.5t-185.5 -191.5t-67 -266zM516 1415v80h408v-80h-408z" />
    <glyph glyph-name="Obreve.sc" horiz-adv-x="1439" 
d="M117 596q0 168 79.5 309t218 223t304.5 82q167 0 306 -82t218.5 -223t79.5 -309t-79.5 -309.5t-218.5 -224t-306 -82.5q-166 0 -304.5 82.5t-218 224t-79.5 309.5zM205 596q0 -144 67 -264.5t185.5 -191t261.5 -70.5q144 0 263 70.5t187 191t68 264.5q0 145 -68 266
t-187 191.5t-263 70.5q-143 0 -261.5 -70.5t-185.5 -191.5t-67 -266zM520 1552h72q3 -53 37.5 -87.5t95.5 -34.5q60 0 95.5 34.5t37.5 87.5h70q0 -89 -55.5 -142.5t-147.5 -53.5q-102 0 -153.5 57.5t-51.5 138.5z" />
    <glyph glyph-name="Ohungarumlaut.sc" horiz-adv-x="1439" 
d="M117 596q0 168 79.5 309t218 223t304.5 82q167 0 306 -82t218.5 -223t79.5 -309t-79.5 -309.5t-218.5 -224t-306 -82.5q-166 0 -304.5 82.5t-218 224t-79.5 309.5zM205 596q0 -144 67 -264.5t185.5 -191t261.5 -70.5q144 0 263 70.5t187 191t68 264.5q0 145 -68 266
t-187 191.5t-263 70.5q-143 0 -261.5 -70.5t-185.5 -191.5t-67 -266zM559 1339l131 230h98l-139 -230h-90zM762 1339l133 230h104l-151 -230h-86z" />
    <glyph glyph-name="Racute.sc" horiz-adv-x="1095" 
d="M199 0v1200h442q87 0 153 -30.5t104 -83t56.5 -115.5t18.5 -135t-18.5 -133.5t-56.5 -113.5t-106 -82t-159 -30h-6l336 -477h-107l-338 481h-231v-481h-88zM287 565h346q67 0 117.5 22.5t79 62t42 86t13.5 100.5q0 74 -23 134t-79.5 101t-141.5 41h-354v-547zM455 1337
l133 230h106l-153 -230h-86z" />
    <glyph glyph-name="Rcaron.sc" horiz-adv-x="1095" 
d="M199 0v1200h442q87 0 153 -30.5t104 -83t56.5 -115.5t18.5 -135t-18.5 -133.5t-56.5 -113.5t-106 -82t-159 -30h-6l336 -477h-107l-338 481h-231v-481h-88zM287 565h346q67 0 117.5 22.5t79 62t42 86t13.5 100.5q0 74 -23 134t-79.5 101t-141.5 41h-354v-547zM309 1567
h88l152 -168l153 168h86l-180 -230h-116z" />
    <glyph glyph-name="Sacute.sc" horiz-adv-x="1019" 
d="M121 315h88q8 -98 90 -171.5t205 -73.5q135 0 217.5 63.5t97.5 149.5q10 59 -6 107t-53 81t-83 54.5t-104 35.5l-163 39q-281 63 -281 293q0 92 54 165.5t138.5 112.5t180.5 39q155 0 258.5 -86t109.5 -231h-88q-6 106 -84 168.5t-196 62.5q-113 0 -199 -65t-86 -166
q0 -162 209 -211l168 -37q76 -18 135.5 -47.5t105 -74.5t64.5 -110.5t6 -146.5q-23 -115 -127 -200.5t-274 -85.5q-161 0 -268 101.5t-115 233.5zM440 1337l133 230h107l-154 -230h-86z" />
    <glyph glyph-name="Scircumflex.sc" horiz-adv-x="1019" 
d="M121 315h88q8 -98 90 -171.5t205 -73.5q135 0 217.5 63.5t97.5 149.5q10 59 -6 107t-53 81t-83 54.5t-104 35.5l-163 39q-281 63 -281 293q0 92 54 165.5t138.5 112.5t180.5 39q155 0 258.5 -86t109.5 -231h-88q-6 106 -84 168.5t-196 62.5q-113 0 -199 -65t-86 -166
q0 -162 209 -211l168 -37q76 -18 135.5 -47.5t105 -74.5t64.5 -110.5t6 -146.5q-23 -115 -127 -200.5t-274 -85.5q-161 0 -268 101.5t-115 233.5zM274 1337l181 230h118l181 -230h-86l-154 170l-152 -170h-88z" />
    <glyph glyph-name="Scedilla.sc" horiz-adv-x="1024" 
d="M123 315h88q8 -98 90 -171.5t205 -73.5q135 0 217.5 63.5t97.5 149.5q10 59 -6 107t-53 81t-83 54.5t-104 35.5l-163 39q-281 63 -281 293q0 92 54 165.5t138.5 112.5t180.5 39q155 0 258.5 -86t109.5 -231h-88q-6 106 -84 168.5t-196 62.5q-113 0 -199 -65t-86 -166
q0 -162 209 -211l168 -37q76 -18 135.5 -47.5t105 -74.5t64.5 -110.5t6 -146.5q-21 -104 -109.5 -186t-232.5 -96l45 -105q21 -46 13 -89.5t-31.5 -76t-66.5 -49t-93 -8.5q-57 13 -95 58t-38 112l72 -4q0 -52 40.5 -81.5t86.5 -10.5q37 14 49.5 53t-2.5 67l-53 130
q-156 6 -258.5 106.5t-110.5 228.5z" />
    <glyph glyph-name="Utilde.sc" horiz-adv-x="1214" 
d="M186 399v799h88v-799q0 -147 97 -239t237 -92t236 92t96 239v799h88v-799q0 -186 -122 -302.5t-298 -116.5q-115 0 -210.5 51t-153.5 147.5t-58 220.5zM397 1364q4 86 47 122t93 36q31 0 59.5 -19t52.5 -38t45 -19q22 0 41.5 19t20.5 57h71q-4 -81 -43 -117.5t-88 -36.5
q-31 0 -61 18.5t-57 37t-50 18.5q-20 0 -39 -19.5t-20 -58.5h-72z" />
    <glyph glyph-name="Umacron.sc" horiz-adv-x="1214" 
d="M186 399v799h88v-799q0 -147 97 -239t237 -92t236 92t96 239v799h88v-799q0 -186 -122 -302.5t-298 -116.5q-115 0 -210.5 51t-153.5 147.5t-58 220.5zM410 1415v80h409v-80h-409z" />
    <glyph glyph-name="Ubreve.sc" horiz-adv-x="1214" 
d="M186 399v799h88v-799q0 -147 97 -239t237 -92t236 92t96 239v799h88v-799q0 -186 -122 -302.5t-298 -116.5q-115 0 -210.5 51t-153.5 147.5t-58 220.5zM403 1550h72q3 -53 36.5 -86.5t94.5 -33.5t96 34t37 86h74q0 -88 -56.5 -141t-150.5 -53q-100 0 -151.5 57t-51.5 137
z" />
    <glyph glyph-name="Uring.sc" horiz-adv-x="1214" 
d="M186 399v799h88v-799q0 -147 97 -239t237 -92t236 92t96 239v799h88v-799q0 -186 -122 -302.5t-298 -116.5q-115 0 -210.5 51t-153.5 147.5t-58 220.5zM451 1507q0 68 44.5 115t108.5 47q68 0 115 -47.5t47 -114.5q0 -65 -47.5 -110t-114.5 -45q-64 0 -108.5 45
t-44.5 110zM518 1509q0 -37 25.5 -62.5t62.5 -25.5t63.5 25.5t26.5 62.5q0 38 -26.5 63t-63.5 25t-62.5 -25t-25.5 -63z" />
    <glyph glyph-name="Uhungarumlaut.sc" horiz-adv-x="1214" 
d="M186 399v799h88v-799q0 -147 97 -239t237 -92t236 92t96 239v799h88v-799q0 -186 -122 -302.5t-298 -116.5q-115 0 -210.5 51t-153.5 147.5t-58 220.5zM438 1339l129 230h99l-140 -230h-88zM641 1339l131 230h107l-154 -230h-84z" />
    <glyph glyph-name="Uogonek.sc" horiz-adv-x="1214" 
d="M186 399v799h88v-799q0 -147 97 -239t237 -92t236 92t96 239v799h88v-799q0 -174 -108 -288.5t-269 -128.5l-53 -132q-15 -28 -2.5 -67t49.5 -53q46 -19 86.5 10.5t40.5 81.5l72 4q0 -67 -38 -112t-95 -58q-50 -8 -93 8.5t-67 49t-32 76t13 89.5l43 103
q-166 11 -277.5 125.5t-111.5 291.5z" />
    <glyph glyph-name="Wcircumflex.sc" horiz-adv-x="1634" 
d="M68 1200h92l356 -1067l260 891h82l258 -893l357 1069h94l-408 -1200h-90l-252 866l-254 -866h-88zM575 1337l183 230h119l178 -230h-86l-154 170l-151 -170h-89z" />
    <glyph glyph-name="Ycircumflex.sc" horiz-adv-x="1093" 
d="M53 1200h105l389 -545l393 545h104l-452 -635v-565h-90v567zM307 1337l180 230h119l180 -230h-86l-153 170l-152 -170h-88z" />
    <glyph glyph-name="Tcaron.sc" horiz-adv-x="999" 
d="M61 1112v88h877v-88h-395v-1112h-88v1112h-394zM256 1567h88l152 -168l153 168h86l-180 -230h-117z" />
    <glyph glyph-name="Tbar.sc" horiz-adv-x="1001" 
d="M63 1112v88h877v-88h-395v-418h225v-73h-225v-621h-88v621h-224v73h224v418h-394z" />
    <glyph glyph-name="Zacute.sc" horiz-adv-x="987" 
d="M92 0v74l686 1038h-674v88h785v-78l-686 -1034h686v-88h-797zM408 1339l131 230h106l-153 -230h-84z" />
    <glyph glyph-name="Zdotaccent.sc" horiz-adv-x="987" 
d="M92 0v74l686 1038h-674v88h785v-78l-686 -1034h686v-88h-797zM418 1485q0 30 21.5 49.5t52.5 19.5q30 0 50.5 -19.5t20.5 -49.5q0 -29 -20.5 -48.5t-50.5 -19.5q-31 0 -52.5 19.5t-21.5 48.5z" />
    <glyph glyph-name="Wgrave.sc" horiz-adv-x="1634" 
d="M68 1200h92l356 -1067l260 891h82l258 -893l357 1069h94l-408 -1200h-90l-252 866l-254 -866h-88zM582 1567h106l133 -230h-86z" />
    <glyph glyph-name="Wacute.sc" horiz-adv-x="1634" 
d="M68 1200h92l356 -1067l260 891h82l258 -893l357 1069h94l-408 -1200h-90l-252 866l-254 -866h-88zM825 1337l133 230h109l-156 -230h-86z" />
    <glyph glyph-name="Wdieresis.sc" horiz-adv-x="1634" 
d="M68 1200h92l356 -1067l260 891h82l258 -893l357 1069h94l-408 -1200h-90l-252 866l-254 -866h-88zM600 1483q0 30 21 49.5t51 19.5q31 0 52 -19.5t21 -49.5q0 -29 -21 -47.5t-52 -18.5q-30 0 -51 18.5t-21 47.5zM885 1483q0 30 21 49.5t52 19.5q32 0 53 -19t21 -50
q0 -29 -21 -47.5t-53 -18.5q-31 0 -52 18.5t-21 47.5z" />
    <glyph glyph-name="Aringacute.sc" horiz-adv-x="1140" 
d="M63 0l461 1200h92l459 -1200h-94l-123 324h-577l-125 -324h-93zM311 403h516l-258 676zM416 1507q0 61 36.5 106t92.5 54l94 164h106l-116 -174q45 -18 73.5 -59t28.5 -91q0 -65 -47.5 -110t-114.5 -45q-64 0 -108.5 45t-44.5 110zM483 1509q0 -37 25.5 -62.5t62.5 -25.5
t64 26t27 62q0 38 -27 63t-64 25t-62.5 -25t-25.5 -63z" />
    <glyph glyph-name="AEacute.sc" horiz-adv-x="1712" 
d="M49 0l774 1200h752v-88h-582v-481h510v-86h-510v-457h602v-88h-690v326h-543l-208 -326h-105zM416 410h489v702h-33zM866 1339l133 230h105l-154 -230h-84z" />
    <glyph glyph-name="Oslashacute.sc" horiz-adv-x="1439" 
d="M117 596q0 168 79.5 309t218 223t304.5 82q237 0 403 -153l158 157l49 -51l-155 -159q149 -173 149 -408q0 -168 -79.5 -309.5t-218.5 -224t-306 -82.5q-228 0 -397 153l-150 -153l-53 51l149 153q-151 175 -151 412zM205 596q0 -203 125 -350l733 747q-151 131 -344 131
q-143 0 -261.5 -70.5t-185.5 -191.5t-67 -266zM383 195q141 -125 336 -125q144 0 263 70.5t187 191t68 264.5q0 195 -125 346zM664 1339l133 230h106l-153 -230h-86z" />
    <glyph glyph-name="Ibreve.sc" horiz-adv-x="485" 
d="M39 1550h70q5 -53 38.5 -86.5t94.5 -33.5t96 34t37 86h71q0 -88 -55.5 -141t-148.5 -53q-100 0 -151.5 57t-51.5 137zM199 0v1200h88v-1200h-88z" />
    <glyph glyph-name="Eng.sc" horiz-adv-x="1232" 
d="M199 0v1200h96l653 -1050v1050h86v-1200q0 -73 -8.5 -130t-32 -111t-62 -89.5t-101 -56.5t-146.5 -21q-41 0 -94 11l10 80q45 -9 84 -9q137 -1 200.5 73.5t63.5 201.5v51l-661 1055v-1055h-88z" />
    <glyph glyph-name="Ygrave.sc" horiz-adv-x="1093" 
d="M53 1200h105l389 -545l393 545h104l-452 -635v-565h-90v567zM367 1554h106l135 -229h-86z" />
    <glyph glyph-name="Gcommaaccent.sc" horiz-adv-x="1357" 
d="M117 596q0 168 79 309t217.5 223t305.5 82q209 0 371 -127l-60 -63q-136 104 -311 104q-143 0 -261.5 -70.5t-185.5 -191.5t-67 -266t67 -266t185.5 -191.5t261.5 -70.5q201 0 322.5 109.5t138.5 309.5h-365v84h461q-4 -291 -151.5 -441t-405.5 -150q-167 0 -305.5 82.5
t-217.5 224t-79 309.5zM565 -389q107 126 99 274h96q-6 -192 -127 -288z" />
    <glyph glyph-name="Kcommaaccent.sc" horiz-adv-x="978" 
d="M199 0v1200h88v-598l479 598h104l-497 -618l588 -582h-119l-555 549v-549h-88zM414 -389q106 125 98 274h96q-6 -192 -127 -288z" />
    <glyph glyph-name="Lcommaaccent.sc" horiz-adv-x="872" 
d="M199 0v1200h88v-1114h522v-86h-610zM385 -389q106 125 98 274h97q-6 -192 -127 -288z" />
    <glyph glyph-name="Ncommaaccent.sc" horiz-adv-x="1232" 
d="M199 0v1200h96l653 -1055v1055h86v-1200h-94l-653 1055v-1055h-88zM463 -389q106 125 98 274h96q-6 -192 -127 -288z" />
    <glyph glyph-name="Rcommaaccent.sc" horiz-adv-x="1095" 
d="M199 0v1200h442q87 0 153 -30.5t104 -83t56.5 -115.5t18.5 -135t-18.5 -133.5t-56.5 -113.5t-106 -82t-159 -30h-6l336 -477h-107l-338 481h-231v-481h-88zM287 565h346q67 0 117.5 22.5t79 62t42 86t13.5 100.5q0 74 -23 134t-79.5 101t-141.5 41h-354v-547zM414 -389
q106 125 98 274h96q-6 -192 -127 -288z" />
    <glyph glyph-name="Tcommaaccent.sc" horiz-adv-x="997" 
d="M61 1112v88h875v-88h-393v-1112h-88v1112h-394zM358 -389q107 126 99 274h96q-6 -192 -127 -288z" />
    <glyph glyph-name="Scommaaccent.sc" horiz-adv-x="1019" 
d="M121 315h88q8 -98 90 -173.5t205 -75.5q135 0 217.5 65t97.5 152q10 59 -6 107t-53 81t-83 54.5t-104 35.5l-163 39q-281 63 -281 293q0 92 54 165.5t138.5 112.5t180.5 39q155 0 258.5 -86t109.5 -231h-88q-6 106 -84 168.5t-196 62.5q-113 0 -199 -65t-86 -166
q0 -162 209 -211l168 -37q76 -18 135.5 -47.5t105 -74.5t64.5 -110.5t6 -146.5q-23 -115 -127 -200.5t-274 -85.5q-161 0 -268 101.5t-115 233.5zM358 -389q107 126 99 274h96q-6 -192 -127 -288z" />
    <glyph glyph-name="Idotaccent.sc" horiz-adv-x="485" 
d="M170 1485q0 30 21 49.5t51 19.5q31 0 52 -19.5t21 -49.5q0 -29 -21 -48.5t-52 -19.5q-30 0 -51 19.5t-21 48.5zM199 0v1200h88v-1200h-88z" />
    <glyph glyph-name="zero.numr" horiz-adv-x="735" 
d="M90 961q0 92 13 162.5t43.5 129t87 90t137.5 31.5q79 0 134.5 -31.5t85 -90.5t42 -129t12.5 -162t-12.5 -162.5t-42 -129.5t-85 -90.5t-134.5 -31.5q-81 0 -137.5 31.5t-87 90.5t-43.5 129.5t-13 162.5zM172 961q0 -58 5.5 -105.5t19 -90.5t36 -72.5t57.5 -46.5t81 -17
q56 0 94.5 25t59.5 72.5t29.5 104t8.5 130.5t-8.5 130t-29.5 103.5t-59.5 72.5t-94.5 25q-57 0 -97.5 -25t-62 -72t-30.5 -103.5t-9 -130.5z" />
    <glyph glyph-name="one.numr" horiz-adv-x="397" 
d="M57 1202v80l219 80v-813h-81v702z" />
    <glyph glyph-name="two.numr" horiz-adv-x="655" 
d="M74 1180q15 86 83 138t160 52q106 0 177 -65t71 -166q0 -103 -90 -207l-112.5 -133.5l-139.5 -167.5h344v-82h-485v35l334 401q67 80 67 154q0 67 -47.5 109t-118.5 42q-63 0 -110.5 -35.5t-56.5 -95.5z" />
    <glyph glyph-name="three.numr" horiz-adv-x="665" 
d="M63 690l68 41q47 -100 170 -110q78 -6 135.5 38.5t63.5 116.5q3 71 -49.5 119.5t-124.5 48.5h-84v78h84q53 0 92 34t45 85q5 61 -32 102t-107 47q-50 4 -94 -18.5t-68 -61.5l-64 45q33 56 96 88.5t136 28.5q106 -7 166 -72.5t55 -154.5q-3 -50 -32.5 -92.5t-76.5 -65.5
q66 -20 106 -86t34 -137q-9 -102 -92 -167t-195 -58q-161 12 -232 151z" />
    <glyph glyph-name="four.numr" horiz-adv-x="727" 
d="M41 721l444 639h60v-563h123v-76h-123v-172h-80v172h-424zM184 797h281v409z" />
    <glyph glyph-name="five.numr" horiz-adv-x="696" 
d="M66 709l67 49q27 -59 82.5 -98t116.5 -39q96 0 153.5 52.5t57.5 131.5q0 80 -56.5 125t-128.5 45q-61 0 -108.5 -13.5t-128.5 -52.5l-23 29l74 422h399v-80h-329l-49 -266q88 45 165 45q109 0 188 -68.5t79 -185.5q0 -120 -80 -193t-213 -73q-81 0 -154 47.5t-112 122.5z
" />
    <glyph glyph-name="six.numr" horiz-adv-x="694" 
d="M94 811q-3 57 -4 105t3.5 108.5t15 108t32 94.5t52 78.5t78.5 50.5t108 18q75 -3 130 -35t89 -110l-72 -31q-48 96 -149 96q-77 2 -126 -50t-65 -128t-10 -168q19 59 73 88t120 27q106 -1 177 -81.5t66 -190.5q-5 -108 -81 -181t-183 -69q-107 5 -176 76.5t-78 193.5z
M176 811q0 -78 50.5 -131.5t123.5 -56.5q75 -3 127 47t55 125q3 77 -44.5 131t-120.5 57q-75 3 -131.5 -47t-59.5 -125z" />
    <glyph glyph-name="seven.numr" horiz-adv-x="636" 
d="M72 549l403 731h-399v80h536l-444 -811h-96z" />
    <glyph glyph-name="eight.numr" horiz-adv-x="706" 
d="M80 797q0 73 37.5 132.5t101.5 92.5q-35 26 -55 66t-19 86q0 84 59 141t148 57q90 0 150.5 -57t60.5 -141q0 -97 -78 -152q65 -33 103.5 -92.5t38.5 -132.5q0 -108 -79.5 -183t-195.5 -75t-194 75t-78 183zM160 797q0 -74 54.5 -125t137.5 -51t139 51t56 125t-56 128
t-137 54q-82 0 -138 -54.5t-56 -127.5zM225 1174q0 -54 37.5 -89t95.5 -34q52 0 87.5 36.5t35.5 86.5t-37 83t-92 33q-54 0 -90.5 -33.5t-36.5 -82.5z" />
    <glyph glyph-name="nine.numr" horiz-adv-x="692" 
d="M80 1120q5 109 81.5 181.5t184.5 68.5q105 -3 174 -75.5t78 -194.5q3 -57 4 -105t-3.5 -108t-15 -107.5t-32 -94.5t-52 -78t-78.5 -50t-108 -18q-75 2 -131 33.5t-90 111.5l72 31q46 -95 153 -99q58 -1 100 28.5t64.5 80t31.5 111t5 127.5q-21 -58 -74 -87.5t-118 -27.5
q-108 3 -179.5 83.5t-66.5 188.5zM162 1116q-3 -77 44 -130t122 -56q74 -3 129.5 46.5t58.5 125.5q0 78 -50.5 130.5t-123.5 55.5t-125 -47t-55 -125z" />
    <glyph glyph-name="zero.dnom" horiz-adv-x="735" 
d="M90 403q0 92 13 162.5t43.5 129.5t87 90.5t137.5 31.5q79 0 134.5 -31.5t85 -90.5t42 -129.5t12.5 -162.5t-12.5 -162t-42 -129t-85 -90.5t-134.5 -31.5q-81 0 -137.5 31.5t-87 90t-43.5 129t-13 162.5zM172 403q0 -74 9 -130.5t30.5 -103.5t62 -72t97.5 -25
q56 0 94.5 25t59.5 72.5t29.5 103.5t8.5 130t-8.5 130.5t-29.5 104t-59.5 72.5t-94.5 25q-46 0 -81 -17t-57.5 -46.5t-36 -72.5t-19 -90.5t-5.5 -105.5z" />
    <glyph glyph-name="one.dnom" horiz-adv-x="397" 
d="M57 653v80l219 80v-813h-81v700z" />
    <glyph glyph-name="two.dnom" horiz-adv-x="651" 
d="M72 629q15 88 83 140t160 52q106 0 177 -65t71 -168t-90 -207l-252 -299h344v-82h-485v33l334 403q67 77 67 152q0 68 -47 109.5t-119 41.5q-63 0 -111 -35.5t-57 -93.5z" />
    <glyph glyph-name="three.dnom" horiz-adv-x="665" 
d="M63 139l68 41q49 -101 170 -108q78 -6 135.5 38.5t63.5 116.5q3 69 -49.5 118.5t-124.5 49.5h-84v78h84q53 0 92 34t45 85q5 60 -32 100.5t-107 46.5q-50 4 -94 -17t-68 -60l-64 45q32 56 95.5 87t136.5 27q105 -6 165.5 -71.5t55.5 -155.5q-3 -47 -32.5 -90t-76.5 -68
q66 -18 106 -84.5t34 -136.5q-9 -103 -92 -167.5t-195 -57.5q-159 9 -232 149z" />
    <glyph glyph-name="four.dnom" horiz-adv-x="724" 
d="M39 172l444 639h60v-563h123v-76h-123v-172h-80v172h-424zM182 248h281v409z" />
    <glyph glyph-name="five.dnom" horiz-adv-x="696" 
d="M66 160l67 47q26 -59 82 -97t117 -38q96 0 153.5 52t57.5 130q0 81 -56.5 126.5t-128.5 45.5q-61 0 -109 -14t-128 -54l-23 29l74 424h399v-80h-329l-49 -266q91 43 165 43q110 0 188.5 -67.5t78.5 -186.5t-80 -191.5t-213 -72.5q-81 0 -154 47.5t-112 122.5z" />
    <glyph glyph-name="six.dnom" horiz-adv-x="694" 
d="M94 262q-3 57 -4 105t3.5 108t15 107.5t32 94.5t52 78t78.5 50t108 18q74 -2 129.5 -33.5t89.5 -109.5l-72 -33q-46 95 -149 98q-77 1 -126 -51t-65 -127.5t-10 -167.5q19 59 73 88t120 27q107 -3 177.5 -83t65.5 -189q-5 -108 -81 -181t-183 -69q-107 3 -176 75.5
t-78 194.5zM176 260q0 -77 50.5 -131t123.5 -57q74 -3 126.5 47.5t55.5 126.5t-44 129.5t-121 56.5q-76 3 -132 -46.5t-59 -125.5z" />
    <glyph glyph-name="seven.dnom" horiz-adv-x="638" 
d="M72 0l403 729h-399v82h536l-444 -811h-96z" />
    <glyph glyph-name="eight.dnom" horiz-adv-x="706" 
d="M80 248q0 71 38 131.5t101 93.5q-35 26 -55 66t-19 86q0 83 59.5 140.5t147.5 57.5q90 0 150.5 -57.5t60.5 -140.5q0 -96 -78 -154q65 -31 103.5 -91t38.5 -132q0 -109 -79 -183.5t-196 -74.5q-116 0 -194 74.5t-78 183.5zM160 248q0 -74 55 -126t137 -52q83 0 139 52
t56 126q0 73 -56 126.5t-137 53.5q-82 0 -138 -54t-56 -126zM225 625q0 -54 37.5 -89.5t95.5 -35.5q52 0 87.5 37.5t35.5 87.5q0 48 -37 82t-92 34q-53 0 -90 -34t-37 -82z" />
    <glyph glyph-name="nine.dnom" horiz-adv-x="694" 
d="M80 569q5 109 81.5 182.5t184.5 69.5q106 -5 174.5 -77t77.5 -195q3 -57 4 -104.5t-3.5 -107.5t-15 -107t-32 -94t-52 -78t-78.5 -50t-108 -18q-75 2 -131 33.5t-90 111.5l72 29q46 -92 153 -96q76 -1 124.5 50.5t65 126.5t11.5 167q-21 -59 -74.5 -87.5t-117.5 -25.5
q-71 1 -129 38.5t-89 99t-28 132.5zM162 567q-3 -77 44 -130t122 -56q74 -3 129.5 46.5t58.5 125.5q0 77 -50.5 130t-123.5 56t-125 -47t-55 -125z" />
    <glyph glyph-name="l.alt1" horiz-adv-x="518" 
d="M162 403v1098h92v-1098q0 -53 6 -96t21.5 -84.5t41 -70t67.5 -45.5t97 -17h54v-90h-54q-325 0 -325 403z" />
    <glyph glyph-name="a.alt1" horiz-adv-x="1101" 
d="M92 256q0 60 20.5 109.5t64.5 90t122.5 63t185.5 22.5q149 0 365 -68v111q0 301 -342 301q-92 0 -161.5 -30t-135.5 -91q-34 34 -61 65q127 148 374 148q202 0 310 -100.5t108 -292.5v-584h-92v164q-80 -95 -198.5 -141t-221.5 -46q-157 0 -247.5 74.5t-90.5 204.5z
M184 256q0 -83 63 -135.5t187 -52.5q65 0 139.5 20t153 69.5t121.5 118.5v109q-85 34 -191 51t-172 17q-301 0 -301 -197z" />
    <glyph glyph-name="y.alt1" horiz-adv-x="1030" 
d="M55 -379q27 -8 72 -8q104 0 170.5 61.5t128.5 196.5l39 104l-410 981h101l358 -870l360 870h99l-465 -1122q-73 -163 -158 -237t-223 -74q-35 0 -72 8v90z" />
    <glyph glyph-name="lslash.alt1" horiz-adv-x="546" 
d="M20 598v86l168 107v710h93v-653l196 125v-86l-196 -125v-359q0 -53 6 -96t21.5 -84.5t41 -70t67.5 -45.5t97 -17h53v-90h-53q-326 0 -326 403v302z" />
    <glyph glyph-name="lacute.alt1" horiz-adv-x="518" 
d="M162 403v1098h92v-1098q0 -53 6 -96t21.5 -84.5t41 -70t67.5 -45.5t97 -17h54v-90h-54q-325 0 -325 403zM166 1624l156 266h112l-176 -266h-92z" />
    <glyph glyph-name="lcommaaccent.alt1" horiz-adv-x="518" 
d="M162 403v1098h92v-1098q0 -53 6 -96t21.5 -84.5t41 -70t67.5 -45.5t97 -17h54v-90h-54q-325 0 -325 403zM279 -457q124 144 118 320h105q-12 -221 -150 -330q-21 2 -73 10z" />
    <glyph glyph-name="lcaron.alt1" horiz-adv-x="518" 
d="M162 403v1098h92v-1098q0 -53 6 -96t21.5 -84.5t41 -70t67.5 -45.5t97 -17h54v-90h-54q-325 0 -325 403zM348 1104q122 169 117 397h92q-5 -253 -149 -420q-15 5 -60 23z" />
    <glyph glyph-name="aacute.alt1" horiz-adv-x="1101" 
d="M92 256q0 60 20.5 109.5t64.5 90t122.5 63t185.5 22.5q149 0 365 -68v111q0 301 -342 301q-92 0 -161.5 -30t-135.5 -91q-34 34 -61 65q127 148 374 148q202 0 310 -100.5t108 -292.5v-584h-92v164q-80 -95 -198.5 -141t-221.5 -46q-157 0 -247.5 74.5t-90.5 204.5z
M184 256q0 -83 63 -135.5t187 -52.5q65 0 139.5 20t153 69.5t121.5 118.5v109q-85 34 -191 51t-172 17q-301 0 -301 -197zM467 1116l154 266h114l-178 -266h-90z" />
    <glyph glyph-name="agrave.alt1" horiz-adv-x="1101" 
d="M92 256q0 60 20.5 109.5t64.5 90t122.5 63t185.5 22.5q149 0 365 -68v111q0 301 -342 301q-92 0 -161.5 -30t-135.5 -91q-34 34 -61 65q127 148 374 148q202 0 310 -100.5t108 -292.5v-584h-92v164q-80 -95 -198.5 -141t-221.5 -46q-157 0 -247.5 74.5t-90.5 204.5z
M184 256q0 -83 63 -135.5t187 -52.5q65 0 139.5 20t153 69.5t121.5 118.5v109q-85 34 -191 51t-172 17q-301 0 -301 -197zM328 1382h112l156 -266h-92z" />
    <glyph glyph-name="acircumflex.alt1" horiz-adv-x="1101" 
d="M92 256q0 60 20.5 109.5t64.5 90t122.5 63t185.5 22.5q149 0 365 -68v111q0 301 -342 301q-92 0 -161.5 -30t-135.5 -91q-34 34 -61 65q127 148 374 148q202 0 310 -100.5t108 -292.5v-584h-92v164q-80 -95 -198.5 -141t-221.5 -46q-157 0 -247.5 74.5t-90.5 204.5z
M184 256q0 -83 63 -135.5t187 -52.5q65 0 139.5 20t153 69.5t121.5 118.5v109q-85 34 -191 51t-172 17q-301 0 -301 -197zM242 1116l213 266h131l213 -266h-94l-185 203l-184 -203h-94z" />
    <glyph glyph-name="adieresis.alt1" horiz-adv-x="1101" 
d="M92 256q0 60 20.5 109.5t64.5 90t122.5 63t185.5 22.5q149 0 365 -68v111q0 301 -342 301q-92 0 -161.5 -30t-135.5 -91q-34 34 -61 65q127 148 374 148q202 0 310 -100.5t108 -292.5v-584h-92v164q-80 -95 -198.5 -141t-221.5 -46q-157 0 -247.5 74.5t-90.5 204.5z
M184 256q0 -83 63 -135.5t187 -52.5q65 0 139.5 20t153 69.5t121.5 118.5v109q-85 34 -191 51t-172 17q-301 0 -301 -197zM279 1288q0 33 23 54.5t56 21.5q36 0 59 -21.5t23 -54.5q0 -32 -23.5 -53t-58.5 -21q-33 0 -56 21t-23 53zM612 1288q0 33 23.5 54.5t56.5 21.5
q36 0 59 -21.5t23 -54.5q0 -32 -23.5 -53t-58.5 -21q-33 0 -56.5 21t-23.5 53z" />
    <glyph glyph-name="atilde.alt1" horiz-adv-x="1101" 
d="M92 256q0 60 20.5 109.5t64.5 90t122.5 63t185.5 22.5q149 0 365 -68v111q0 301 -342 301q-92 0 -161.5 -30t-135.5 -91q-34 34 -61 65q127 148 374 148q202 0 310 -100.5t108 -292.5v-584h-92v164q-80 -95 -198.5 -141t-221.5 -46q-157 0 -247.5 74.5t-90.5 204.5z
M184 256q0 -83 63 -135.5t187 -52.5q65 0 139.5 20t153 69.5t121.5 118.5v109q-85 34 -191 51t-172 17q-301 0 -301 -197zM303 1169q4 85 47.5 131t91.5 46h19q32 0 67 -21.5l67 -43t56 -21.5q27 0 50 21t24 67h80q-4 -85 -46.5 -129.5t-92.5 -44.5q-43 0 -111.5 44
t-97.5 44q-26 0 -49.5 -23.5t-24.5 -69.5h-80z" />
    <glyph glyph-name="aring.alt1" horiz-adv-x="1101" 
d="M92 256q0 60 20.5 109.5t64.5 90t122.5 63t185.5 22.5q149 0 365 -68v111q0 301 -342 301q-92 0 -161.5 -30t-135.5 -91q-34 34 -61 65q127 148 374 148q202 0 310 -100.5t108 -292.5v-584h-92v164q-80 -95 -198.5 -141t-221.5 -46q-157 0 -247.5 74.5t-90.5 204.5z
M184 256q0 -83 63 -135.5t187 -52.5q65 0 139.5 20t153 69.5t121.5 118.5v109q-85 34 -191 51t-172 17q-301 0 -301 -197zM348 1319q0 76 52 130t126 54q78 0 131.5 -53.5t53.5 -130.5q0 -75 -53.5 -127.5t-131.5 -52.5q-74 0 -126 52.5t-52 127.5zM424 1319q0 -43 30 -72.5
t74 -29.5t75.5 29.5t31.5 72.5q0 45 -31 75.5t-76 30.5q-44 0 -74 -30t-30 -76z" />
    <glyph glyph-name="amacron.alt1" horiz-adv-x="1101" 
d="M92 256q0 60 20.5 109.5t64.5 90t122.5 63t185.5 22.5q149 0 365 -68v111q0 301 -342 301q-92 0 -161.5 -30t-135.5 -91q-34 34 -61 65q127 148 374 148q202 0 310 -100.5t108 -292.5v-584h-92v164q-80 -95 -198.5 -141t-221.5 -46q-157 0 -247.5 74.5t-90.5 204.5z
M184 256q0 -83 63 -135.5t187 -52.5q65 0 139.5 20t153 69.5t121.5 118.5v109q-85 34 -191 51t-172 17q-301 0 -301 -197zM293 1237v86h475v-86h-475z" />
    <glyph glyph-name="abreve.alt1" horiz-adv-x="1101" 
d="M92 256q0 60 20.5 109.5t64.5 90t122.5 63t185.5 22.5q149 0 365 -68v111q0 301 -342 301q-92 0 -161.5 -30t-135.5 -91q-34 34 -61 65q127 148 374 148q202 0 310 -100.5t108 -292.5v-584h-92v164q-80 -95 -198.5 -141t-221.5 -46q-157 0 -247.5 74.5t-90.5 204.5z
M184 256q0 -83 63 -135.5t187 -52.5q65 0 139.5 20t153 69.5t121.5 118.5v109q-85 34 -191 51t-172 17q-301 0 -301 -197zM324 1364h75q5 -62 45.5 -103.5t114.5 -41.5q72 0 115.5 41t46.5 104h76q0 -101 -65.5 -163t-172.5 -62q-116 0 -175.5 65.5t-59.5 159.5z" />
    <glyph glyph-name="aogonek.alt1" horiz-adv-x="1101" 
d="M92 256q0 60 20.5 109.5t64.5 90t122.5 63t185.5 22.5q149 0 365 -68v111q0 301 -342 301q-92 0 -161.5 -30t-135.5 -91q-34 34 -61 65q127 148 374 148q202 0 310 -100.5t108 -292.5v-584h-14l-56 -168q-12 -36 -12 -49q0 -32 19 -58t51 -40q41 -17 82.5 0t60.5 57
q12 28 12 59h82q0 -40 -16 -86q-34 -76 -106.5 -106.5t-145.5 0.5q-77 31 -106.5 104.5t4.5 151.5l53 135v164q-80 -95 -198.5 -141t-221.5 -46q-157 0 -247.5 74.5t-90.5 204.5zM184 256q0 -83 63 -135.5t187 -52.5q65 0 139.5 20t153 69.5t121.5 118.5v109q-85 34 -191 51
t-172 17q-301 0 -301 -197z" />
    <glyph glyph-name="yacute.alt1" horiz-adv-x="1030" 
d="M55 -379q27 -8 72 -8q104 0 170.5 61.5t128.5 196.5l39 104l-410 981h101l358 -870l360 870h99l-465 -1122q-73 -163 -158 -237t-223 -74q-35 0 -72 8v90zM465 1116l153 266h115l-178 -266h-90z" />
    <glyph glyph-name="ydieresis.alt1" horiz-adv-x="1030" 
d="M55 -379q27 -8 72 -8q104 0 170.5 61.5t128.5 196.5l39 104l-410 981h101l358 -870l360 870h99l-465 -1122q-73 -163 -158 -237t-223 -74q-35 0 -72 8v90zM289 1288q0 33 23.5 54.5t56.5 21.5q36 0 59 -21.5t23 -54.5q0 -32 -23.5 -53t-58.5 -21q-33 0 -56.5 21t-23.5 53
zM623 1288q0 33 23 54.5t56 21.5q36 0 59 -21.5t23 -54.5q0 -32 -23.5 -53t-58.5 -21q-33 0 -56 21t-23 53z" />
    <glyph glyph-name="ae.alt1" horiz-adv-x="1890" 
d="M92 256q0 60 20.5 109.5t64.5 90t122.5 63t185.5 22.5q149 0 365 -68v111q0 301 -342 301q-92 0 -161.5 -30t-135.5 -91q-34 34 -61 65q127 148 374 148q154 0 254 -59t140 -173q62 109 171 170.5t242 61.5q206 0 337.5 -136.5t131.5 -359.5q0 -29 -2 -43h-854
q12 -165 121.5 -265.5t265.5 -100.5q107 0 195 48.5t139 133.5l88 -31q-61 -115 -173 -179t-249 -64q-121 0 -222.5 51t-166.5 143v-174h-92v164q-80 -95 -198.5 -141t-221.5 -46q-157 0 -247.5 74.5t-90.5 204.5zM184 256q0 -83 63 -135.5t187 -52.5q65 0 139.5 20
t153 69.5t121.5 118.5v109q-85 34 -191 51t-172 17q-301 0 -301 -197zM944 524h762q-13 165 -116 263t-259 98t-265 -99t-122 -262z" />
    <glyph glyph-name="aeacute.alt1" horiz-adv-x="1890" 
d="M92 256q0 60 20.5 109.5t64.5 90t122.5 63t185.5 22.5q149 0 365 -68v111q0 301 -342 301q-92 0 -161.5 -30t-135.5 -91q-34 34 -61 65q127 148 374 148q154 0 254 -59t140 -173q62 109 171 170.5t242 61.5q206 0 337.5 -136.5t131.5 -359.5q0 -29 -2 -43h-854
q12 -165 121.5 -265.5t265.5 -100.5q107 0 195 48.5t139 133.5l88 -31q-61 -115 -173 -179t-249 -64q-121 0 -222.5 51t-166.5 143v-174h-92v164q-80 -95 -198.5 -141t-221.5 -46q-157 0 -247.5 74.5t-90.5 204.5zM184 256q0 -83 63 -135.5t187 -52.5q65 0 139.5 20
t153 69.5t121.5 118.5v109q-85 34 -191 51t-172 17q-301 0 -301 -197zM924 1116l153 266h115l-178 -266h-90zM944 524h762q-13 165 -116 263t-259 98t-265 -99t-122 -262z" />
    <glyph glyph-name="ycircumflex.alt1" horiz-adv-x="1030" 
d="M55 -379q27 -8 72 -8q104 0 170.5 61.5t128.5 196.5l39 104l-410 981h101l358 -870l360 870h99l-465 -1122q-73 -163 -158 -237t-223 -74q-35 0 -72 8v90zM244 1116l213 266h131l213 -266h-94l-185 203l-184 -203h-94z" />
    <glyph glyph-name="ldot.alt1" horiz-adv-x="534" 
d="M162 403v1098h92v-1098q0 -53 6 -96t21.5 -84.5t41 -70t67.5 -45.5t97 -17h54v-90h-54q-325 0 -325 403zM389 504q0 35 24.5 57.5t59.5 22.5q36 0 61 -22.5t25 -57.5q0 -33 -25 -55.5t-61 -22.5q-34 0 -59 22.5t-25 55.5z" />
    <glyph glyph-name="t.alt1" horiz-adv-x="638" 
d="M63 872v84h175v283l92 33v-316h223v-84h-223v-528q0 -132 49 -193t184 -61h35v-90h-35q-179 0 -252 83.5t-73 260.5v528h-175z" />
    <glyph glyph-name="tcaron.alt1" horiz-adv-x="638" 
d="M63 872v84h175v283l92 33v-316h223v-84h-223v-528q0 -132 49 -193t184 -61h35v-90h-35q-179 0 -252 83.5t-73 260.5v528h-175zM428 1075q99 135 86 314h100q2 -214 -127 -334z" />
    <glyph glyph-name="tbar.alt1" horiz-adv-x="645" 
d="M70 872v84h174v283l92 33v-316h223v-84h-223v-315h158v-78h-158v-135q0 -132 49 -193t184 -61h35v-90h-35q-179 0 -252 83.5t-73 260.5v135h-140v78h140v315h-174z" />
    <glyph glyph-name="tcommaaccent.alt1" horiz-adv-x="638" 
d="M63 872v84h175v283l92 33v-316h223v-84h-223v-528q0 -132 49 -193t184 -61h35v-90h-35q-179 0 -252 83.5t-73 260.5v528h-175zM330 -457q125 145 119 320h104q-12 -221 -150 -330q-21 2 -73 10z" />
    <glyph glyph-name="T.sc.alt1" horiz-adv-x="997" 
d="M61 1112v88h875v-88h-393v-1112h-88v1112h-394z" />
    <glyph glyph-name="Tcaron.sc.alt1" horiz-adv-x="999" 
d="M61 1112v88h877v-88h-395v-1112h-88v1112h-394zM256 1567h88l152 -168l153 168h86l-180 -230h-117z" />
    <glyph glyph-name="Tbar.sc.alt1" horiz-adv-x="1001" 
d="M63 1112v88h877v-88h-395v-418h225v-73h-225v-621h-88v621h-224v73h224v418h-394z" />
    <glyph glyph-name="Tcommaaccent.sc.alt1" horiz-adv-x="997" 
d="M61 1112v88h875v-88h-393v-1112h-88v1112h-394zM358 -389q107 126 99 274h96q-6 -192 -127 -288z" />
    <glyph glyph-name="aringacute.alt1" horiz-adv-x="1101" 
d="M92 256q0 60 20.5 109.5t64.5 90t122.5 63t185.5 22.5q149 0 365 -68v111q0 301 -342 301q-92 0 -161.5 -30t-135.5 -91q-34 34 -61 65q127 148 374 148q202 0 310 -100.5t108 -292.5v-584h-92v164q-80 -95 -198.5 -141t-221.5 -46q-157 0 -247.5 74.5t-90.5 204.5z
M184 256q0 -83 63 -135.5t187 -52.5q65 0 139.5 20t153 69.5t121.5 118.5v109q-85 34 -191 51t-172 17q-301 0 -301 -197zM371 1298q0 66 38 115.5t97 63.5l129 221h113l-150 -223q59 -15 97 -64.5t38 -112.5q0 -75 -53.5 -127.5t-130.5 -52.5q-75 0 -126.5 52.5
t-51.5 127.5zM446 1300q0 -44 30 -74t73 -30q44 0 75 30t31 74t-31 75.5t-75 31.5q-43 0 -73 -31.5t-30 -75.5z" />
    </font>
</defs>
</svg>
